<?xml version="1.0" encoding="UTF-8"?>
<!DOCTYPE svg PUBLIC "-//W3C//DTD SVG 1.1//EN" "http://www.w3.org/Graphics/SVG/1.1/DTD/svg11.dtd">
<svg xmlns="http://www.w3.org/2000/svg" version="1.1" width="1726px" height="2094px" style="shape-rendering:geometricPrecision; text-rendering:geometricPrecision; image-rendering:optimizeQuality; fill-rule:evenodd; clip-rule:evenodd" xmlns:xlink="http://www.w3.org/1999/xlink">
<g><path style="opacity:0.974" fill="#b2d4f1" d="M 777.5,-0.5 C 782.833,-0.5 788.167,-0.5 793.5,-0.5C 804.842,8.26766 816.342,16.9343 828,25.5C 830.202,42.6999 831.369,59.8665 831.5,77C 828.568,78.1449 825.568,78.9782 822.5,79.5C 821.89,78.609 821.557,77.609 821.5,76.5C 820.789,62.164 819.956,47.8307 819,33.5C 810.256,26.8779 801.422,20.3779 792.5,14C 790.115,13.4436 787.782,13.6103 785.5,14.5C 762.974,22.0641 740.474,29.7308 718,37.5C 713.527,47.9172 708.861,58.2506 704,68.5C 703.71,84.8344 703.876,101.168 704.5,117.5C 701.828,118.501 699.162,119.501 696.5,120.5C 694.78,118.342 693.947,115.675 694,112.5C 693.277,98.486 692.444,84.486 691.5,70.5C 698.017,55.7915 705.017,41.2915 712.5,27C 615.827,31.1063 519.161,35.6063 422.5,40.5C 450.118,30.4612 478.118,21.2945 506.5,13C 597.008,8.82536 687.341,4.32536 777.5,-0.5 Z"/></g>
<g><path style="opacity:1" fill="#151c1f" d="M 821.5,76.5 C 818.183,62.901 814.683,49.2343 811,35.5C 802.153,28.8396 793.653,21.8396 785.5,14.5C 787.782,13.6103 790.115,13.4436 792.5,14C 801.422,20.3779 810.256,26.8779 819,33.5C 819.956,47.8307 820.789,62.164 821.5,76.5 Z"/></g>
<g><path style="opacity:1" fill="#7d96a9" d="M 785.5,14.5 C 793.653,21.8396 802.153,28.8396 811,35.5C 814.683,49.2343 818.183,62.901 821.5,76.5C 821.557,77.609 821.89,78.609 822.5,79.5C 825.592,95.0366 828.925,110.537 832.5,126C 827.158,137.185 821.658,148.351 816,159.5C 800.854,165.158 785.687,170.492 770.5,175.5C 761.406,177.753 752.406,180.419 743.5,183.5C 734.192,177.841 725.192,171.674 716.5,165C 715.107,163.829 714.273,162.329 714,160.5C 710.873,146.018 707.706,131.684 704.5,117.5C 703.876,101.168 703.71,84.8344 704,68.5C 708.861,58.2506 713.527,47.9172 718,37.5C 740.474,29.7308 762.974,22.0641 785.5,14.5 Z"/></g>
<g><path style="opacity:1" fill="#7d96a9" d="M 691.5,70.5 C 606.825,74.0671 522.158,77.9004 437.5,82C 429.259,82.0135 421.259,82.8468 413.5,84.5C 412.903,84.2648 412.57,83.7648 412.5,83C 415.663,68.6633 418.996,54.4966 422.5,40.5C 519.161,35.6063 615.827,31.1063 712.5,27C 705.017,41.2915 698.017,55.7915 691.5,70.5 Z"/></g>
<g><path style="opacity:0.97" fill="#b2d4f1" d="M 1553.5,174.5 C 1460.47,150.091 1367.47,125.425 1274.5,100.5C 1274.17,101 1273.83,101.5 1273.5,102C 1277.55,117.029 1280.88,132.196 1283.5,147.5C 1279.9,161.141 1276.4,174.807 1273,188.5C 1272.27,191.187 1271.1,193.52 1269.5,195.5C 1267.17,194.167 1264.83,192.833 1262.5,191.5C 1262.02,190.584 1261.69,189.584 1261.5,188.5C 1265.48,173.902 1269.15,159.236 1272.5,144.5C 1270,132.843 1267.5,121.176 1265,109.5C 1244.53,97.3507 1224.03,85.3507 1203.5,73.5C 1202.06,72.2745 1200.4,71.2745 1198.5,70.5C 1187.86,74.8794 1177.36,79.5461 1167,84.5C 1163.03,97.3769 1159.53,110.377 1156.5,123.5C 1155.8,125.629 1154.8,127.629 1153.5,129.5C 1150.57,127.355 1147.57,125.188 1144.5,123C 1149.59,107.219 1154.59,91.3858 1159.5,75.5C 1173.12,68.7725 1186.96,62.4392 1201,56.5C 1294.14,81.4112 1387.31,106.245 1480.5,131C 1504.9,145.526 1529.23,160.026 1553.5,174.5 Z"/></g>
<g><path style="opacity:1" fill="#38434b" d="M 691.5,70.5 C 692.444,84.486 693.277,98.486 694,112.5C 693.947,115.675 694.78,118.342 696.5,120.5C 694.369,121.314 692.036,121.814 689.5,122C 614.17,125.633 538.836,129.133 463.5,132.5C 463.5,133.833 463.5,135.167 463.5,136.5C 462.71,135.391 462.21,134.058 462,132.5C 452.054,134.411 442.721,132.744 434,127.5C 427.155,113.145 420.322,98.8115 413.5,84.5C 421.259,82.8468 429.259,82.0135 437.5,82C 522.158,77.9004 606.825,74.0671 691.5,70.5 Z"/></g>
<g><path style="opacity:1" fill="#161d20" d="M 1203.5,73.5 C 1193.65,78.3423 1183.82,83.3423 1174,88.5C 1168.42,100.994 1162.59,112.66 1156.5,123.5C 1159.53,110.377 1163.03,97.3769 1167,84.5C 1177.36,79.5461 1187.86,74.8794 1198.5,70.5C 1200.4,71.2745 1202.06,72.2745 1203.5,73.5 Z"/></g>
<g><path style="opacity:1" fill="#7d96a9" d="M 1203.5,73.5 C 1224.03,85.3507 1244.53,97.3507 1265,109.5C 1267.5,121.176 1270,132.843 1272.5,144.5C 1269.15,159.236 1265.48,173.902 1261.5,188.5C 1261.69,189.584 1262.02,190.584 1262.5,191.5C 1261.62,191.369 1260.96,191.702 1260.5,192.5C 1254.11,206.515 1247.45,220.348 1240.5,234C 1230.46,238.403 1220.46,242.903 1210.5,247.5C 1202.06,242.28 1193.39,237.613 1184.5,233.5C 1172.06,225.774 1159.39,218.274 1146.5,211C 1145.01,210.255 1144.01,209.088 1143.5,207.5C 1140.42,196.019 1137.42,184.519 1134.5,173C 1140.93,158.531 1147.27,144.031 1153.5,129.5C 1154.8,127.629 1155.8,125.629 1156.5,123.5C 1162.59,112.66 1168.42,100.994 1174,88.5C 1183.82,83.3423 1193.65,78.3423 1203.5,73.5 Z"/></g>
<g><path style="opacity:1" fill="#7d95a9" d="M 1553.5,174.5 C 1553.83,189.676 1553.5,204.676 1552.5,219.5C 1552.39,218.883 1552.06,218.383 1551.5,218C 1462.23,194.182 1372.89,170.682 1283.5,147.5C 1280.88,132.196 1277.55,117.029 1273.5,102C 1273.83,101.5 1274.17,101 1274.5,100.5C 1367.47,125.425 1460.47,150.091 1553.5,174.5 Z"/></g>
<g><path style="opacity:0.997" fill="#11181a" d="M 704.5,117.5 C 707.706,131.684 710.873,146.018 714,160.5C 714.273,162.329 715.107,163.829 716.5,165C 725.192,171.674 734.192,177.841 743.5,183.5C 752.406,180.419 761.406,177.753 770.5,175.5C 771.138,177.46 771.138,179.293 770.5,181C 760.436,184.077 750.436,187.244 740.5,190.5C 731.876,192.097 723.543,194.597 715.5,198C 700.333,198.683 685.333,199.517 670.5,200.5C 659.506,201.237 648.506,201.903 637.5,202.5C 636.833,198.167 636.167,193.833 635.5,189.5C 590.142,191.801 544.809,193.968 499.5,196C 490.135,188.658 480.802,181.324 471.5,174C 468.435,161.573 465.768,149.073 463.5,136.5C 463.5,135.167 463.5,133.833 463.5,132.5C 538.836,129.133 614.17,125.633 689.5,122C 692.036,121.814 694.369,121.314 696.5,120.5C 699.162,119.501 701.828,118.501 704.5,117.5 Z"/></g>
<g><path style="opacity:1" fill="#38434b" d="M 1283.5,147.5 C 1372.89,170.682 1462.23,194.182 1551.5,218C 1552.06,218.383 1552.39,218.883 1552.5,219.5C 1542.88,232.129 1533.21,244.796 1523.5,257.5C 1513.83,260.494 1504.33,260.16 1495,256.5C 1494.72,257.416 1494.22,258.082 1493.5,258.5C 1493.24,256.224 1491.91,255.057 1489.5,255C 1415.74,236.014 1342.41,216.181 1269.5,195.5C 1271.1,193.52 1272.27,191.187 1273,188.5C 1276.4,174.807 1279.9,161.141 1283.5,147.5 Z"/></g>
<g><path style="opacity:0.984" fill="#030205" d="M 111.5,249.5 C 106.603,257.851 103.27,266.851 101.5,276.5C 97.2488,291.404 95.2488,306.738 95.5,322.5C 95.5,328.167 95.5,333.833 95.5,339.5C 76.3494,333.856 57.3494,334.19 38.5,340.5C 37.9298,332.46 37.9298,324.46 38.5,316.5C 39.1963,308.963 39.863,301.296 40.5,293.5C 40.3764,292.893 40.0431,292.56 39.5,292.5C 44.0401,251.003 59.5401,214.337 86,182.5C 102.718,168.469 118.385,169.469 133,185.5C 140.932,202.107 137.932,216.441 124,228.5C 119.318,235.197 115.152,242.197 111.5,249.5 Z"/></g>
<g><path style="opacity:0.972" fill="#b2d4f0" d="M 438.5,248.5 C 437.203,246.629 436.203,244.629 435.5,242.5C 432.469,229.377 428.969,216.377 425,203.5C 414.574,198.705 404.074,194.038 393.5,189.5C 391.604,190.275 389.937,191.275 388.5,192.5C 367.973,204.351 347.473,216.351 327,228.5C 324.499,240.176 321.999,251.843 319.5,263.5C 322.851,278.236 326.517,292.902 330.5,307.5C 330.315,308.584 329.982,309.584 329.5,310.5C 327.167,311.833 324.833,313.167 322.5,314.5C 320.895,312.52 319.728,310.187 319,307.5C 315.602,293.807 312.102,280.141 308.5,266.5C 311.117,251.196 314.45,236.029 318.5,221C 318.167,220.5 317.833,220 317.5,219.5C 281.118,229.012 244.784,238.679 208.5,248.5C 207.584,248.457 206.917,248.124 206.5,247.5C 207.247,239.756 205.913,232.422 202.5,225.5C 265.379,209.072 328.213,192.405 391,175.5C 405.043,181.439 418.876,187.773 432.5,194.5C 437.407,210.386 442.407,226.219 447.5,242C 444.433,244.188 441.433,246.355 438.5,248.5 Z"/></g>
<g><path style="opacity:1" fill="#151d1f" d="M 435.5,242.5 C 429.413,231.66 423.58,219.994 418,207.5C 408.152,202.327 398.319,197.327 388.5,192.5C 389.937,191.275 391.604,190.275 393.5,189.5C 404.074,194.038 414.574,198.705 425,203.5C 428.969,216.377 432.469,229.377 435.5,242.5 Z"/></g>
<g><path style="opacity:0.971" fill="#38434b" d="M 740.5,190.5 C 740.149,207.567 732.149,219.234 716.5,225.5C 703.568,229.349 691.901,227.016 681.5,218.5C 675.386,214.041 671.72,208.041 670.5,200.5C 685.333,199.517 700.333,198.683 715.5,198C 723.543,194.597 731.876,192.097 740.5,190.5 Z"/></g>
<g><path style="opacity:1" fill="#11181a" d="M 1262.5,191.5 C 1264.83,192.833 1267.17,194.167 1269.5,195.5C 1342.41,216.181 1415.74,236.014 1489.5,255C 1491.91,255.057 1493.24,256.224 1493.5,258.5C 1488.57,271.037 1483.07,283.37 1477,295.5C 1466.05,300.982 1454.89,305.982 1443.5,310.5C 1400.45,298.988 1357.45,287.321 1314.5,275.5C 1312.28,279.273 1310.61,283.273 1309.5,287.5C 1298.78,285.039 1288.12,282.373 1277.5,279.5C 1263.31,275.199 1248.98,271.033 1234.5,267C 1226.81,262.125 1218.81,257.958 1210.5,254.5C 1201.39,248.774 1192.06,243.274 1182.5,238C 1183.58,236.67 1184.25,235.17 1184.5,233.5C 1193.39,237.613 1202.06,242.28 1210.5,247.5C 1220.46,242.903 1230.46,238.403 1240.5,234C 1247.45,220.348 1254.11,206.515 1260.5,192.5C 1260.96,191.702 1261.62,191.369 1262.5,191.5 Z"/></g>
<g><path style="opacity:1" fill="#7d96a9" d="M 388.5,192.5 C 398.319,197.327 408.152,202.327 418,207.5C 423.58,219.994 429.413,231.66 435.5,242.5C 436.203,244.629 437.203,246.629 438.5,248.5C 444.734,263.031 451.067,277.531 457.5,292C 454.579,303.519 451.579,315.019 448.5,326.5C 447.99,328.088 446.99,329.255 445.5,330C 432.605,337.274 419.938,344.774 407.5,352.5C 398.612,356.613 389.945,361.28 381.5,366.5C 371.167,361.833 360.833,357.167 350.5,352.5C 344.362,338.758 338.029,325.092 331.5,311.5C 331.043,310.702 330.376,310.369 329.5,310.5C 329.982,309.584 330.315,308.584 330.5,307.5C 326.517,292.902 322.851,278.236 319.5,263.5C 321.999,251.843 324.499,240.176 327,228.5C 347.473,216.351 367.973,204.351 388.5,192.5 Z"/></g>
<g><path style="opacity:0.994" fill="#030205" d="M 202.5,225.5 C 205.913,232.422 207.247,239.756 206.5,247.5C 203.365,258.15 196.698,265.984 186.5,271C 176.901,280.031 170.235,290.865 166.5,303.5C 164.306,309.629 162.806,315.962 162,322.5C 161.5,334.495 161.333,346.495 161.5,358.5C 161.802,361.059 161.468,363.393 160.5,365.5C 142.492,355.826 123.825,347.826 104.5,341.5C 104.236,334.11 104.57,326.777 105.5,319.5C 107.033,303.618 110.7,288.285 116.5,273.5C 121.41,263.34 127.077,253.674 133.5,244.5C 142.977,230.855 155.31,220.688 170.5,214C 183.662,210.998 194.328,214.831 202.5,225.5 Z"/></g>
<g><path style="opacity:1" fill="#7c95a8" d="M 308.5,266.5 C 261.088,278.52 213.754,290.853 166.5,303.5C 170.235,290.865 176.901,280.031 186.5,271C 196.698,265.984 203.365,258.15 206.5,247.5C 206.917,248.124 207.584,248.457 208.5,248.5C 244.784,238.679 281.118,229.012 317.5,219.5C 317.833,220 318.167,220.5 318.5,221C 314.45,236.029 311.117,251.196 308.5,266.5 Z"/></g>
<g><path style="opacity:0.98" fill="#7c95a7" d="M 681.5,218.5 C 691.901,227.016 703.568,229.349 716.5,225.5C 714.54,232.013 713.207,238.679 712.5,245.5C 711.184,249.042 709.517,252.542 707.5,256C 696.557,261.673 686.724,260.173 678,251.5C 676.228,246.916 676.061,242.249 677.5,237.5C 678.579,231.107 679.912,224.774 681.5,218.5 Z"/></g>
<g><path style="opacity:0.971" fill="#38434b" d="M 677.5,237.5 C 676.061,242.249 676.228,246.916 678,251.5C 686.724,260.173 696.557,261.673 707.5,256C 709.517,252.542 711.184,249.042 712.5,245.5C 721.292,255.676 724.625,267.343 722.5,280.5C 720.456,279.969 718.789,278.802 717.5,277C 709.205,275.561 702.705,278.394 698,285.5C 692.253,292.435 692.086,299.435 697.5,306.5C 675.131,310.57 660.297,301.903 653,280.5C 649.836,259.474 658.003,245.141 677.5,237.5 Z"/></g>
<g><path style="opacity:0.969" fill="#aed0ec" d="M 133.5,244.5 C 127.077,253.674 121.41,263.34 116.5,273.5C 111.507,274.29 106.674,275.623 102,277.5C 101.601,277.272 101.435,276.938 101.5,276.5C 103.27,266.851 106.603,257.851 111.5,249.5C 118.827,247.836 126.161,246.169 133.5,244.5 Z"/></g>
<g><path style="opacity:0.974" fill="#37424a" d="M 1210.5,254.5 C 1218.81,257.958 1226.81,262.125 1234.5,267C 1248.98,271.033 1263.31,275.199 1277.5,279.5C 1274.19,286.139 1269.19,291.139 1262.5,294.5C 1250.76,300.098 1239.26,299.765 1228,293.5C 1227.6,293.728 1227.43,294.062 1227.5,294.5C 1213.27,284.815 1207.6,271.482 1210.5,254.5 Z"/></g>
<g><path style="opacity:1" fill="#38434b" d="M 308.5,266.5 C 312.102,280.141 315.602,293.807 319,307.5C 319.728,310.187 320.895,312.52 322.5,314.5C 322.389,315.117 322.056,315.617 321.5,316C 309.19,319.327 296.857,322.494 284.5,325.5C 276.894,312.535 265.56,307.368 250.5,310C 236.403,315.269 229.736,325.435 230.5,340.5C 207.458,346.344 184.458,352.344 161.5,358.5C 161.333,346.495 161.5,334.495 162,322.5C 162.806,315.962 164.306,309.629 166.5,303.5C 213.754,290.853 261.088,278.52 308.5,266.5 Z"/></g>
<g><path style="opacity:1" fill="#7890a3" d="M 116.5,273.5 C 110.7,288.285 107.033,303.618 105.5,319.5C 102.183,320.497 98.8497,321.497 95.5,322.5C 95.2488,306.738 97.2488,291.404 101.5,276.5C 101.435,276.938 101.601,277.272 102,277.5C 106.674,275.623 111.507,274.29 116.5,273.5 Z"/></g>
<g><path style="opacity:0.968" fill="#7c95a8" d="M 722.5,280.5 C 745.141,300.805 767.808,321.138 790.5,341.5C 772.674,342.497 754.674,342.83 736.5,342.5C 724.111,329.811 711.111,317.811 697.5,306.5C 692.086,299.435 692.253,292.435 698,285.5C 702.705,278.394 709.205,275.561 717.5,277C 718.789,278.802 720.456,279.969 722.5,280.5 Z"/></g>
<g><path style="opacity:0.99" fill="#7c94a7" d="M 1262.5,294.5 C 1262.5,300.833 1262.5,307.167 1262.5,313.5C 1263.64,326.36 1257.64,332.36 1244.5,331.5C 1232.67,331.787 1227.01,326.12 1227.5,314.5C 1227.5,307.833 1227.5,301.167 1227.5,294.5C 1227.43,294.062 1227.6,293.728 1228,293.5C 1239.26,299.765 1250.76,300.098 1262.5,294.5 Z"/></g>
<g><path style="opacity:0.995" fill="#030205" d="M 284.5,325.5 C 285.894,327.951 286.728,330.618 287,333.5C 287.667,345.167 287.667,356.833 287,368.5C 284.998,378.665 282.498,388.665 279.5,398.5C 271.994,412.505 262.327,424.838 250.5,435.5C 237.135,421.471 222.802,408.471 207.5,396.5C 211.355,392.965 215.188,389.298 219,385.5C 229.05,372.236 232.883,357.236 230.5,340.5C 229.736,325.435 236.403,315.269 250.5,310C 265.56,307.368 276.894,312.535 284.5,325.5 Z"/></g>
<g><path style="opacity:1" fill="#11181a" d="M 329.5,310.5 C 330.376,310.369 331.043,310.702 331.5,311.5C 338.029,325.092 344.362,338.758 350.5,352.5C 360.833,357.167 371.167,361.833 381.5,366.5C 389.945,361.28 398.612,356.613 407.5,352.5C 407.751,354.17 408.418,355.67 409.5,357C 399.939,362.274 390.606,367.774 381.5,373.5C 373.187,376.958 365.187,381.125 357.5,386C 342.828,389.414 328.494,393.58 314.5,398.5C 303.882,401.373 293.216,404.039 282.5,406.5C 282.06,403.62 281.06,400.954 279.5,398.5C 282.498,388.665 284.998,378.665 287,368.5C 287.667,356.833 287.667,345.167 287,333.5C 286.728,330.618 285.894,327.951 284.5,325.5C 296.857,322.494 309.19,319.327 321.5,316C 322.056,315.617 322.389,315.117 322.5,314.5C 324.833,313.167 327.167,311.833 329.5,310.5 Z"/></g>
<g><path style="opacity:1" fill="#556674" d="M 39.5,292.5 C 40.0431,292.56 40.3764,292.893 40.5,293.5C 39.863,301.296 39.1963,308.963 38.5,316.5C 38.1743,308.316 38.5076,300.316 39.5,292.5 Z"/></g>
<g><path style="opacity:0.971" fill="#38434b" d="M 1262.5,313.5 C 1281.7,327.05 1285.87,344.383 1275,365.5C 1262.36,380.988 1246.86,384.654 1228.5,376.5C 1232.84,374.018 1234.84,370.185 1234.5,365C 1233.41,355.587 1228.75,348.587 1220.5,344C 1216.82,342.973 1213.65,343.806 1211,346.5C 1210.62,345.944 1210.12,345.611 1209.5,345.5C 1210.1,331.97 1216.1,321.637 1227.5,314.5C 1227.01,326.12 1232.67,331.787 1244.5,331.5C 1257.64,332.36 1263.64,326.36 1262.5,313.5 Z"/></g>
<g><path style="opacity:1" fill="#364048" d="M 105.5,319.5 C 104.57,326.777 104.236,334.11 104.5,341.5C 101.426,341.127 98.4261,340.461 95.5,339.5C 95.5,333.833 95.5,328.167 95.5,322.5C 98.8497,321.497 102.183,320.497 105.5,319.5 Z"/></g>
<g><path style="opacity:1" fill="#a8c8e4" d="M 870.5,341.5 C 853.5,342.833 836.5,342.833 819.5,341.5C 832.101,337.8 844.601,333.8 857,329.5C 861.438,333.625 865.938,337.625 870.5,341.5 Z"/></g>
<g><path style="opacity:0.994" fill="#9da5b0" d="M 95.5,339.5 C 98.4261,340.461 101.426,341.127 104.5,341.5C 123.825,347.826 142.492,355.826 160.5,365.5C 176.957,374.621 192.623,384.955 207.5,396.5C 222.802,408.471 237.135,421.471 250.5,435.5C 255.969,442.499 260.469,450.166 264,458.5C 265.991,468.431 267.491,478.431 268.5,488.5C 254.914,475.746 240.581,463.913 225.5,453C 190.838,429.998 155.505,407.998 119.5,387C 94.1559,374.441 67.4892,366.108 39.5,362C 32.1742,361.5 24.8409,361.334 17.5,361.5C 22.1667,352.167 29.1667,345.167 38.5,340.5C 57.3494,334.19 76.3494,333.856 95.5,339.5 Z"/></g>
<g><path style="opacity:1" fill="#101719" d="M 230.5,340.5 C 232.883,357.236 229.05,372.236 219,385.5C 215.188,389.298 211.355,392.965 207.5,396.5C 192.623,384.955 176.957,374.621 160.5,365.5C 161.468,363.393 161.802,361.059 161.5,358.5C 184.458,352.344 207.458,346.344 230.5,340.5 Z"/></g>
<g><path style="opacity:0.994" fill="#000000" d="M 790.5,341.5 C 800.167,341.5 809.833,341.5 819.5,341.5C 836.5,342.833 853.5,342.833 870.5,341.5C 907.168,341.333 943.835,341.5 980.5,342C 1039.09,343.064 1094.75,356.23 1147.5,381.5C 1147.41,382.496 1147.75,383.329 1148.5,384C 1159.49,389.493 1170.16,395.493 1180.5,402C 1181.79,402.49 1183.13,402.657 1184.5,402.5C 1256.28,451.304 1305.28,517.304 1331.5,600.5C 1334.45,614.314 1337.78,628.314 1341.5,642.5C 1342.1,651.079 1343.44,659.413 1345.5,667.5C 1346.71,675.781 1347.55,684.114 1348,692.5C 1348.33,746.5 1348.67,800.5 1349,854.5C 1409.03,886.026 1457.36,930.359 1494,987.5C 1498.66,995.649 1503.5,1003.65 1508.5,1011.5C 1486.29,1006.98 1465.62,1010.65 1446.5,1022.5C 1439.92,1025.62 1434.26,1029.96 1429.5,1035.5C 1419.69,1044.46 1412.35,1055.13 1407.5,1067.5C 1391.75,1041.56 1373.08,1017.73 1351.5,996C 1347.67,992.833 1343.83,989.667 1340,986.5C 1309.99,1112.82 1235.16,1200.66 1115.5,1250C 1096.59,1257.08 1077.25,1262.75 1057.5,1267C 1054.93,1272.64 1052.26,1278.14 1049.5,1283.5C 1047.19,1280.36 1044.36,1277.7 1041,1275.5C 1040.5,1273.53 1040.34,1271.53 1040.5,1269.5C 1038.26,1269.21 1036.26,1269.54 1034.5,1270.5C 1023.4,1271.38 1012.4,1272.71 1001.5,1274.5C 906.833,1274.5 812.167,1274.5 717.5,1274.5C 705.44,1273.07 693.274,1271.41 681,1269.5C 680.235,1269.57 679.735,1269.9 679.5,1270.5C 678.698,1271.95 678.198,1273.62 678,1275.5C 674.601,1278.73 671.435,1282.06 668.5,1285.5C 665.845,1279.52 663.179,1273.52 660.5,1267.5C 513.973,1232.47 420.139,1142.47 379,997.5C 373.494,974.797 369.827,951.797 368,928.5C 301.05,900.383 247.55,856.049 207.5,795.5C 200.511,784.195 193.511,772.861 186.5,761.5C 186.833,761.5 187.167,761.5 187.5,761.5C 208.922,765.375 228.922,761.708 247.5,750.5C 254.075,747.376 259.742,743.043 264.5,737.5C 274.492,728.862 281.492,718.195 285.5,705.5C 286.974,706.436 287.974,707.77 288.5,709.5C 294.408,718.976 300.575,728.31 307,737.5C 308.426,739.766 310.26,741.432 312.5,742.5C 318.842,750.53 325.175,758.53 331.5,766.5C 342.155,777.991 353.821,788.324 366.5,797.5C 367.499,780.847 367.833,764.18 367.5,747.5C 367.5,736.833 367.5,726.167 367.5,715.5C 367.658,700.311 368.658,684.978 370.5,669.5C 373.379,653.56 376.046,637.56 378.5,621.5C 387.252,588.239 399.919,556.573 416.5,526.5C 423.02,516.646 429.687,506.813 436.5,497C 435.944,496.617 435.611,496.117 435.5,495.5C 500.348,409.376 586.681,359.21 694.5,345C 708.442,343.171 722.442,342.338 736.5,342.5C 754.674,342.83 772.674,342.497 790.5,341.5 Z M 729.5,507.5 C 815.501,507.333 901.501,507.5 987.5,508C 1045.16,511.251 1093.66,533.751 1133,575.5C 1161.4,610.01 1177.74,649.677 1182,694.5C 1183.12,732.65 1183.62,770.816 1183.5,809C 1183.62,847.184 1183.12,885.35 1182,923.5C 1170.38,1018.96 1118.21,1079.13 1025.5,1104C 1014.93,1106.32 1004.27,1107.98 993.5,1109C 948.347,1110.12 903.18,1110.62 858,1110.5C 812.82,1110.62 767.653,1110.12 722.5,1109C 656.872,1103.12 605.039,1073.62 567,1020.5C 545.806,986.58 534.472,949.58 533,909.5C 532.333,842.167 532.333,774.833 533,707.5C 535.469,643.733 560.969,591.566 609.5,551C 645.342,525.107 685.342,510.607 729.5,507.5 Z M 367.5,715.5 C 367.5,726.167 367.5,736.833 367.5,747.5C 365.313,751.895 363.646,756.562 362.5,761.5C 352.148,763.059 341.815,764.725 331.5,766.5C 325.175,758.53 318.842,750.53 312.5,742.5C 330.706,733.23 349.039,724.23 367.5,715.5 Z"/></g>
<g><path style="opacity:0.97" fill="#7c95a8" d="M 1228.5,376.5 C 1213.8,385.181 1199.13,393.848 1184.5,402.5C 1183.13,402.657 1181.79,402.49 1180.5,402C 1170.16,395.493 1159.49,389.493 1148.5,384C 1147.75,383.329 1147.41,382.496 1147.5,381.5C 1168.5,370.002 1189.17,358.002 1209.5,345.5C 1210.12,345.611 1210.62,345.944 1211,346.5C 1213.65,343.806 1216.82,342.973 1220.5,344C 1228.75,348.587 1233.41,355.587 1234.5,365C 1234.84,370.185 1232.84,374.018 1228.5,376.5 Z"/></g>
<g><path style="opacity:1" fill="#5f656c" d="M 17.5,361.5 C 24.8409,361.334 32.1742,361.5 39.5,362C 67.4892,366.108 94.1559,374.441 119.5,387C 155.505,407.998 190.838,429.998 225.5,453C 240.581,463.913 254.914,475.746 268.5,488.5C 269.941,496.814 271.274,505.147 272.5,513.5C 256.314,492.145 236.814,474.479 214,460.5C 225.646,503.742 237.312,547.076 249,590.5C 254.633,611.698 259.633,633.032 264,654.5C 269.64,682.162 269.806,709.828 264.5,737.5C 259.742,743.043 254.075,747.376 247.5,750.5C 251.318,740.87 253.818,730.87 255,720.5C 256.306,699.372 255.306,678.372 252,657.5C 235.911,587.567 217.577,518.234 197,449.5C 167.08,428.782 135.913,409.948 103.5,393C 89.4564,387.208 75.1231,382.208 60.5,378C 44.9636,375.146 29.6303,372.979 14.5,371.5C 15.0991,368.037 16.0991,364.704 17.5,361.5 Z"/></g>
<g><path style="opacity:0.998" fill="#b2d4f1" d="M 1357.5,364.5 C 1437.5,446.833 1517.5,529.167 1597.5,611.5C 1573.39,630.398 1549.05,649.064 1524.5,667.5C 1444.2,585.195 1363.53,503.195 1282.5,421.5C 1307.19,402.147 1332.19,383.147 1357.5,364.5 Z"/></g>
<g><path style="opacity:1" fill="#7d97aa" d="M 1625.5,602.5 C 1616.17,605.5 1606.83,608.5 1597.5,611.5C 1517.5,529.167 1437.5,446.833 1357.5,364.5C 1369.83,363.695 1382.16,363.528 1394.5,364C 1472.07,443.065 1549.07,522.565 1625.5,602.5 Z"/></g>
<g><path style="opacity:0.997" fill="#9ea6b1" d="M 14.5,371.5 C 29.6303,372.979 44.9636,375.146 60.5,378C 75.1231,382.208 89.4564,387.208 103.5,393C 135.913,409.948 167.08,428.782 197,449.5C 217.577,518.234 235.911,587.567 252,657.5C 255.306,678.372 256.306,699.372 255,720.5C 253.818,730.87 251.318,740.87 247.5,750.5C 228.922,761.708 208.922,765.375 187.5,761.5C 171.612,756.056 156.612,748.723 142.5,739.5C 125.427,725.095 110.094,709.095 96.5,691.5C 95.9305,688.665 94.2639,686.999 91.5,686.5C 62.4933,637.01 41.9933,584.01 30,527.5C 20.3295,484.473 13.8295,440.973 10.5,397C 10.8511,388.203 12.1845,379.703 14.5,371.5 Z"/></g>
<g><path style="opacity:0.974" fill="#37424a" d="M 381.5,373.5 C 384.396,390.482 378.729,403.815 364.5,413.5C 364.565,413.062 364.399,412.728 364,412.5C 352.64,418.61 341.14,418.943 329.5,413.5C 322.806,410.139 317.806,405.139 314.5,398.5C 328.494,393.58 342.828,389.414 357.5,386C 365.187,381.125 373.187,376.958 381.5,373.5 Z"/></g>
<g><path style="opacity:0.99" fill="#7c94a7" d="M 364.5,413.5 C 364.5,420.167 364.5,426.833 364.5,433.5C 365.705,441.271 362.705,446.438 355.5,449C 346.361,452.179 338.194,450.679 331,444.5C 329.646,440.637 329.146,436.637 329.5,432.5C 329.5,426.167 329.5,419.833 329.5,413.5C 341.14,418.943 352.64,418.61 364,412.5C 364.399,412.728 364.565,413.062 364.5,413.5 Z"/></g>
<g><path style="opacity:1" fill="#7c95a8" d="M 1282.5,421.5 C 1363.53,503.195 1444.2,585.195 1524.5,667.5C 1516.83,676.67 1509.33,686.003 1502,695.5C 1501.16,697.007 1500,697.507 1498.5,697C 1421.99,617.995 1344.99,539.495 1267.5,461.5C 1266.43,460.749 1266.26,459.749 1267,458.5C 1272.18,446.141 1277.35,433.808 1282.5,421.5 Z"/></g>
<g><path style="opacity:0.971" fill="#38434b" d="M 329.5,432.5 C 329.146,436.637 329.646,440.637 331,444.5C 338.194,450.679 346.361,452.179 355.5,449C 362.705,446.438 365.705,441.271 364.5,433.5C 375.905,440.637 381.905,450.97 382.5,464.5C 381.883,464.611 381.383,464.944 381,465.5C 376.669,461.772 372.169,461.605 367.5,465C 358.826,472.02 355.993,480.854 359,491.5C 360.397,493.07 361.897,494.404 363.5,495.5C 345.143,503.654 329.643,499.988 317,484.5C 306.133,463.383 310.299,446.05 329.5,432.5 Z"/></g>
<g><path style="opacity:0.995" fill="#9ea6b1" d="M 272.5,513.5 C 277.424,538.452 282.09,563.452 286.5,588.5C 286.198,591.059 286.532,593.393 287.5,595.5C 288.337,607.526 289.504,619.526 291,631.5C 291.5,642.495 291.667,653.495 291.5,664.5C 292.104,678.608 290.104,692.275 285.5,705.5C 281.492,718.195 274.492,728.862 264.5,737.5C 269.806,709.828 269.64,682.162 264,654.5C 259.633,633.032 254.633,611.698 249,590.5C 237.312,547.076 225.646,503.742 214,460.5C 236.814,474.479 256.314,492.145 272.5,513.5 Z"/></g>
<g><path style="opacity:0.97" fill="#7c95a8" d="M 382.5,464.5 C 399.885,475.197 417.552,485.53 435.5,495.5C 435.611,496.117 435.944,496.617 436.5,497C 429.687,506.813 423.02,516.646 416.5,526.5C 399.033,515.929 381.366,505.596 363.5,495.5C 361.897,494.404 360.397,493.07 359,491.5C 355.993,480.854 358.826,472.02 367.5,465C 372.169,461.605 376.669,461.772 381,465.5C 381.383,464.944 381.883,464.611 382.5,464.5 Z"/></g>
<g><path style="opacity:1" fill="#5f656c" d="M 165.5,464.5 C 175.158,462.993 179.325,466.993 178,476.5C 175.647,481.426 171.814,483.26 166.5,482C 161.268,479.367 159.435,475.201 161,469.5C 162.059,467.341 163.559,465.674 165.5,464.5 Z"/></g>
<g><path style="opacity:1" fill="#141b1e" d="M 1267.5,461.5 C 1344.99,539.495 1421.99,617.995 1498.5,697C 1500,697.507 1501.16,697.007 1502,695.5C 1509.33,686.003 1516.83,676.67 1524.5,667.5C 1549.05,649.064 1573.39,630.398 1597.5,611.5C 1606.83,608.5 1616.17,605.5 1625.5,602.5C 1626.34,606.519 1626.84,610.519 1627,614.5C 1623.71,616.896 1620.21,618.896 1616.5,620.5C 1614.58,619.908 1612.91,618.908 1611.5,617.5C 1611.5,616.833 1611.17,616.5 1610.5,616.5C 1609.87,615.053 1608.7,614.387 1607,614.5C 1603.68,614.756 1600.68,615.756 1598,617.5C 1600.86,633.737 1597.53,648.737 1588,662.5C 1576.34,679.841 1560.5,691.341 1540.5,697C 1529.73,699.312 1520.06,697.146 1511.5,690.5C 1509.95,691.212 1508.95,692.378 1508.5,694C 1509.54,697.121 1509.7,700.287 1509,703.5C 1507.01,704.328 1505.51,705.661 1504.5,707.5C 1502.79,709.195 1500.79,710.028 1498.5,710C 1488.3,699.965 1478.3,689.798 1468.5,679.5C 1462.89,672.222 1456.56,665.556 1449.5,659.5C 1443.5,654.167 1437.83,648.5 1432.5,642.5C 1421.5,630.833 1410.17,619.5 1398.5,608.5C 1396.5,607.167 1394.83,605.5 1393.5,603.5C 1387.56,595.889 1380.89,588.889 1373.5,582.5C 1356.17,565.833 1339.17,548.833 1322.5,531.5C 1315.22,522.554 1307.22,514.221 1298.5,506.5C 1293.87,502.37 1289.37,498.037 1285,493.5C 1278.89,482.939 1273.05,472.273 1267.5,461.5 Z"/></g>
<g><path style="opacity:0.008" fill="#4e5f6b" d="M 1298.5,506.5 C 1307.22,514.221 1315.22,522.554 1322.5,531.5C 1313.78,523.779 1305.78,515.446 1298.5,506.5 Z"/></g>
<g><path style="opacity:0.969" fill="#f8f9ff" d="M 862.5,518.5 C 862.5,527.833 862.5,537.167 862.5,546.5C 856.137,546.407 849.804,546.74 843.5,547.5C 843.655,537.959 842.988,528.626 841.5,519.5C 845.574,518.046 849.907,517.379 854.5,517.5C 857.355,517.503 860.022,517.836 862.5,518.5 Z"/></g>
<g><path style="opacity:0.976" fill="#fdfdff" d="M 893.5,520.5 C 891.785,529.299 890.452,538.299 889.5,547.5C 886.5,547.5 883.5,547.5 880.5,547.5C 878.052,546.527 875.385,546.194 872.5,546.5C 872.5,540.5 872.5,534.5 872.5,528.5C 872.5,525.167 872.5,521.833 872.5,518.5C 873.097,517.861 873.93,517.528 875,517.5C 880.476,518.213 885.976,518.713 891.5,519C 892.416,519.278 893.082,519.778 893.5,520.5 Z"/></g>
<g><path style="opacity:0.986" fill="#0543ff" d="M 862.5,518.5 C 865.833,518.5 869.167,518.5 872.5,518.5C 872.5,521.833 872.5,525.167 872.5,528.5C 871.51,534.645 871.177,540.978 871.5,547.5C 874.5,547.5 877.5,547.5 880.5,547.5C 883.5,547.5 886.5,547.5 889.5,547.5C 890.452,538.299 891.785,529.299 893.5,520.5C 899.489,521.26 905.489,521.927 911.5,522.5C 910.277,532.172 908.944,541.838 907.5,551.5C 913.608,551.86 919.608,552.86 925.5,554.5C 927.076,545.194 929.409,536.194 932.5,527.5C 938.604,528.859 944.604,530.526 950.5,532.5C 948.146,541.246 945.479,549.913 942.5,558.5C 948.116,561.598 954.116,563.932 960.5,565.5C 962.855,556.432 966.188,547.766 970.5,539.5C 976.048,542.107 981.715,544.44 987.5,546.5C 984.843,554.819 981.343,562.819 977,570.5C 976.251,571.635 976.417,572.635 977.5,573.5C 982.409,576.298 987.409,578.465 992.5,580C 997.066,572.352 1001.73,564.852 1006.5,557.5C 1011.82,560.472 1017.15,563.472 1022.5,566.5C 1018.02,574.78 1013.02,582.78 1007.5,590.5C 1012.26,593.963 1017.1,597.296 1022,600.5C 1027.71,594.743 1032.71,588.41 1037,581.5C 1037.82,580.177 1038.98,579.511 1040.5,579.5C 1045.16,583.164 1049.82,586.831 1054.5,590.5C 1049.28,597.9 1043.44,604.9 1037,611.5C 1036.33,612.167 1036.33,612.833 1037,613.5C 1040.89,617.52 1045.05,621.186 1049.5,624.5C 1056.19,618.145 1062.85,611.812 1069.5,605.5C 1073.86,610.193 1078.19,614.859 1082.5,619.5C 1076.32,625.841 1069.66,631.674 1062.5,637C 1061.55,637.718 1061.38,638.551 1062,639.5C 1065.67,643.833 1069.33,648.167 1073,652.5C 1080.29,646.779 1087.79,641.446 1095.5,636.5C 1099.52,641.196 1103.19,646.196 1106.5,651.5C 1099.18,656.637 1091.68,661.637 1084,666.5C 1085.9,671.633 1088.4,676.633 1091.5,681.5C 1092.36,682.583 1093.36,682.749 1094.5,682C 1101.9,677.3 1109.57,673.134 1117.5,669.5C 1120.44,675.041 1123.1,680.708 1125.5,686.5C 1117.8,690.58 1109.96,694.58 1102,698.5C 1103.01,704.528 1105.17,710.195 1108.5,715.5C 1116.97,711.598 1125.63,708.265 1134.5,705.5C 1136.3,711.567 1138.3,717.567 1140.5,723.5C 1132.05,726.621 1123.38,729.455 1114.5,732C 1114.04,732.414 1113.71,732.914 1113.5,733.5C 1115.06,738.139 1116.56,742.805 1118,747.5C 1118.52,748.516 1119.35,749.182 1120.5,749.5C 1129.13,747.507 1137.8,745.84 1146.5,744.5C 1147.24,750.545 1148.24,756.545 1149.5,762.5C 1140.96,764.149 1132.29,765.816 1123.5,767.5C 1123.07,773.444 1123.07,779.444 1123.5,785.5C 1133.15,784.629 1142.82,783.963 1152.5,783.5C 1152.35,789.869 1152.68,796.203 1153.5,802.5C 1144.25,803.472 1134.92,803.805 1125.5,803.5C 1125.5,809.833 1125.5,816.167 1125.5,822.5C 1134.68,822.173 1143.68,822.507 1152.5,823.5C 1152.59,829.863 1152.26,836.196 1151.5,842.5C 1142.18,841.614 1132.85,840.948 1123.5,840.5C 1122.19,846.417 1121.52,852.417 1121.5,858.5C 1130.72,859.646 1139.72,861.312 1148.5,863.5C 1147.29,869.529 1145.96,875.529 1144.5,881.5C 1135.2,879.509 1125.86,877.509 1116.5,875.5C 1114.96,881.462 1113.62,887.462 1112.5,893.5C 1121.53,895.731 1130.2,898.731 1138.5,902.5C 1136.22,908.055 1134.22,913.722 1132.5,919.5C 1123.51,916.668 1114.68,913.335 1106,909.5C 1103.6,914.876 1101.1,920.209 1098.5,925.5C 1107.06,929.941 1115.39,934.608 1123.5,939.5C 1120.52,944.798 1117.52,950.132 1114.5,955.5C 1106.53,951.224 1098.53,946.89 1090.5,942.5C 1086.81,946.865 1083.48,951.531 1080.5,956.5C 1087.86,962.175 1095.2,967.842 1102.5,973.5C 1099.42,978.643 1096.09,983.643 1092.5,988.5C 1084.89,983.396 1077.39,978.063 1070,972.5C 1065.11,976.373 1061.44,981.039 1059,986.5C 1066.08,992.414 1072.58,998.747 1078.5,1005.5C 1073.83,1009.5 1069.5,1013.83 1065.5,1018.5C 1059.04,1012.54 1052.7,1006.37 1046.5,1000C 1045.09,999.685 1043.76,1000.02 1042.5,1001C 1038.98,1004.35 1035.65,1007.85 1032.5,1011.5C 1037.81,1017.98 1043.31,1024.31 1049,1030.5C 1049.48,1031.45 1049.65,1032.45 1049.5,1033.5C 1044.79,1037.18 1040.13,1040.84 1035.5,1044.5C 1029.81,1038.3 1024.65,1031.64 1020,1024.5C 1019.16,1022.99 1018,1022.49 1016.5,1023C 1011.82,1026.03 1007.49,1029.36 1003.5,1033C 1008.31,1040.79 1012.98,1048.62 1017.5,1056.5C 1012.17,1059.5 1006.83,1062.5 1001.5,1065.5C 996.441,1057.73 991.608,1049.73 987,1041.5C 981.552,1044.14 976.386,1047.14 971.5,1050.5C 975.454,1058.74 979.12,1067.07 982.5,1075.5C 976.748,1077.64 971.081,1079.97 965.5,1082.5C 961.684,1075.25 958.518,1067.58 956,1059.5C 955.632,1058.09 954.799,1057.09 953.5,1056.5C 948.224,1058.7 942.89,1060.7 937.5,1062.5C 940.622,1071.32 942.956,1080.32 944.5,1089.5C 938.484,1091.17 932.484,1092.84 926.5,1094.5C 924.35,1085.56 922.35,1076.56 920.5,1067.5C 914.474,1067.95 908.474,1068.62 902.5,1069.5C 903.505,1078.21 904.839,1086.88 906.5,1095.5C 906.315,1096.58 905.982,1097.58 905.5,1098.5C 899.442,1098.8 893.442,1099.47 887.5,1100.5C 886.27,1091.33 885.27,1082 884.5,1072.5C 878.509,1072.97 872.509,1073.3 866.5,1073.5C 866.5,1082.83 866.5,1092.17 866.5,1101.5C 860.122,1101.71 853.789,1101.37 847.5,1100.5C 847.5,1094.83 847.5,1089.17 847.5,1083.5C 848.482,1080.04 848.815,1076.37 848.5,1072.5C 847.167,1072.5 845.833,1072.5 844.5,1072.5C 839.493,1072.25 834.493,1071.92 829.5,1071.5C 829.157,1080.91 828.157,1090.24 826.5,1099.5C 820.247,1098.23 813.914,1097.23 807.5,1096.5C 808.267,1087.33 809.934,1078.33 812.5,1069.5C 806.806,1067.96 801.14,1066.29 795.5,1064.5C 792.329,1073.55 789.329,1082.55 786.5,1091.5C 780.604,1089.53 774.604,1087.86 768.5,1086.5C 771.07,1077.53 774.07,1068.69 777.5,1060C 771.689,1057.34 765.689,1055.17 759.5,1053.5C 756.782,1062.35 753.115,1070.68 748.5,1078.5C 742.713,1076.11 737.046,1073.44 731.5,1070.5C 735.32,1062.86 739.153,1055.19 743,1047.5C 743.749,1046.36 743.583,1045.36 742.5,1044.5C 738.34,1042.59 734.34,1040.42 730.5,1038C 729.5,1037.33 728.5,1037.33 727.5,1038C 722.934,1045.65 718.267,1053.15 713.5,1060.5C 707.901,1057.56 702.567,1054.23 697.5,1050.5C 702.241,1042.69 707.241,1035.02 712.5,1027.5C 708.235,1023.36 703.569,1019.7 698.5,1016.5C 692.719,1023.76 686.719,1030.76 680.5,1037.5C 675.833,1033.83 671.167,1030.17 666.5,1026.5C 667.072,1024.74 667.906,1023.08 669,1021.5C 675.285,1016.25 680.285,1010.25 684,1003.5C 679.685,1000.02 675.518,996.353 671.5,992.5C 666.681,996.818 662.015,1001.32 657.5,1006C 655.266,1007.75 652.932,1009.25 650.5,1010.5C 646.472,1006.14 642.472,1001.81 638.5,997.5C 644.798,991.044 651.632,985.044 659,979.5C 658.956,977.721 658.289,976.055 657,974.5C 654.325,970.995 651.491,967.661 648.5,964.5C 640.815,969.859 633.149,975.192 625.5,980.5C 621.744,975.415 618.411,970.082 615.5,964.5C 622.989,959.196 630.656,954.03 638.5,949C 635.459,943.75 632.292,938.583 629,933.5C 621.044,938.228 612.877,942.561 604.5,946.5C 601.563,940.959 598.896,935.292 596.5,929.5C 604.253,924.875 612.419,920.875 621,917.5C 619.22,911.911 617.387,906.244 615.5,900.5C 606.295,903.902 596.962,906.902 587.5,909.5C 585.834,903.501 584.167,897.501 582.5,891.5C 591.334,888.534 600.334,885.701 609.5,883C 607.621,877.649 606.287,872.149 605.5,866.5C 596.021,867.396 586.687,869.063 577.5,871.5C 576.059,865.188 574.726,858.855 573.5,852.5C 582.676,850.332 592.009,848.999 601.5,848.5C 600.702,842.521 600.035,836.521 599.5,830.5C 590.156,830.599 580.823,830.932 571.5,831.5C 571.233,825.162 570.9,818.829 570.5,812.5C 579.833,812.5 589.167,812.5 598.5,812.5C 598.5,807.5 598.5,802.5 598.5,797.5C 599.434,796.432 599.768,795.099 599.5,793.5C 597.167,793.5 594.833,793.5 592.5,793.5C 585.323,793.158 578.323,792.491 571.5,791.5C 571.709,785.072 572.376,778.739 573.5,772.5C 582.723,774.097 592.057,775.097 601.5,775.5C 601.517,769.42 602.183,763.42 603.5,757.5C 594.399,756.213 585.399,754.546 576.5,752.5C 577.833,746.167 579.167,739.833 580.5,733.5C 589.756,736.147 599.089,738.481 608.5,740.5C 609.46,734.787 611.126,729.287 613.5,724C 604.647,720.776 595.981,717.276 587.5,713.5C 589.102,707.694 591.102,702.027 593.5,696.5C 602.341,699.249 611.008,702.582 619.5,706.5C 622.151,701.198 624.818,695.864 627.5,690.5C 618.943,686.059 610.609,681.392 602.5,676.5C 606.003,671.498 609.003,666.165 611.5,660.5C 619.856,664.764 628.023,669.43 636,674.5C 640.108,669.6 643.108,664.266 645,658.5C 637.498,653.511 630.331,648.178 623.5,642.5C 627.399,637.716 631.066,632.716 634.5,627.5C 641.815,633.143 649.148,638.809 656.5,644.5C 660.723,640.398 664.723,636.065 668.5,631.5C 661.8,624.827 655.133,618.16 648.5,611.5C 653.167,607.5 657.5,603.167 661.5,598.5C 667.891,604.388 674.224,610.554 680.5,617C 681.5,617.667 682.5,617.667 683.5,617C 687.233,613.267 690.9,609.6 694.5,606C 688.709,598.912 683.043,591.745 677.5,584.5C 682.219,580.447 687.219,576.78 692.5,573.5C 694.193,574.475 695.693,575.808 697,577.5C 700.972,583.638 705.138,589.638 709.5,595.5C 714.638,592.195 719.638,588.695 724.5,585C 719.411,576.979 714.745,568.813 710.5,560.5C 715.833,557.833 721.167,555.167 726.5,552.5C 727.458,552.953 728.292,553.619 729,554.5C 732.578,561.991 736.412,569.324 740.5,576.5C 745.632,573.598 750.965,571.265 756.5,569.5C 753.116,560.397 749.45,551.397 745.5,542.5C 751.662,540.557 757.662,538.224 763.5,535.5C 766.953,543.688 770.12,552.021 773,560.5C 773.561,561.022 774.228,561.355 775,561.5C 779.368,559.616 783.868,558.116 788.5,557C 789.428,556.612 790.095,555.945 790.5,555C 788.051,546.494 785.718,537.994 783.5,529.5C 789.351,527.537 795.351,526.204 801.5,525.5C 802.117,525.611 802.617,525.944 803,526.5C 804.284,534.585 805.95,542.585 808,550.5C 808.893,551.081 809.893,551.415 811,551.5C 815.759,550.248 820.593,549.581 825.5,549.5C 824.503,540.174 823.503,530.84 822.5,521.5C 828.805,520.636 835.138,519.969 841.5,519.5C 842.988,528.626 843.655,537.959 843.5,547.5C 849.804,546.74 856.137,546.407 862.5,546.5C 862.5,537.167 862.5,527.833 862.5,518.5 Z"/></g>
<g><path style="opacity:1" fill="#5f656c" d="M 181.5,519.5 C 191.376,518.541 195.543,522.874 194,532.5C 191.103,537.155 186.937,538.655 181.5,537C 174.874,531.139 174.874,525.305 181.5,519.5 Z"/></g>
<g><path style="opacity:0.978" fill="#fbfbff" d="M 822.5,521.5 C 823.503,530.84 824.503,540.174 825.5,549.5C 820.593,549.581 815.759,550.248 811,551.5C 809.893,551.415 808.893,551.081 808,550.5C 805.95,542.585 804.284,534.585 803,526.5C 802.617,525.944 802.117,525.611 801.5,525.5C 801.62,524.414 802.287,523.747 803.5,523.5C 809.926,521.669 816.26,521.002 822.5,521.5 Z"/></g>
<g><path style="opacity:0.974" fill="#f9faff" d="M 932.5,527.5 C 929.409,536.194 927.076,545.194 925.5,554.5C 919.608,552.86 913.608,551.86 907.5,551.5C 908.944,541.838 910.277,532.172 911.5,522.5C 911.56,521.957 911.893,521.624 912.5,521.5C 918.308,522.895 924.142,524.229 930,525.5C 931.376,525.684 932.209,526.351 932.5,527.5 Z"/></g>
<g><path style="opacity:0.973" fill="#fbfcff" d="M 783.5,529.5 C 785.718,537.994 788.051,546.494 790.5,555C 790.095,555.945 789.428,556.612 788.5,557C 783.868,558.116 779.368,559.616 775,561.5C 774.228,561.355 773.561,561.022 773,560.5C 770.12,552.021 766.953,543.688 763.5,535.5C 766.403,533.352 769.736,531.852 773.5,531C 776.393,530.369 779.226,529.536 782,528.5C 782.765,528.57 783.265,528.903 783.5,529.5 Z"/></g>
<g><path style="opacity:0.974" fill="#f9faff" d="M 970.5,539.5 C 966.188,547.766 962.855,556.432 960.5,565.5C 954.116,563.932 948.116,561.598 942.5,558.5C 945.479,549.913 948.146,541.246 950.5,532.5C 950.735,531.903 951.235,531.57 952,531.5C 957.091,533.53 962.258,535.364 967.5,537C 968.942,537.377 969.942,538.21 970.5,539.5 Z"/></g>
<g><path style="opacity:0.972" fill="#fafbff" d="M 745.5,542.5 C 749.45,551.397 753.116,560.397 756.5,569.5C 750.965,571.265 745.632,573.598 740.5,576.5C 736.412,569.324 732.578,561.991 729,554.5C 728.292,553.619 727.458,552.953 726.5,552.5C 726.414,551.504 726.748,550.671 727.5,550C 733.601,546.718 739.601,544.218 745.5,542.5 Z"/></g>
<g><path style="opacity:1" fill="#9ab9ff" d="M 872.5,528.5 C 872.5,534.5 872.5,540.5 872.5,546.5C 875.385,546.194 878.052,546.527 880.5,547.5C 877.5,547.5 874.5,547.5 871.5,547.5C 871.177,540.978 871.51,534.645 872.5,528.5 Z"/></g>
<g><path style="opacity:0.971" fill="#fafbff" d="M 987.5,546.5 C 993.861,548.513 999.861,551.346 1005.5,555C 1006.25,555.671 1006.59,556.504 1006.5,557.5C 1001.73,564.852 997.066,572.352 992.5,580C 987.409,578.465 982.409,576.298 977.5,573.5C 976.417,572.635 976.251,571.635 977,570.5C 981.343,562.819 984.843,554.819 987.5,546.5 Z"/></g>
<g><path style="opacity:1" fill="#0795ff" d="M 846.5,555.5 C 949.253,553.931 1027.75,596.265 1082,682.5C 1124.21,759.467 1127.54,838.134 1092,918.5C 1055.63,991.521 997.797,1038.02 918.5,1058C 823.554,1076.46 742.387,1051.29 675,982.5C 615.378,913.679 595.712,834.679 616,745.5C 642.133,656.7 698.966,597.2 786.5,567C 806.254,561.161 826.254,557.327 846.5,555.5 Z"/></g>
<g><path style="opacity:0.973" fill="#fafbff" d="M 710.5,560.5 C 714.745,568.813 719.411,576.979 724.5,585C 719.638,588.695 714.638,592.195 709.5,595.5C 705.138,589.638 700.972,583.638 697,577.5C 695.693,575.808 694.193,574.475 692.5,573.5C 692.511,571.983 693.177,570.816 694.5,570C 699.724,566.559 705.057,563.392 710.5,560.5 Z"/></g>
<g><path style="opacity:0.971" fill="#fafcff" d="M 1022.5,566.5 C 1029.64,569.389 1035.64,573.722 1040.5,579.5C 1038.98,579.511 1037.82,580.177 1037,581.5C 1032.71,588.41 1027.71,594.743 1022,600.5C 1017.1,597.296 1012.26,593.963 1007.5,590.5C 1013.02,582.78 1018.02,574.78 1022.5,566.5 Z"/></g>
<g><path style="opacity:1" fill="#f9fdff" d="M 838.5,567.5 C 942.524,562.584 1021.36,604.251 1075,692.5C 1107.14,753.172 1113.47,816.505 1094,882.5C 1063.91,969.259 1004.41,1024.09 915.5,1047C 823.029,1064.95 744.529,1039.79 680,971.5C 623.324,903.144 606.324,825.811 629,739.5C 656.5,658.667 710.667,604.5 791.5,577C 807.09,572.849 822.756,569.682 838.5,567.5 Z"/></g>
<g><path style="opacity:0.991" fill="#b2d4f1" d="M 334.5,571.5 C 336.017,571.511 337.184,572.177 338,573.5C 351.379,589.374 364.545,605.374 377.5,621.5C 348.833,635.833 320.167,650.167 291.5,664.5C 291.667,653.495 291.5,642.495 291,631.5C 289.504,619.526 288.337,607.526 287.5,595.5C 303.357,587.739 319.024,579.739 334.5,571.5 Z"/></g>
<g><path style="opacity:1" fill="#819aae" d="M 334.5,571.5 C 319.024,579.739 303.357,587.739 287.5,595.5C 286.532,593.393 286.198,591.059 286.5,588.5C 297.934,583.284 309.267,577.784 320.5,572C 325.155,571.501 329.821,571.334 334.5,571.5 Z"/></g>
<g><path style="opacity:1" fill="#5f666d" d="M 198.5,574.5 C 210.431,575.246 213.431,580.746 207.5,591C 201.376,595.043 196.542,593.876 193,587.5C 191.571,581.7 193.404,577.367 198.5,574.5 Z"/></g>
<g><path style="opacity:1" fill="#0395ff" d="M 841.5,576.5 C 928.136,572.747 997.969,604.747 1051,672.5C 1099.04,742.211 1108.38,816.878 1079,896.5C 1042.57,979.577 979.4,1028.08 889.5,1042C 802.042,1049.5 730.875,1019.34 676,951.5C 629.36,887 617.027,816.334 639,739.5C 665.167,664 716,613.167 791.5,587C 807.997,582.002 824.663,578.502 841.5,576.5 Z"/></g>
<g><path style="opacity:0.97" fill="#fafbff" d="M 677.5,584.5 C 683.043,591.745 688.709,598.912 694.5,606C 690.9,609.6 687.233,613.267 683.5,617C 682.5,617.667 681.5,617.667 680.5,617C 674.224,610.554 667.891,604.388 661.5,598.5C 662.543,595.944 664.21,593.777 666.5,592C 670,589.167 673.5,586.333 677,583.5C 677.399,583.728 677.565,584.062 677.5,584.5 Z"/></g>
<g><path style="opacity:0.008" fill="#4f606d" d="M 1373.5,582.5 C 1380.89,588.889 1387.56,595.889 1393.5,603.5C 1386.11,597.111 1379.44,590.111 1373.5,582.5 Z"/></g>
<g><path style="opacity:0.971" fill="#fbfcff" d="M 1054.5,590.5 C 1060.26,594.757 1065.59,599.59 1070.5,605C 1070.27,605.399 1069.94,605.565 1069.5,605.5C 1062.85,611.812 1056.19,618.145 1049.5,624.5C 1045.05,621.186 1040.89,617.52 1037,613.5C 1036.33,612.833 1036.33,612.167 1037,611.5C 1043.44,604.9 1049.28,597.9 1054.5,590.5 Z"/></g>
<g><path style="opacity:1" fill="#fdfdff" d="M 1054.5,751.5 C 1051.93,751.855 1049.43,752.521 1047,753.5C 1035.32,721.153 1017.15,692.986 992.5,669C 967.466,646.481 938.466,631.314 905.5,623.5C 905.368,620.43 905.701,617.43 906.5,614.5C 908.914,606.769 910.58,598.769 911.5,590.5C 992.192,611.695 1047.03,661.362 1076,739.5C 1076.8,741.259 1076.63,742.926 1075.5,744.5C 1068.33,746.668 1061.33,749.002 1054.5,751.5 Z"/></g>
<g><path style="opacity:1" fill="#0142fe" d="M 906.5,614.5 C 905.701,617.43 905.368,620.43 905.5,623.5C 938.466,631.314 967.466,646.481 992.5,669C 1017.15,692.986 1035.32,721.153 1047,753.5C 1049.43,752.521 1051.93,751.855 1054.5,751.5C 1073.13,819.629 1060.96,881.629 1018,937.5C 964.96,997.58 898.793,1020.75 819.5,1007C 737.574,985.407 686.074,933.574 665,851.5C 651.85,776.954 672.35,713.454 726.5,661C 778.789,615.428 838.789,599.928 906.5,614.5 Z"/></g>
<g><path style="opacity:0.971" fill="#7c95a8" d="M 1331.5,600.5 C 1333.66,604.139 1335.82,607.806 1338,611.5C 1358.27,610.699 1378.44,609.699 1398.5,608.5C 1410.17,619.5 1421.5,630.833 1432.5,642.5C 1407.49,642.393 1382.49,642.726 1357.5,643.5C 1352.26,642.551 1346.93,642.218 1341.5,642.5C 1337.78,628.314 1334.45,614.314 1331.5,600.5 Z"/></g>
<g><path style="opacity:0.972" fill="#fafbff" d="M 648.5,611.5 C 655.133,618.16 661.8,624.827 668.5,631.5C 664.723,636.065 660.723,640.398 656.5,644.5C 649.148,638.809 641.815,633.143 634.5,627.5C 637.037,622.783 640.204,618.449 644,614.5C 645.129,612.859 646.629,611.859 648.5,611.5 Z"/></g>
<g><path style="opacity:1" fill="#7d96a9" d="M 1610.5,616.5 C 1611.17,616.5 1611.5,616.833 1611.5,617.5C 1613.88,623.927 1616.55,630.26 1619.5,636.5C 1615.11,647.177 1610.45,657.677 1605.5,668C 1584.17,684.333 1562.83,700.667 1541.5,717C 1531.17,717.815 1520.83,718.148 1510.5,718C 1508.27,714.612 1506.27,711.112 1504.5,707.5C 1505.51,705.661 1507.01,704.328 1509,703.5C 1509.7,700.287 1509.54,697.121 1508.5,694C 1508.95,692.378 1509.95,691.212 1511.5,690.5C 1520.06,697.146 1529.73,699.312 1540.5,697C 1560.5,691.341 1576.34,679.841 1588,662.5C 1597.53,648.737 1600.86,633.737 1598,617.5C 1600.68,615.756 1603.68,614.756 1607,614.5C 1608.7,614.387 1609.87,615.053 1610.5,616.5 Z"/></g>
<g><path style="opacity:0.974" fill="#fafbff" d="M 1082.5,619.5 C 1084.02,619.511 1085.18,620.177 1086,621.5C 1089.14,626.271 1092.64,630.771 1096.5,635C 1095.94,635.383 1095.61,635.883 1095.5,636.5C 1087.79,641.446 1080.29,646.779 1073,652.5C 1069.33,648.167 1065.67,643.833 1062,639.5C 1061.38,638.551 1061.55,637.718 1062.5,637C 1069.66,631.674 1076.32,625.841 1082.5,619.5 Z"/></g>
<g><path style="opacity:1" fill="#7c95a8" d="M 377.5,621.5 C 377.833,621.5 378.167,621.5 378.5,621.5C 376.046,637.56 373.379,653.56 370.5,669.5C 343.125,682.855 315.791,696.188 288.5,709.5C 287.974,707.77 286.974,706.436 285.5,705.5C 290.104,692.275 292.104,678.608 291.5,664.5C 320.167,650.167 348.833,635.833 377.5,621.5 Z"/></g>
<g><path style="opacity:1" fill="#020303" d="M 1581.5,629.5 C 1583.98,635.59 1583.82,641.923 1581,648.5C 1569.04,671.39 1550.21,682.89 1524.5,683C 1522.38,682.74 1520.72,681.74 1519.5,680C 1522.17,676.667 1524.83,673.333 1527.5,670C 1545.75,656.723 1563.75,643.223 1581.5,629.5 Z"/></g>
<g><path style="opacity:1" fill="#5f656c" d="M 213.5,630.5 C 223.158,628.993 227.325,632.993 226,642.5C 223.647,647.426 219.814,649.26 214.5,648C 209.268,645.367 207.435,641.201 209,635.5C 210.025,633.313 211.525,631.646 213.5,630.5 Z"/></g>
<g><path style="opacity:1" fill="#07dcff" d="M 869.5,632.5 C 882.336,632.867 895.003,634.534 907.5,637.5C 906.426,641.629 905.426,645.796 904.5,650C 904.648,651.256 904.982,652.423 905.5,653.5C 903.254,653.064 901.087,652.397 899,651.5C 897.425,656.593 895.925,661.593 894.5,666.5C 893.345,664.175 891.345,663.008 888.5,663C 879.881,661.616 871.214,660.783 862.5,660.5C 862.5,651.167 862.5,641.833 862.5,632.5C 864.833,632.5 867.167,632.5 869.5,632.5 Z"/></g>
<g><path style="opacity:1" fill="#02dcff" d="M 811.5,638.5 C 813.167,638.5 814.833,638.5 816.5,638.5C 818.819,647.437 820.653,656.437 822,665.5C 783.186,677.664 753.186,700.998 732,735.5C 723.916,730.541 715.749,725.707 707.5,721C 732.176,680.838 766.842,653.338 811.5,638.5 Z"/></g>
<g><path style="opacity:0.974" fill="#fafbff" d="M 623.5,642.5 C 630.331,648.178 637.498,653.511 645,658.5C 643.108,664.266 640.108,669.6 636,674.5C 628.023,669.43 619.856,664.764 611.5,660.5C 614.39,653.637 618.39,647.637 623.5,642.5 Z"/></g>
<g><path style="opacity:1" fill="#aacae6" d="M 1341.5,642.5 C 1346.93,642.218 1352.26,642.551 1357.5,643.5C 1353.93,651.728 1349.93,659.728 1345.5,667.5C 1343.44,659.413 1342.1,651.079 1341.5,642.5 Z"/></g>
<g><path style="opacity:1" fill="#05a6ff" d="M 869.5,632.5 C 867.167,632.5 864.833,632.5 862.5,632.5C 862.5,641.833 862.5,651.167 862.5,660.5C 861.506,651.014 861.173,641.348 861.5,631.5C 864.385,631.194 867.052,631.527 869.5,632.5 Z"/></g>
<g><path style="opacity:0.973" fill="#fafbff" d="M 1106.5,651.5 C 1108.07,651.937 1109.24,652.937 1110,654.5C 1112.71,659.416 1115.54,664.249 1118.5,669C 1118.27,669.399 1117.94,669.565 1117.5,669.5C 1109.57,673.134 1101.9,677.3 1094.5,682C 1093.36,682.749 1092.36,682.583 1091.5,681.5C 1088.4,676.633 1085.9,671.633 1084,666.5C 1091.68,661.637 1099.18,656.637 1106.5,651.5 Z"/></g>
<g><path style="opacity:1" fill="#fdfefe" d="M 905.5,653.5 C 918.548,656.738 930.882,661.738 942.5,668.5C 978.86,690.207 1003.86,721.207 1017.5,761.5C 1013.44,763.181 1009.44,764.847 1005.5,766.5C 999.412,767.855 993.412,769.522 987.5,771.5C 945.828,784.332 904.162,796.999 862.5,809.5C 871.577,767.115 880.91,724.782 890.5,682.5C 892.121,677.349 893.454,672.016 894.5,666.5C 895.925,661.593 897.425,656.593 899,651.5C 901.087,652.397 903.254,653.064 905.5,653.5 Z"/></g>
<g><path style="opacity:1" fill="#0adcff" d="M 1005.5,766.5 C 1009.44,764.847 1013.44,763.181 1017.5,761.5C 1003.86,721.207 978.86,690.207 942.5,668.5C 945.309,664.232 948.143,659.898 951,655.5C 991.769,680.444 1019.27,715.777 1033.5,761.5C 1033.18,762.647 1032.52,763.481 1031.5,764C 1023.66,766.085 1015.83,768.252 1008,770.5C 1005.98,769.968 1005.15,768.635 1005.5,766.5 Z"/></g>
<g><path style="opacity:0.008" fill="#4f606d" d="M 1449.5,659.5 C 1456.56,665.556 1462.89,672.222 1468.5,679.5C 1461.44,673.444 1455.11,666.778 1449.5,659.5 Z"/></g>
<g><path style="opacity:1" fill="#12181b" d="M 370.5,669.5 C 368.658,684.978 367.658,700.311 367.5,715.5C 349.039,724.23 330.706,733.23 312.5,742.5C 310.26,741.432 308.426,739.766 307,737.5C 300.575,728.31 294.408,718.976 288.5,709.5C 315.791,696.188 343.125,682.855 370.5,669.5 Z"/></g>
<g><path style="opacity:0.974" fill="#fafbff" d="M 602.5,676.5 C 610.609,681.392 618.943,686.059 627.5,690.5C 624.818,695.864 622.151,701.198 619.5,706.5C 611.008,702.582 602.341,699.249 593.5,696.5C 594.411,692.002 595.911,687.668 598,683.5C 599.026,680.761 600.526,678.428 602.5,676.5 Z"/></g>
<g><path style="opacity:1" fill="#1a1a1a" d="M 890.5,682.5 C 880.91,724.782 871.577,767.115 862.5,809.5C 904.162,796.999 945.828,784.332 987.5,771.5C 1000.9,824.436 988.228,869.936 949.5,908C 914.061,937.275 873.727,946.942 828.5,937C 778.17,921.671 746.67,888.505 734,837.5C 723.947,772.444 747.447,723.944 804.5,692C 832.066,679.072 860.733,675.905 890.5,682.5 Z"/></g>
<g><path style="opacity:1" fill="#5f656c" d="M 229.5,685.5 C 239.323,684.488 243.489,688.822 242,698.5C 236.94,704.608 231.607,704.942 226,699.5C 223.264,693.767 224.431,689.1 229.5,685.5 Z"/></g>
<g><path style="opacity:1" fill="#809aad" d="M 91.5,686.5 C 94.2639,686.999 95.9305,688.665 96.5,691.5C 67.692,705.07 39.3587,719.404 11.5,734.5C 10.5195,732.604 9.51948,730.604 8.5,728.5C 35.7186,713.724 63.3853,699.724 91.5,686.5 Z"/></g>
<g><path style="opacity:0.977" fill="#fbfcff" d="M 1125.5,686.5 C 1130.19,691.857 1133.19,698.19 1134.5,705.5C 1125.63,708.265 1116.97,711.598 1108.5,715.5C 1105.17,710.195 1103.01,704.528 1102,698.5C 1109.96,694.58 1117.8,690.58 1125.5,686.5 Z"/></g>
<g><path style="opacity:0.993" fill="#b2d4f1" d="M 96.5,691.5 C 110.094,709.095 125.427,725.095 142.5,739.5C 112.818,753.674 83.4846,768.341 54.5,783.5C 39.8232,767.488 25.4899,751.155 11.5,734.5C 39.3587,719.404 67.692,705.07 96.5,691.5 Z"/></g>
<g><path style="opacity:0.974" fill="#fafbff" d="M 587.5,713.5 C 595.981,717.276 604.647,720.776 613.5,724C 611.126,729.287 609.46,734.787 608.5,740.5C 599.089,738.481 589.756,736.147 580.5,733.5C 581.286,727.685 582.786,721.685 585,715.5C 585.417,714.244 586.25,713.577 587.5,713.5 Z"/></g>
<g><path style="opacity:0.975" fill="#f9faff" d="M 1140.5,723.5 C 1143.68,730.058 1145.68,737.058 1146.5,744.5C 1137.8,745.84 1129.13,747.507 1120.5,749.5C 1119.35,749.182 1118.52,748.516 1118,747.5C 1116.56,742.805 1115.06,738.139 1113.5,733.5C 1113.71,732.914 1114.04,732.414 1114.5,732C 1123.38,729.455 1132.05,726.621 1140.5,723.5 Z"/></g>
<g><path style="opacity:1" fill="#7c95a8" d="M 142.5,739.5 C 156.612,748.723 171.612,756.056 187.5,761.5C 187.167,761.5 186.833,761.5 186.5,761.5C 151.86,778.82 117.193,796.153 82.5,813.5C 75.5446,806.922 69.0446,799.922 63,792.5C 62.1618,791.001 61.3285,790.668 60.5,791.5C 58.1223,789.122 56.1223,786.455 54.5,783.5C 83.4846,768.341 112.818,753.674 142.5,739.5 Z"/></g>
<g><path style="opacity:0.979" fill="#f9fbff" d="M 576.5,752.5 C 585.399,754.546 594.399,756.213 603.5,757.5C 602.183,763.42 601.517,769.42 601.5,775.5C 592.057,775.097 582.723,774.097 573.5,772.5C 572.761,772.631 572.094,772.464 571.5,772C 572.848,765.909 574.015,759.743 575,753.5C 575.383,752.944 575.883,752.611 576.5,752.5 Z"/></g>
<g><path style="opacity:0.976" fill="#819baf" d="M 367.5,747.5 C 367.833,764.18 367.499,780.847 366.5,797.5C 353.821,788.324 342.155,777.991 331.5,766.5C 341.815,764.725 352.148,763.059 362.5,761.5C 363.646,756.562 365.313,751.895 367.5,747.5 Z"/></g>
<g><path style="opacity:1" fill="#131a1c" d="M 186.5,761.5 C 193.511,772.861 200.511,784.195 207.5,795.5C 176.732,810.384 146.065,825.551 115.5,841C 106.776,844.422 99.6091,842.588 94,835.5C 84.0407,823.205 73.7073,811.205 63,799.5C 61.6591,796.978 60.8257,794.311 60.5,791.5C 61.3285,790.668 62.1618,791.001 63,792.5C 69.0446,799.922 75.5446,806.922 82.5,813.5C 117.193,796.153 151.86,778.82 186.5,761.5 Z"/></g>
<g><path style="opacity:0.975" fill="#f9faff" d="M 1149.5,762.5 C 1150.22,762.918 1150.72,763.584 1151,764.5C 1151.76,770.353 1152.59,776.186 1153.5,782C 1153.43,782.765 1153.1,783.265 1152.5,783.5C 1142.82,783.963 1133.15,784.629 1123.5,785.5C 1123.07,779.444 1123.07,773.444 1123.5,767.5C 1132.29,765.816 1140.96,764.149 1149.5,762.5 Z"/></g>
<g><path style="opacity:1" fill="#01dcff" d="M 689.5,764.5 C 699.056,766.554 708.389,769.221 717.5,772.5C 714.038,784.911 712.371,797.578 712.5,810.5C 703.167,810.5 693.833,810.5 684.5,810.5C 684.334,802.826 684.5,795.159 685,787.5C 686.085,779.731 687.585,772.064 689.5,764.5 Z"/></g>
<g><path style="opacity:0.966" fill="#f9fbff" d="M 571.5,791.5 C 578.323,792.491 585.323,793.158 592.5,793.5C 594.265,794.461 596.265,794.795 598.5,794.5C 598.5,795.5 598.5,796.5 598.5,797.5C 598.5,802.5 598.5,807.5 598.5,812.5C 589.167,812.5 579.833,812.5 570.5,812.5C 569.835,809.686 569.502,806.686 569.5,803.5C 569.278,799.203 569.945,795.203 571.5,791.5 Z"/></g>
<g><path style="opacity:1" fill="#9bbbff" d="M 592.5,793.5 C 594.833,793.5 597.167,793.5 599.5,793.5C 599.768,795.099 599.434,796.432 598.5,797.5C 598.5,796.5 598.5,795.5 598.5,794.5C 596.265,794.795 594.265,794.461 592.5,793.5 Z"/></g>
<g><path style="opacity:0.963" fill="#fcfdff" d="M 1153.5,802.5 C 1154.17,805.817 1154.5,809.317 1154.5,813C 1154.49,816.902 1153.82,820.402 1152.5,823.5C 1143.68,822.507 1134.68,822.173 1125.5,822.5C 1125.5,816.167 1125.5,809.833 1125.5,803.5C 1134.92,803.805 1144.25,803.472 1153.5,802.5 Z"/></g>
<g><path style="opacity:1" fill="#04dbff" d="M 1011.5,809.5 C 1020.83,809.5 1030.17,809.5 1039.5,809.5C 1039.73,825.061 1038.07,840.394 1034.5,855.5C 1024.66,853.879 1015.32,851.046 1006.5,847C 1009.61,834.695 1011.28,822.195 1011.5,809.5 Z"/></g>
<g><path style="opacity:0.98" fill="#fafbff" d="M 573.5,852.5 C 571.962,846.899 570.962,841.065 570.5,835C 570.514,833.615 570.848,832.449 571.5,831.5C 580.823,830.932 590.156,830.599 599.5,830.5C 600.035,836.521 600.702,842.521 601.5,848.5C 592.009,848.999 582.676,850.332 573.5,852.5 Z"/></g>
<g><path style="opacity:0.976" fill="#f9fbff" d="M 1151.5,842.5 C 1152.14,843.097 1152.47,843.93 1152.5,845C 1151.71,850.505 1150.87,856.005 1150,861.5C 1149.72,862.416 1149.22,863.082 1148.5,863.5C 1139.72,861.312 1130.72,859.646 1121.5,858.5C 1121.52,852.417 1122.19,846.417 1123.5,840.5C 1132.85,840.948 1142.18,841.614 1151.5,842.5 Z"/></g>
<g><path style="opacity:1" fill="#02dcff" d="M 712.5,849.5 C 714.5,849.5 716.5,849.5 718.5,849.5C 729.479,888.801 752.479,918.801 787.5,939.5C 782.667,947.833 777.833,956.167 773,964.5C 730.914,939.242 703.414,902.909 690.5,855.5C 698.099,854.072 705.432,852.072 712.5,849.5 Z"/></g>
<g><path style="opacity:0.977" fill="#fafbff" d="M 582.5,891.5 C 580.603,889.731 579.436,887.398 579,884.5C 578.103,880.848 577.27,877.181 576.5,873.5C 576.543,872.584 576.876,871.917 577.5,871.5C 586.687,869.063 596.021,867.396 605.5,866.5C 606.287,872.149 607.621,877.649 609.5,883C 600.334,885.701 591.334,888.534 582.5,891.5 Z"/></g>
<g><path style="opacity:0.975" fill="#f8faff" d="M 1144.5,881.5 C 1145.1,881.735 1145.43,882.235 1145.5,883C 1143.82,889.898 1141.48,896.398 1138.5,902.5C 1130.2,898.731 1121.53,895.731 1112.5,893.5C 1113.62,887.462 1114.96,881.462 1116.5,875.5C 1125.86,877.509 1135.2,879.509 1144.5,881.5 Z"/></g>
<g><path style="opacity:1" fill="#01dcff" d="M 991.5,884.5 C 1000.11,888.805 1008.44,893.638 1016.5,899C 991.334,940.664 955.334,968.164 908.5,981.5C 906.171,972.183 903.837,962.849 901.5,953.5C 940.813,942.506 970.813,919.506 991.5,884.5 Z"/></g>
<g><path style="opacity:0.973" fill="#f9faff" d="M 596.5,929.5 C 591.995,923.707 588.995,917.041 587.5,909.5C 596.962,906.902 606.295,903.902 615.5,900.5C 617.387,906.244 619.22,911.911 621,917.5C 612.419,920.875 604.253,924.875 596.5,929.5 Z"/></g>
<g><path style="opacity:0.973" fill="#fbfcff" d="M 1132.5,919.5 C 1130.55,926.729 1127.55,933.396 1123.5,939.5C 1115.39,934.608 1107.06,929.941 1098.5,925.5C 1101.1,920.209 1103.6,914.876 1106,909.5C 1114.68,913.335 1123.51,916.668 1132.5,919.5 Z"/></g>
<g><path style="opacity:0.976" fill="#fafbff" d="M 615.5,964.5 C 613.376,963.969 611.876,962.635 611,960.5C 608.373,956.081 605.873,951.581 603.5,947C 603.728,946.601 604.062,946.435 604.5,946.5C 612.877,942.561 621.044,938.228 629,933.5C 632.292,938.583 635.459,943.75 638.5,949C 630.656,954.03 622.989,959.196 615.5,964.5 Z"/></g>
<g><path style="opacity:0.974" fill="#fafbff" d="M 1114.5,955.5 C 1114.94,955.435 1115.27,955.601 1115.5,956C 1112.87,960.084 1110.37,964.25 1108,968.5C 1106.92,971.079 1105.09,972.746 1102.5,973.5C 1095.2,967.842 1087.86,962.175 1080.5,956.5C 1083.48,951.531 1086.81,946.865 1090.5,942.5C 1098.53,946.89 1106.53,951.224 1114.5,955.5 Z"/></g>
<g><path style="opacity:1" fill="#03dbff" d="M 822.5,954.5 C 835.59,958.036 848.923,959.703 862.5,959.5C 862.5,968.833 862.5,978.167 862.5,987.5C 846.857,988.455 831.524,986.788 816.5,982.5C 818.292,973.123 820.292,963.79 822.5,954.5 Z"/></g>
<g><path style="opacity:0.976" fill="#fafbff" d="M 638.5,997.5 C 633.024,992.692 628.69,987.026 625.5,980.5C 633.149,975.192 640.815,969.859 648.5,964.5C 651.491,967.661 654.325,970.995 657,974.5C 658.289,976.055 658.956,977.721 659,979.5C 651.632,985.044 644.798,991.044 638.5,997.5 Z"/></g>
<g><path style="opacity:0.973" fill="#fafcff" d="M 1092.5,988.5 C 1089.01,995.167 1084.34,1000.83 1078.5,1005.5C 1072.58,998.747 1066.08,992.414 1059,986.5C 1061.44,981.039 1065.11,976.373 1070,972.5C 1077.39,978.063 1084.89,983.396 1092.5,988.5 Z"/></g>
<g><path style="opacity:0.971" fill="#fbfcff" d="M 666.5,1026.5 C 660.167,1022.17 654.833,1016.83 650.5,1010.5C 652.932,1009.25 655.266,1007.75 657.5,1006C 662.015,1001.32 666.681,996.818 671.5,992.5C 675.518,996.353 679.685,1000.02 684,1003.5C 680.285,1010.25 675.285,1016.25 669,1021.5C 667.906,1023.08 667.072,1024.74 666.5,1026.5 Z"/></g>
<g><path style="opacity:0.971" fill="#fbfcff" d="M 1065.5,1018.5 C 1061.45,1024.88 1056.12,1029.88 1049.5,1033.5C 1049.65,1032.45 1049.48,1031.45 1049,1030.5C 1043.31,1024.31 1037.81,1017.98 1032.5,1011.5C 1035.65,1007.85 1038.98,1004.35 1042.5,1001C 1043.76,1000.02 1045.09,999.685 1046.5,1000C 1052.7,1006.37 1059.04,1012.54 1065.5,1018.5 Z"/></g>
<g><path style="opacity:0.996" fill="#9ea6b1" d="M 1508.5,1011.5 C 1537.94,1021.65 1562.78,1038.65 1583,1062.5C 1614.6,1102.37 1637.27,1147.03 1651,1196.5C 1668.14,1255.18 1678.98,1315.02 1683.5,1376C 1683.15,1384.8 1681.82,1393.3 1679.5,1401.5C 1637.43,1399.21 1598.1,1387.04 1561.5,1365C 1539.92,1351.29 1518.42,1337.46 1497,1323.5C 1478.9,1260.78 1461.9,1197.78 1446,1134.5C 1443.56,1120.85 1441.23,1107.18 1439,1093.5C 1438.33,1079.5 1438.33,1065.5 1439,1051.5C 1440.33,1041.51 1442.83,1031.84 1446.5,1022.5C 1465.62,1010.65 1486.29,1006.98 1508.5,1011.5 Z"/></g>
<g><path style="opacity:0.973" fill="#fafbff" d="M 697.5,1050.5 C 697.565,1050.94 697.399,1051.27 697,1051.5C 692.5,1048.33 688,1045.17 683.5,1042C 681.859,1040.87 680.859,1039.37 680.5,1037.5C 686.719,1030.76 692.719,1023.76 698.5,1016.5C 703.569,1019.7 708.235,1023.36 712.5,1027.5C 707.241,1035.02 702.241,1042.69 697.5,1050.5 Z"/></g>
<g><path style="opacity:0.975" fill="#fafbff" d="M 1035.5,1044.5 C 1030.29,1049.71 1024.29,1053.71 1017.5,1056.5C 1012.98,1048.62 1008.31,1040.79 1003.5,1033C 1007.49,1029.36 1011.82,1026.03 1016.5,1023C 1018,1022.49 1019.16,1022.99 1020,1024.5C 1024.65,1031.64 1029.81,1038.3 1035.5,1044.5 Z"/></g>
<g><path style="opacity:1" fill="#5f656c" d="M 1446.5,1022.5 C 1442.83,1031.84 1440.33,1041.51 1439,1051.5C 1438.33,1065.5 1438.33,1079.5 1439,1093.5C 1441.23,1107.18 1443.56,1120.85 1446,1134.5C 1461.9,1197.78 1478.9,1260.78 1497,1323.5C 1518.42,1337.46 1539.92,1351.29 1561.5,1365C 1598.1,1387.04 1637.43,1399.21 1679.5,1401.5C 1679.1,1404.71 1678.1,1407.71 1676.5,1410.5C 1660.99,1412.44 1645.65,1411.27 1630.5,1407C 1601.03,1399.1 1573.36,1387.1 1547.5,1371C 1521.17,1354 1494.83,1337 1468.5,1320C 1453.42,1309.09 1439.09,1297.25 1425.5,1284.5C 1424.06,1276.19 1422.73,1267.85 1421.5,1259.5C 1437.69,1280.85 1457.19,1298.52 1480,1312.5C 1480.17,1311.83 1480.33,1311.17 1480.5,1310.5C 1462.92,1249.86 1446.76,1188.86 1432,1127.5C 1428.19,1107.68 1426.02,1087.68 1425.5,1067.5C 1425.62,1056.67 1426.95,1046 1429.5,1035.5C 1434.26,1029.96 1439.92,1025.62 1446.5,1022.5 Z"/></g>
<g><path style="opacity:0.974" fill="#fbfcff" d="M 731.5,1070.5 C 731.44,1071.04 731.107,1071.38 730.5,1071.5C 725.992,1068.75 721.326,1066.25 716.5,1064C 714.937,1063.24 713.937,1062.07 713.5,1060.5C 718.267,1053.15 722.934,1045.65 727.5,1038C 728.5,1037.33 729.5,1037.33 730.5,1038C 734.34,1040.42 738.34,1042.59 742.5,1044.5C 743.583,1045.36 743.749,1046.36 743,1047.5C 739.153,1055.19 735.32,1062.86 731.5,1070.5 Z"/></g>
<g><path style="opacity:0.987" fill="#9ea6b1" d="M 1429.5,1035.5 C 1426.95,1046 1425.62,1056.67 1425.5,1067.5C 1426.02,1087.68 1428.19,1107.68 1432,1127.5C 1446.76,1188.86 1462.92,1249.86 1480.5,1310.5C 1480.33,1311.17 1480.17,1311.83 1480,1312.5C 1457.19,1298.52 1437.69,1280.85 1421.5,1259.5C 1413.61,1222.16 1407.44,1184.49 1403,1146.5C 1399.87,1119.85 1401.37,1093.52 1407.5,1067.5C 1412.35,1055.13 1419.69,1044.46 1429.5,1035.5 Z"/></g>
<g><path style="opacity:0.973" fill="#fafbff" d="M 1001.5,1065.5 C 1001.06,1067.07 1000.06,1068.24 998.5,1069C 993.165,1072.2 987.831,1074.37 982.5,1075.5C 979.12,1067.07 975.454,1058.74 971.5,1050.5C 976.386,1047.14 981.552,1044.14 987,1041.5C 991.608,1049.73 996.441,1057.73 1001.5,1065.5 Z"/></g>
<g><path style="opacity:0.976" fill="#fbfcff" d="M 768.5,1086.5 C 761.195,1085.18 754.528,1082.51 748.5,1078.5C 753.115,1070.68 756.782,1062.35 759.5,1053.5C 765.689,1055.17 771.689,1057.34 777.5,1060C 774.07,1068.69 771.07,1077.53 768.5,1086.5 Z"/></g>
<g><path style="opacity:0.974" fill="#fafbff" d="M 965.5,1082.5 C 962.426,1084.78 958.926,1086.45 955,1087.5C 951.435,1089.11 947.935,1089.78 944.5,1089.5C 942.956,1080.32 940.622,1071.32 937.5,1062.5C 942.89,1060.7 948.224,1058.7 953.5,1056.5C 954.799,1057.09 955.632,1058.09 956,1059.5C 958.518,1067.58 961.684,1075.25 965.5,1082.5 Z"/></g>
<g><path style="opacity:0.974" fill="#fafbff" d="M 807.5,1096.5 C 800.959,1096.23 794.292,1095.07 787.5,1093C 786.944,1092.62 786.611,1092.12 786.5,1091.5C 789.329,1082.55 792.329,1073.55 795.5,1064.5C 801.14,1066.29 806.806,1067.96 812.5,1069.5C 809.934,1078.33 808.267,1087.33 807.5,1096.5 Z"/></g>
<g><path style="opacity:0.978" fill="#fafbff" d="M 926.5,1094.5 C 920.203,1096.6 913.703,1098.26 907,1099.5C 906.617,1098.94 906.117,1098.61 905.5,1098.5C 905.982,1097.58 906.315,1096.58 906.5,1095.5C 904.839,1086.88 903.505,1078.21 902.5,1069.5C 908.474,1068.62 914.474,1067.95 920.5,1067.5C 922.35,1076.56 924.35,1085.56 926.5,1094.5 Z"/></g>
<g><path style="opacity:1" fill="#5f656c" d="M 1456.5,1069.5 C 1465.88,1068.38 1470.04,1072.38 1469,1081.5C 1466.41,1086.71 1462.24,1088.54 1456.5,1087C 1449.87,1081.17 1449.87,1075.33 1456.5,1069.5 Z"/></g>
<g><path style="opacity:0.979" fill="#f9faff" d="M 844.5,1072.5 C 845.209,1073.4 846.209,1073.74 847.5,1073.5C 847.5,1076.83 847.5,1080.17 847.5,1083.5C 847.5,1089.17 847.5,1094.83 847.5,1100.5C 847.631,1101.38 847.298,1102.04 846.5,1102.5C 839.652,1101.9 832.985,1100.9 826.5,1099.5C 828.157,1090.24 829.157,1080.91 829.5,1071.5C 834.493,1071.92 839.493,1072.25 844.5,1072.5 Z"/></g>
<g><path style="opacity:0.973" fill="#fbfcff" d="M 887.5,1100.5 C 880.543,1102.33 873.543,1102.66 866.5,1101.5C 866.5,1092.17 866.5,1082.83 866.5,1073.5C 872.509,1073.3 878.509,1072.97 884.5,1072.5C 885.27,1082 886.27,1091.33 887.5,1100.5 Z"/></g>
<g><path style="opacity:1" fill="#5489ff" d="M 844.5,1072.5 C 845.833,1072.5 847.167,1072.5 848.5,1072.5C 848.815,1076.37 848.482,1080.04 847.5,1083.5C 847.5,1080.17 847.5,1076.83 847.5,1073.5C 846.209,1073.74 845.209,1073.4 844.5,1072.5 Z"/></g>
<g><path style="opacity:1" fill="#5f656c" d="M 1473.5,1124.5 C 1482.48,1124.31 1486.31,1128.64 1485,1137.5C 1482.1,1142.15 1477.94,1143.65 1472.5,1142C 1467.85,1139.1 1466.35,1134.94 1468,1129.5C 1469.73,1127.6 1471.56,1125.93 1473.5,1124.5 Z"/></g>
<g><path style="opacity:1" fill="#5f656c" d="M 1489.5,1179.5 C 1498.53,1179.36 1502.36,1183.69 1501,1192.5C 1498.65,1197.43 1494.81,1199.26 1489.5,1198C 1484.27,1195.37 1482.44,1191.2 1484,1185.5C 1485.36,1182.98 1487.19,1180.98 1489.5,1179.5 Z"/></g>
<g><path style="opacity:1" fill="#5f656c" d="M 1504.5,1235.5 C 1513.83,1234.33 1517.99,1238.33 1517,1247.5C 1511.75,1255.01 1506.09,1255.34 1500,1248.5C 1498.38,1242.92 1499.88,1238.59 1504.5,1235.5 Z"/></g>
<g><path style="opacity:1" fill="#9ea6b0" d="M 717.5,1274.5 C 722.52,1335.34 743.854,1389.01 781.5,1435.5C 722.041,1404.84 688.207,1356.17 680,1289.5C 679.5,1283.18 679.334,1276.84 679.5,1270.5C 679.735,1269.9 680.235,1269.57 681,1269.5C 693.274,1271.41 705.44,1273.07 717.5,1274.5 Z"/></g>
<g><path style="opacity:0.999" fill="#9ea6b1" d="M 909.5,1446.5 C 876.171,1454.48 842.837,1454.48 809.5,1446.5C 774.28,1414.45 750.447,1375.12 738,1328.5C 733.394,1311.08 730.228,1293.41 728.5,1275.5C 815.833,1275.5 903.167,1275.5 990.5,1275.5C 985.779,1331.2 966.279,1380.86 932,1424.5C 924.605,1432.06 917.105,1439.4 909.5,1446.5 Z"/></g>
<g><path style="opacity:0.997" fill="#5e646b" d="M 1034.5,1270.5 C 1036.26,1269.54 1038.26,1269.21 1040.5,1269.5C 1040.34,1271.53 1040.5,1273.53 1041,1275.5C 1044.36,1277.7 1047.19,1280.36 1049.5,1283.5C 1057.27,1296.06 1061.94,1309.72 1063.5,1324.5C 1065.95,1355.08 1057.45,1382.08 1038,1405.5C 1026.43,1417.08 1014.26,1427.91 1001.5,1438C 978.435,1450.48 955.268,1450.65 932,1438.5C 930.541,1438.81 929.374,1439.47 928.5,1440.5C 922.167,1442.5 915.833,1444.5 909.5,1446.5C 917.105,1439.4 924.605,1432.06 932,1424.5C 966.279,1380.86 985.779,1331.2 990.5,1275.5C 903.167,1275.5 815.833,1275.5 728.5,1275.5C 730.228,1293.41 733.394,1311.08 738,1328.5C 750.447,1375.12 774.28,1414.45 809.5,1446.5C 803.155,1444.5 796.822,1442.5 790.5,1440.5C 789.626,1439.47 788.459,1438.81 787,1438.5C 760.302,1452.08 734.802,1450.24 710.5,1433C 695.595,1420.1 682.095,1405.93 670,1390.5C 658.868,1370.6 654.034,1349.27 655.5,1326.5C 656.905,1311.87 661.238,1298.21 668.5,1285.5C 671.435,1282.06 674.601,1278.73 678,1275.5C 678.198,1273.62 678.698,1271.95 679.5,1270.5C 679.334,1276.84 679.5,1283.18 680,1289.5C 688.207,1356.17 722.041,1404.84 781.5,1435.5C 743.854,1389.01 722.52,1335.34 717.5,1274.5C 812.167,1274.5 906.833,1274.5 1001.5,1274.5C 996.612,1334.58 975.945,1387.92 939.5,1434.5C 996.476,1404.92 1029.64,1358.26 1039,1294.5C 1039.5,1286.51 1039.67,1278.51 1039.5,1270.5C 1037.83,1270.5 1036.17,1270.5 1034.5,1270.5 Z"/></g>
<g><path style="opacity:1" fill="#9ea6b1" d="M 1034.5,1270.5 C 1036.17,1270.5 1037.83,1270.5 1039.5,1270.5C 1039.67,1278.51 1039.5,1286.51 1039,1294.5C 1029.64,1358.26 996.476,1404.92 939.5,1434.5C 975.945,1387.92 996.612,1334.58 1001.5,1274.5C 1012.4,1272.71 1023.4,1271.38 1034.5,1270.5 Z"/></g>
<g><path style="opacity:0.99" fill="#9ea6b1" d="M 1425.5,1284.5 C 1439.09,1297.25 1453.42,1309.09 1468.5,1320C 1494.83,1337 1521.17,1354 1547.5,1371C 1573.36,1387.1 1601.03,1399.1 1630.5,1407C 1645.65,1411.27 1660.99,1412.44 1676.5,1410.5C 1672.25,1420.42 1665.25,1427.75 1655.5,1432.5C 1655.57,1432.06 1655.4,1431.73 1655,1431.5C 1645.85,1435.77 1636.18,1437.77 1626,1437.5C 1616.36,1437.05 1606.86,1435.72 1597.5,1433.5C 1595.19,1433.01 1592.86,1432.67 1590.5,1432.5C 1570.32,1425.25 1550.66,1416.58 1531.5,1406.5C 1515.77,1398.31 1501.1,1388.64 1487.5,1377.5C 1472.14,1365.98 1458.14,1352.81 1445.5,1338C 1444.91,1337.54 1444.24,1337.37 1443.5,1337.5C 1438.79,1330.93 1434.62,1323.93 1431,1316.5C 1428.19,1306.01 1426.36,1295.34 1425.5,1284.5 Z"/></g>
<g><path style="opacity:1" fill="#5f656c" d="M 1520.5,1290.5 C 1532.87,1290.69 1536.21,1296.19 1530.5,1307C 1519.43,1310.89 1514.6,1307.06 1516,1295.5C 1517.71,1293.96 1519.21,1292.3 1520.5,1290.5 Z"/></g>
<g><path style="opacity:0.988" fill="#030205" d="M 655.5,1326.5 C 654.034,1349.27 658.868,1370.6 670,1390.5C 682.095,1405.93 695.595,1420.1 710.5,1433C 734.802,1450.24 760.302,1452.08 787,1438.5C 788.459,1438.81 789.626,1439.47 790.5,1440.5C 786.022,1447.22 779.689,1450.56 771.5,1450.5C 776.035,1464.69 772.368,1476.19 760.5,1485C 758.043,1486.56 755.376,1487.56 752.5,1488C 750.051,1498.29 744.051,1505.79 734.5,1510.5C 742.636,1521.57 743.136,1532.91 736,1544.5C 733.079,1548.09 729.579,1550.92 725.5,1553C 725.995,1563.18 721.995,1571.35 713.5,1577.5C 721.723,1589.87 721.057,1601.7 711.5,1613C 716.599,1625.11 714.599,1635.94 705.5,1645.5C 717.466,1659.33 717.466,1673.16 705.5,1687C 701.123,1690.03 696.456,1692.19 691.5,1693.5C 690.5,1693.5 689.5,1693.5 688.5,1693.5C 687.257,1670.57 686.09,1647.57 685,1624.5C 678.902,1594.16 661.402,1573.33 632.5,1562C 612.995,1555.53 594.661,1557.86 577.5,1569C 570.996,1574.67 564.663,1580.5 558.5,1586.5C 552.678,1572.45 555.678,1560.45 567.5,1550.5C 560.462,1538.5 560.962,1526.83 569,1515.5C 571.892,1512.94 575.059,1510.78 578.5,1509C 579.87,1507.56 580.87,1505.89 581.5,1504C 573.248,1496.23 570.414,1486.73 573,1475.5C 577.176,1465.16 584.676,1458.49 595.5,1455.5C 588.763,1434.64 595.929,1421.31 617,1415.5C 617.97,1413.73 618.804,1411.89 619.5,1410C 612.767,1388.63 620.1,1374.8 641.5,1368.5C 637.255,1354.07 641.422,1342.73 654,1334.5C 654.183,1331.64 654.683,1328.97 655.5,1326.5 Z"/></g>
<g><path style="opacity:0.988" fill="#030205" d="M 1063.5,1324.5 C 1064.32,1327.64 1064.82,1330.97 1065,1334.5C 1078.03,1342.74 1082.2,1354.24 1077.5,1369C 1099.67,1374.85 1107.01,1388.68 1099.5,1410.5C 1100.25,1412.75 1101.59,1414.59 1103.5,1416C 1118.4,1418.89 1126.06,1427.89 1126.5,1443C 1126.73,1447.64 1125.73,1451.97 1123.5,1456C 1142.32,1461.13 1149.82,1473.3 1146,1492.5C 1143.88,1496.94 1141.38,1501.11 1138.5,1505C 1139.86,1508.7 1142.52,1511.03 1146.5,1512C 1158.57,1523.69 1160.24,1536.69 1151.5,1551C 1163.55,1560.23 1166.88,1572.06 1161.5,1586.5C 1160.76,1586.63 1160.09,1586.46 1159.5,1586C 1135.69,1557.07 1107.02,1551.07 1073.5,1568C 1050.09,1582.32 1036.92,1603.15 1034,1630.5C 1032.83,1651.49 1032,1672.49 1031.5,1693.5C 1030.17,1693.5 1028.83,1693.5 1027.5,1693.5C 1010.15,1688.14 1002.98,1676.47 1006,1658.5C 1007.48,1653.54 1009.98,1649.21 1013.5,1645.5C 1005.02,1635.97 1003.02,1625.31 1007.5,1613.5C 999.025,1601.98 998.358,1589.98 1005.5,1577.5C 997.321,1571.28 992.988,1562.95 992.5,1552.5C 977.725,1542.06 974.559,1528.73 983,1512.5C 983.833,1511.67 984.667,1510.83 985.5,1510C 975.428,1506.26 969.261,1499.09 967,1488.5C 949.019,1481.91 942.852,1469.41 948.5,1451C 940.233,1450.37 933.566,1446.87 928.5,1440.5C 929.374,1439.47 930.541,1438.81 932,1438.5C 955.268,1450.65 978.435,1450.48 1001.5,1438C 1014.26,1427.91 1026.43,1417.08 1038,1405.5C 1057.45,1382.08 1065.95,1355.08 1063.5,1324.5 Z"/></g>
<g><path style="opacity:0.976" fill="#030205" d="M 1443.5,1337.5 C 1444.24,1337.37 1444.91,1337.54 1445.5,1338C 1458.14,1352.81 1472.14,1365.98 1487.5,1377.5C 1471.83,1387.66 1463.83,1402.16 1463.5,1421C 1466.27,1433.03 1464.44,1444.19 1458,1454.5C 1445.1,1466.39 1431.27,1467.56 1416.5,1458C 1411.66,1453.49 1408.49,1447.99 1407,1441.5C 1400.32,1399.93 1412.49,1365.26 1443.5,1337.5 Z"/></g>
<g><path style="opacity:0.977" fill="#030205" d="M 1531.5,1406.5 C 1550.66,1416.58 1570.32,1425.25 1590.5,1432.5C 1591.05,1464.96 1582.89,1494.96 1566,1522.5C 1556.46,1535.04 1545.29,1545.87 1532.5,1555C 1515.61,1563.88 1501.45,1560.71 1490,1545.5C 1484.92,1534.45 1485.59,1523.79 1492,1513.5C 1500.27,1507.24 1507.93,1500.24 1515,1492.5C 1525.65,1476.89 1531.32,1459.55 1532,1440.5C 1532.56,1429.16 1532.39,1417.82 1531.5,1406.5 Z"/></g>
<g><path style="opacity:0.977" fill="#030205" d="M 1655.5,1432.5 C 1658.96,1479.35 1649.46,1523.35 1627,1564.5C 1621.16,1573.52 1614.82,1582.19 1608,1590.5C 1594.32,1602.9 1580.16,1603.57 1565.5,1592.5C 1556.22,1582.6 1554.06,1571.27 1559,1558.5C 1566.16,1549.52 1572.82,1540.19 1579,1530.5C 1593.95,1499.9 1600.12,1467.56 1597.5,1433.5C 1606.86,1435.72 1616.36,1437.05 1626,1437.5C 1636.18,1437.77 1645.85,1435.77 1655,1431.5C 1655.4,1431.73 1655.57,1432.06 1655.5,1432.5 Z"/></g>
<g><path style="opacity:0.994" fill="#5e646b" d="M 688.5,1693.5 C 690.736,1765.89 694.069,1838.22 698.5,1910.5C 705.284,1907.35 711.951,1904.02 718.5,1900.5C 718.5,1902.83 718.5,1905.17 718.5,1907.5C 712.084,1909.87 705.75,1912.54 699.5,1915.5C 698.672,1919.8 698.172,1924.13 698,1928.5C 676.19,1909.33 651.69,1894.33 624.5,1883.5C 624.167,1882.17 623.833,1880.83 623.5,1879.5C 630.515,1818.71 638.348,1758.05 647,1697.5C 668.893,1674.13 674.893,1647.13 665,1616.5C 651.649,1585.08 628.483,1573.24 595.5,1581C 567.122,1596.25 554.288,1620.08 557,1652.5C 557.949,1661.38 559.782,1670.05 562.5,1678.5C 554.013,1742.4 546.179,1806.4 539,1870.5C 499.126,1875.94 464.793,1892.6 436,1920.5C 438.149,1909.83 440.649,1899.16 443.5,1888.5C 470.829,1794.34 503.996,1702.34 543,1612.5C 547.423,1603.31 552.59,1594.64 558.5,1586.5C 564.663,1580.5 570.996,1574.67 577.5,1569C 594.661,1557.86 612.995,1555.53 632.5,1562C 661.402,1573.33 678.902,1594.16 685,1624.5C 686.09,1647.57 687.257,1670.57 688.5,1693.5 Z"/></g>
<g><path style="opacity:0.994" fill="#5e646b" d="M 1161.5,1586.5 C 1168.09,1596.66 1173.92,1607.33 1179,1618.5C 1216.61,1706.16 1248.78,1795.83 1275.5,1887.5C 1278.3,1897.39 1280.8,1907.39 1283,1917.5C 1284.34,1920.67 1286.51,1921.34 1289.5,1919.5C 1289.5,1920.83 1289.5,1922.17 1289.5,1923.5C 1289.48,1925.03 1288.82,1925.53 1287.5,1925C 1258.32,1894.41 1222.65,1876.58 1180.5,1871.5C 1173.28,1806.56 1165.28,1741.73 1156.5,1677C 1169.69,1643.26 1163.35,1613.92 1137.5,1589C 1111.62,1571.67 1087.78,1574.17 1066,1596.5C 1044.35,1627.19 1044.02,1658.19 1065,1689.5C 1067.67,1692.17 1070.33,1694.83 1073,1697.5C 1081.81,1759.35 1089.31,1821.35 1095.5,1883.5C 1067.89,1894.05 1043.06,1909.05 1021,1928.5C 1020.83,1924.13 1020.33,1919.8 1019.5,1915.5C 1013.25,1912.54 1006.92,1909.87 1000.5,1907.5C 1000.5,1905.17 1000.5,1902.83 1000.5,1900.5C 1007.23,1903.95 1014.07,1907.28 1021,1910.5C 1024.71,1838.18 1028.21,1765.84 1031.5,1693.5C 1032,1672.49 1032.83,1651.49 1034,1630.5C 1036.92,1603.15 1050.09,1582.32 1073.5,1568C 1107.02,1551.07 1135.69,1557.07 1159.5,1586C 1160.09,1586.46 1160.76,1586.63 1161.5,1586.5 Z"/></g>
<g><path style="opacity:0.998" fill="#9ea6b1" d="M 718.5,1907.5 C 718.518,1915.85 718.185,1924.18 717.5,1932.5C 713.208,1932.03 709.208,1932.87 705.5,1935C 711.702,1941.37 718.035,1947.54 724.5,1953.5C 738.01,1969.18 749.01,1986.51 757.5,2005.5C 745.628,2009.57 739.961,2017.9 740.5,2030.5C 722.884,2034.09 705.217,2037.59 687.5,2041C 650.218,2046.65 612.718,2049.15 575,2048.5C 533.311,2049.06 491.811,2046.56 450.5,2041C 436.831,2039.6 423.831,2035.94 411.5,2030C 410.333,2028.83 409.167,2027.67 408,2026.5C 406.007,2014.01 398.84,2006.67 386.5,2004.5C 393.623,1974.58 407.789,1948.58 429,1926.5C 428.069,1911.44 432.902,1898.77 443.5,1888.5C 440.649,1899.16 438.149,1909.83 436,1920.5C 464.793,1892.6 499.126,1875.94 539,1870.5C 546.179,1806.4 554.013,1742.4 562.5,1678.5C 559.782,1670.05 557.949,1661.38 557,1652.5C 554.288,1620.08 567.122,1596.25 595.5,1581C 628.483,1573.24 651.649,1585.08 665,1616.5C 674.893,1647.13 668.893,1674.13 647,1697.5C 638.348,1758.05 630.515,1818.71 623.5,1879.5C 623.833,1880.83 624.167,1882.17 624.5,1883.5C 651.69,1894.33 676.19,1909.33 698,1928.5C 698.172,1924.13 698.672,1919.8 699.5,1915.5C 705.75,1912.54 712.084,1909.87 718.5,1907.5 Z"/></g>
<g><path style="opacity:0.998" fill="#9ea6b1" d="M 1289.5,1923.5 C 1294.64,1931.5 1300.47,1939.17 1307,1946.5C 1319.58,1964 1328.08,1983.33 1332.5,2004.5C 1319.83,2006.84 1312.5,2014.5 1310.5,2027.5C 1309.02,2028.48 1307.69,2029.65 1306.5,2031C 1299.36,2033.93 1292.03,2036.27 1284.5,2038C 1235.64,2045.57 1186.48,2049.07 1137,2048.5C 1083.35,2049.84 1030.69,2043.5 979,2029.5C 979.143,2017.5 973.643,2009.5 962.5,2005.5C 970.317,1986.04 981.317,1968.71 995.5,1953.5C 1001.27,1947.23 1007.27,1941.06 1013.5,1935C 1010.17,1932.92 1006.5,1932.09 1002.5,1932.5C 1001.33,1924.26 1000.66,1915.92 1000.5,1907.5C 1006.92,1909.87 1013.25,1912.54 1019.5,1915.5C 1020.33,1919.8 1020.83,1924.13 1021,1928.5C 1043.06,1909.05 1067.89,1894.05 1095.5,1883.5C 1089.31,1821.35 1081.81,1759.35 1073,1697.5C 1070.33,1694.83 1067.67,1692.17 1065,1689.5C 1044.02,1658.19 1044.35,1627.19 1066,1596.5C 1087.78,1574.17 1111.62,1571.67 1137.5,1589C 1163.35,1613.92 1169.69,1643.26 1156.5,1677C 1165.28,1741.73 1173.28,1806.56 1180.5,1871.5C 1222.65,1876.58 1258.32,1894.41 1287.5,1925C 1288.82,1925.53 1289.48,1925.03 1289.5,1923.5 Z"/></g>
<g><path style="opacity:1" fill="#5e646b" d="M 607.5,1588.5 C 632.252,1588.73 648.418,1600.73 656,1624.5C 663.251,1652.03 656.084,1674.86 634.5,1693C 607.167,1705.59 586.667,1698.42 573,1671.5C 564.087,1648.57 566.42,1626.9 580,1606.5C 587.251,1597.39 596.418,1591.39 607.5,1588.5 Z"/></g>
<g><path style="opacity:1" fill="#5e646b" d="M 1099.5,1588.5 C 1119.3,1588.15 1134.13,1596.48 1144,1613.5C 1153.65,1633.63 1153.98,1653.96 1145,1674.5C 1131.19,1698.22 1111.69,1704.72 1086.5,1694C 1071.49,1683.5 1062.99,1669 1061,1650.5C 1058.96,1629.76 1065.46,1612.26 1080.5,1598C 1086.38,1593.73 1092.71,1590.56 1099.5,1588.5 Z"/></g>
<g><path style="opacity:1" fill="#5e646b" d="M 571.5,1691.5 C 579.076,1699.3 588.076,1705.14 598.5,1709C 610.103,1711.57 621.437,1710.74 632.5,1706.5C 632.833,1707.5 633.167,1708.5 633.5,1709.5C 626.255,1765.79 619.255,1822.13 612.5,1878.5C 592.203,1873.05 571.536,1870.05 550.5,1869.5C 556.679,1810.06 563.679,1750.73 571.5,1691.5 Z"/></g>
<g><path style="opacity:1" fill="#5e646b" d="M 1146.5,1691.5 C 1155.54,1750.84 1163.21,1810.51 1169.5,1870.5C 1148,1869.45 1127,1872.12 1106.5,1878.5C 1099.65,1821.07 1092.99,1763.74 1086.5,1706.5C 1109.97,1715 1129.97,1710 1146.5,1691.5 Z"/></g>
<g><path style="opacity:0.968" fill="#9ea6b1" d="M 688.5,1693.5 C 689.5,1693.5 690.5,1693.5 691.5,1693.5C 701.713,1695.21 707.88,1701.21 710,1711.5C 711.24,1759.69 710.407,1807.86 707.5,1856C 709.556,1861.62 712.056,1867.12 715,1872.5C 717.106,1881.71 718.273,1891.04 718.5,1900.5C 711.951,1904.02 705.284,1907.35 698.5,1910.5C 694.069,1838.22 690.736,1765.89 688.5,1693.5 Z"/></g>
<g><path style="opacity:0.971" fill="#9ea6b1" d="M 1027.5,1693.5 C 1028.83,1693.5 1030.17,1693.5 1031.5,1693.5C 1028.21,1765.84 1024.71,1838.18 1021,1910.5C 1014.07,1907.28 1007.23,1903.95 1000.5,1900.5C 1001.09,1889.64 1002.92,1878.97 1006,1868.5C 1007.67,1865.83 1009.33,1863.17 1011,1860.5C 1010.62,1834.84 1009.95,1809.17 1009,1783.5C 1008.07,1758.47 1008.4,1733.47 1010,1708.5C 1013.28,1700.38 1019.12,1695.38 1027.5,1693.5 Z"/></g>
<g><path style="opacity:1" fill="#9ca4af" d="M 596.5,1726.5 C 605.854,1726.68 610.02,1731.35 609,1740.5C 605.578,1747.3 600.411,1749.13 593.5,1746C 586.295,1738.2 587.295,1731.7 596.5,1726.5 Z"/></g>
<g><path style="opacity:1" fill="#9da5af" d="M 1117.5,1726.5 C 1126.85,1726.68 1131.02,1731.35 1130,1740.5C 1127.24,1746.3 1122.74,1748.46 1116.5,1747C 1110.89,1743.72 1109.06,1738.89 1111,1732.5C 1112.91,1730.14 1115.08,1728.14 1117.5,1726.5 Z"/></g>
<g><path style="opacity:1" fill="#9da5b0" d="M 588.5,1775.5 C 599.041,1774.54 603.541,1779.21 602,1789.5C 597.385,1796.2 591.719,1797.2 585,1792.5C 580.861,1785.6 582.027,1779.93 588.5,1775.5 Z"/></g>
<g><path style="opacity:1" fill="#9da5b0" d="M 1122.5,1775.5 C 1132.99,1774.49 1137.49,1779.15 1136,1789.5C 1133.08,1795.02 1128.58,1796.86 1122.5,1795C 1117.37,1791.94 1115.53,1787.44 1117,1781.5C 1118.36,1778.98 1120.19,1776.98 1122.5,1775.5 Z"/></g>
<g><path style="opacity:1" fill="#9da5b0" d="M 580.5,1826.5 C 594.313,1825.8 598.313,1831.63 592.5,1844C 585.321,1848.28 579.821,1846.78 576,1839.5C 574.675,1834.16 576.175,1829.82 580.5,1826.5 Z"/></g>
<g><path style="opacity:1" fill="#9ca4af" d="M 1131.5,1825.5 C 1142.69,1826.55 1146.19,1832.22 1142,1842.5C 1134.89,1848.48 1128.89,1847.48 1124,1839.5C 1122.58,1832.68 1125.08,1828.01 1131.5,1825.5 Z"/></g>
<g><path style="opacity:0.871" fill="#9ca4af" d="M 1275.5,1887.5 C 1284.5,1896.18 1289.17,1906.84 1289.5,1919.5C 1286.51,1921.34 1284.34,1920.67 1283,1917.5C 1280.8,1907.39 1278.3,1897.39 1275.5,1887.5 Z"/></g>
<g><path style="opacity:1" fill="#fefefe" d="M 548.5,1894.5 C 585.091,1891.03 619.758,1897.53 652.5,1914C 661.356,1919.16 668.522,1925.99 674,1934.5C 674.288,1942.9 670.122,1947.73 661.5,1949C 651.222,1950.58 640.889,1951.58 630.5,1952C 581.833,1952.67 533.167,1952.67 484.5,1952C 450.26,1948.14 447.594,1936.8 476.5,1918C 499.206,1905.82 523.206,1897.99 548.5,1894.5 Z"/></g>
<g><path style="opacity:1" fill="#fefefe" d="M 1130.5,1894.5 C 1167.98,1892.08 1203.65,1898.91 1237.5,1915C 1247.84,1919.68 1256.01,1926.84 1262,1936.5C 1262.86,1942.34 1260.36,1946.17 1254.5,1948C 1246.72,1950.62 1238.72,1951.96 1230.5,1952C 1180.5,1952.67 1130.5,1952.67 1080.5,1952C 1070.58,1951.72 1060.91,1950.05 1051.5,1947C 1043.68,1942.57 1042.51,1936.73 1048,1929.5C 1061.8,1915.51 1078.3,1906.01 1097.5,1901C 1108.48,1897.97 1119.48,1895.8 1130.5,1894.5 Z"/></g>
<g><path style="opacity:0.931" fill="#0a090d" d="M 717.5,1932.5 C 726.414,1937.24 728.747,1944.24 724.5,1953.5C 718.035,1947.54 711.702,1941.37 705.5,1935C 709.208,1932.87 713.208,1932.03 717.5,1932.5 Z"/></g>
<g><path style="opacity:0.929" fill="#060609" d="M 1002.5,1932.5 C 1006.5,1932.09 1010.17,1932.92 1013.5,1935C 1007.27,1941.06 1001.27,1947.23 995.5,1953.5C 991.253,1944.24 993.586,1937.24 1002.5,1932.5 Z"/></g>
<g><path style="opacity:0.983" fill="#030205" d="M 386.5,2004.5 C 398.84,2006.67 406.007,2014.01 408,2026.5C 409.167,2027.67 410.333,2028.83 411.5,2030C 423.831,2035.94 436.831,2039.6 450.5,2041C 491.811,2046.56 533.311,2049.06 575,2048.5C 612.718,2049.15 650.218,2046.65 687.5,2041C 705.217,2037.59 722.884,2034.09 740.5,2030.5C 739.961,2017.9 745.628,2009.57 757.5,2005.5C 774.805,2003.67 784.139,2011.5 785.5,2029C 784.545,2041.91 778.879,2052.24 768.5,2060C 757.545,2067.77 745.545,2073.44 732.5,2077C 707.575,2083.66 682.242,2087.99 656.5,2090C 638.026,2091.47 619.693,2092.63 601.5,2093.5C 586.833,2093.5 572.167,2093.5 557.5,2093.5C 512.248,2092.56 467.581,2086.39 423.5,2075C 407.294,2070.39 392.294,2063.39 378.5,2054C 367.499,2045.84 362.665,2035 364,2021.5C 367.632,2010.7 375.132,2005.03 386.5,2004.5 Z"/></g>
<g><path style="opacity:0.983" fill="#030205" d="M 962.5,2005.5 C 973.643,2009.5 979.143,2017.5 979,2029.5C 1030.69,2043.5 1083.35,2049.84 1137,2048.5C 1186.48,2049.07 1235.64,2045.57 1284.5,2038C 1292.03,2036.27 1299.36,2033.93 1306.5,2031C 1307.69,2029.65 1309.02,2028.48 1310.5,2027.5C 1312.5,2014.5 1319.83,2006.84 1332.5,2004.5C 1350.39,2006.59 1357.89,2016.59 1355,2034.5C 1352.77,2041.4 1348.94,2047.23 1343.5,2052C 1328.13,2063.25 1311.13,2071.25 1292.5,2076C 1249.34,2086.69 1205.67,2092.52 1161.5,2093.5C 1147.17,2093.5 1132.83,2093.5 1118.5,2093.5C 1084.78,2092.49 1051.12,2089.33 1017.5,2084C 992.829,2080.84 970.162,2072.51 949.5,2059C 934.768,2046.9 930.935,2032.07 938,2014.5C 944.337,2006.44 952.504,2003.44 962.5,2005.5 Z"/></g>
</svg>
