<?xml version="1.0" encoding="UTF-8"?>
<!DOCTYPE svg PUBLIC "-//W3C//DTD SVG 1.1//EN" "http://www.w3.org/Graphics/SVG/1.1/DTD/svg11.dtd">
<svg xmlns="http://www.w3.org/2000/svg" version="1.1" width="8000px" height="2300px" style="shape-rendering:geometricPrecision; text-rendering:geometricPrecision; image-rendering:optimizeQuality; fill-rule:evenodd; clip-rule:evenodd" xmlns:xlink="http://www.w3.org/1999/xlink">
<g><path style="opacity:0.974" fill="#b2d4f1" d="M 1988.5,175.5 C 1987.89,174.609 1987.56,173.609 1987.5,172.5C 1986.79,158.164 1985.96,143.831 1985,129.5C 1976.26,122.878 1967.42,116.378 1958.5,110C 1956.12,109.444 1953.78,109.61 1951.5,110.5C 1928.97,118.064 1906.47,125.731 1884,133.5C 1879.53,143.917 1874.86,154.251 1870,164.5C 1869.71,180.834 1869.88,197.168 1870.5,213.5C 1867.83,214.501 1865.16,215.501 1862.5,216.5C 1860.78,214.342 1859.95,211.675 1860,208.5C 1859.28,194.486 1858.44,180.486 1857.5,166.5C 1864.02,151.791 1871.02,137.291 1878.5,123C 1781.83,127.106 1685.16,131.606 1588.5,136.5C 1616.12,126.461 1644.12,117.295 1672.5,109C 1768.16,104.159 1863.83,99.8257 1959.5,96C 1971.09,104.378 1982.59,112.878 1994,121.5C 1996.2,138.7 1997.37,155.867 1997.5,173C 1994.57,174.145 1991.57,174.978 1988.5,175.5 Z"/></g>
<g><path style="opacity:1" fill="#151c1f" d="M 1987.5,172.5 C 1984.18,158.901 1980.68,145.234 1977,131.5C 1968.15,124.84 1959.65,117.84 1951.5,110.5C 1953.78,109.61 1956.12,109.444 1958.5,110C 1967.42,116.378 1976.26,122.878 1985,129.5C 1985.96,143.831 1986.79,158.164 1987.5,172.5 Z"/></g>
<g><path style="opacity:1" fill="#7d96a9" d="M 1951.5,110.5 C 1959.65,117.84 1968.15,124.84 1977,131.5C 1980.68,145.234 1984.18,158.901 1987.5,172.5C 1987.56,173.609 1987.89,174.609 1988.5,175.5C 1991.59,191.037 1994.93,206.537 1998.5,222C 1993.16,233.185 1987.66,244.351 1982,255.5C 1966.85,261.158 1951.69,266.492 1936.5,271.5C 1927.41,273.753 1918.41,276.419 1909.5,279.5C 1900.19,273.841 1891.19,267.674 1882.5,261C 1881.11,259.829 1880.27,258.329 1880,256.5C 1876.87,242.018 1873.71,227.684 1870.5,213.5C 1869.88,197.168 1869.71,180.834 1870,164.5C 1874.86,154.251 1879.53,143.917 1884,133.5C 1906.47,125.731 1928.97,118.064 1951.5,110.5 Z"/></g>
<g><path style="opacity:1" fill="#7d96a9" d="M 1857.5,166.5 C 1772.82,170.067 1688.16,173.9 1603.5,178C 1595.26,178.013 1587.26,178.847 1579.5,180.5C 1578.9,180.265 1578.57,179.765 1578.5,179C 1581.66,164.663 1585,150.497 1588.5,136.5C 1685.16,131.606 1781.83,127.106 1878.5,123C 1871.02,137.291 1864.02,151.791 1857.5,166.5 Z"/></g>
<g><path style="opacity:0.97" fill="#b2d4f1" d="M 2719.5,270.5 C 2626.47,246.091 2533.47,221.425 2440.5,196.5C 2440.17,197 2439.83,197.5 2439.5,198C 2443.55,213.029 2446.88,228.196 2449.5,243.5C 2445.9,257.141 2442.4,270.807 2439,284.5C 2438.27,287.187 2437.1,289.52 2435.5,291.5C 2433.17,290.167 2430.83,288.833 2428.5,287.5C 2428.02,286.584 2427.69,285.584 2427.5,284.5C 2431.48,269.902 2435.15,255.236 2438.5,240.5C 2436,228.843 2433.5,217.176 2431,205.5C 2410.53,193.351 2390.03,181.351 2369.5,169.5C 2368.06,168.275 2366.4,167.275 2364.5,166.5C 2353.86,170.879 2343.36,175.546 2333,180.5C 2329.03,193.377 2325.53,206.377 2322.5,219.5C 2321.8,221.629 2320.8,223.629 2319.5,225.5C 2316.57,223.355 2313.57,221.188 2310.5,219C 2315.59,203.219 2320.59,187.386 2325.5,171.5C 2339.12,164.773 2352.96,158.439 2367,152.5C 2460.14,177.411 2553.31,202.245 2646.5,227C 2670.9,241.526 2695.23,256.026 2719.5,270.5 Z"/></g>
<g><path style="opacity:1" fill="#38434b" d="M 1857.5,166.5 C 1858.44,180.486 1859.28,194.486 1860,208.5C 1859.95,211.675 1860.78,214.342 1862.5,216.5C 1860.37,217.314 1858.04,217.814 1855.5,218C 1780.17,221.633 1704.84,225.133 1629.5,228.5C 1629.5,229.833 1629.5,231.167 1629.5,232.5C 1628.71,231.391 1628.21,230.058 1628,228.5C 1618.05,230.411 1608.72,228.744 1600,223.5C 1593.16,209.145 1586.32,194.812 1579.5,180.5C 1587.26,178.847 1595.26,178.013 1603.5,178C 1688.16,173.9 1772.82,170.067 1857.5,166.5 Z"/></g>
<g><path style="opacity:1" fill="#161d20" d="M 2369.5,169.5 C 2359.65,174.342 2349.82,179.342 2340,184.5C 2334.42,196.994 2328.59,208.66 2322.5,219.5C 2325.53,206.377 2329.03,193.377 2333,180.5C 2343.36,175.546 2353.86,170.879 2364.5,166.5C 2366.4,167.275 2368.06,168.275 2369.5,169.5 Z"/></g>
<g><path style="opacity:1" fill="#7d96a9" d="M 2369.5,169.5 C 2390.03,181.351 2410.53,193.351 2431,205.5C 2433.5,217.176 2436,228.843 2438.5,240.5C 2435.15,255.236 2431.48,269.902 2427.5,284.5C 2427.69,285.584 2428.02,286.584 2428.5,287.5C 2427.62,287.369 2426.96,287.702 2426.5,288.5C 2420.11,302.515 2413.45,316.348 2406.5,330C 2396.46,334.403 2386.46,338.903 2376.5,343.5C 2368.06,338.28 2359.39,333.613 2350.5,329.5C 2338.06,321.774 2325.39,314.274 2312.5,307C 2311.01,306.255 2310.01,305.088 2309.5,303.5C 2306.42,292.019 2303.42,280.519 2300.5,269C 2306.93,254.531 2313.27,240.031 2319.5,225.5C 2320.8,223.629 2321.8,221.629 2322.5,219.5C 2328.59,208.66 2334.42,196.994 2340,184.5C 2349.82,179.342 2359.65,174.342 2369.5,169.5 Z"/></g>
<g><path style="opacity:1" fill="#7d95a9" d="M 2719.5,270.5 C 2719.83,285.676 2719.5,300.676 2718.5,315.5C 2718.39,314.883 2718.06,314.383 2717.5,314C 2628.23,290.182 2538.89,266.682 2449.5,243.5C 2446.88,228.196 2443.55,213.029 2439.5,198C 2439.83,197.5 2440.17,197 2440.5,196.5C 2533.47,221.425 2626.47,246.091 2719.5,270.5 Z"/></g>
<g><path style="opacity:0.997" fill="#11181a" d="M 1870.5,213.5 C 1873.71,227.684 1876.87,242.018 1880,256.5C 1880.27,258.329 1881.11,259.829 1882.5,261C 1891.19,267.674 1900.19,273.841 1909.5,279.5C 1918.41,276.419 1927.41,273.753 1936.5,271.5C 1937.14,273.46 1937.14,275.293 1936.5,277C 1926.44,280.077 1916.44,283.244 1906.5,286.5C 1897.88,288.097 1889.54,290.597 1881.5,294C 1866.33,294.683 1851.33,295.517 1836.5,296.5C 1825.51,297.237 1814.51,297.903 1803.5,298.5C 1802.83,294.167 1802.17,289.833 1801.5,285.5C 1756.14,287.801 1710.81,289.968 1665.5,292C 1656.14,284.658 1646.8,277.324 1637.5,270C 1634.43,257.573 1631.77,245.073 1629.5,232.5C 1629.5,231.167 1629.5,229.833 1629.5,228.5C 1704.84,225.133 1780.17,221.633 1855.5,218C 1858.04,217.814 1860.37,217.314 1862.5,216.5C 1865.16,215.501 1867.83,214.501 1870.5,213.5 Z"/></g>
<g><path style="opacity:1" fill="#38434b" d="M 2449.5,243.5 C 2538.89,266.682 2628.23,290.182 2717.5,314C 2718.06,314.383 2718.39,314.883 2718.5,315.5C 2708.88,328.129 2699.21,340.796 2689.5,353.5C 2679.83,356.494 2670.33,356.16 2661,352.5C 2660.72,353.416 2660.22,354.082 2659.5,354.5C 2659.24,352.224 2657.91,351.057 2655.5,351C 2581.74,332.014 2508.41,312.181 2435.5,291.5C 2437.1,289.52 2438.27,287.187 2439,284.5C 2442.4,270.807 2445.9,257.141 2449.5,243.5 Z"/></g>
<g><path style="opacity:0.97" fill="#b2d4f1" d="M 1604.5,344.5 C 1603.2,342.629 1602.2,340.629 1601.5,338.5C 1598.47,325.377 1594.97,312.377 1591,299.5C 1580.57,294.705 1570.07,290.038 1559.5,285.5C 1557.6,286.275 1555.94,287.275 1554.5,288.5C 1533.97,300.351 1513.47,312.351 1493,324.5C 1490.5,336.176 1488,347.843 1485.5,359.5C 1488.85,374.236 1492.52,388.902 1496.5,403.5C 1496.31,404.584 1495.98,405.584 1495.5,406.5C 1493.17,407.833 1490.83,409.167 1488.5,410.5C 1486.9,408.52 1485.73,406.187 1485,403.5C 1481.6,389.807 1478.1,376.141 1474.5,362.5C 1477.12,347.196 1480.45,332.029 1484.5,317C 1484.17,316.5 1483.83,316 1483.5,315.5C 1390.52,340.328 1297.52,364.995 1204.5,389.5C 1228.77,375.026 1253.1,360.526 1277.5,346C 1370.69,321.245 1463.86,296.411 1557,271.5C 1571.04,277.439 1584.88,283.773 1598.5,290.5C 1603.41,306.386 1608.41,322.219 1613.5,338C 1610.43,340.188 1607.43,342.355 1604.5,344.5 Z"/></g>
<g><path style="opacity:1" fill="#151d1f" d="M 1601.5,338.5 C 1595.41,327.66 1589.58,315.994 1584,303.5C 1574.15,298.327 1564.32,293.327 1554.5,288.5C 1555.94,287.275 1557.6,286.275 1559.5,285.5C 1570.07,290.038 1580.57,294.705 1591,299.5C 1594.97,312.377 1598.47,325.377 1601.5,338.5 Z"/></g>
<g><path style="opacity:0.971" fill="#38434b" d="M 1906.5,286.5 C 1906.15,303.567 1898.15,315.234 1882.5,321.5C 1869.57,325.349 1857.9,323.016 1847.5,314.5C 1841.39,310.041 1837.72,304.041 1836.5,296.5C 1851.33,295.517 1866.33,294.683 1881.5,294C 1889.54,290.597 1897.88,288.097 1906.5,286.5 Z"/></g>
<g><path style="opacity:1" fill="#7d96a9" d="M 1554.5,288.5 C 1564.32,293.327 1574.15,298.327 1584,303.5C 1589.58,315.994 1595.41,327.66 1601.5,338.5C 1602.2,340.629 1603.2,342.629 1604.5,344.5C 1610.73,359.031 1617.07,373.531 1623.5,388C 1620.58,399.519 1617.58,411.019 1614.5,422.5C 1613.99,424.088 1612.99,425.255 1611.5,426C 1598.61,433.274 1585.94,440.774 1573.5,448.5C 1564.61,452.613 1555.94,457.28 1547.5,462.5C 1537.17,457.833 1526.83,453.167 1516.5,448.5C 1510.36,434.758 1504.03,421.092 1497.5,407.5C 1497.04,406.702 1496.38,406.369 1495.5,406.5C 1495.98,405.584 1496.31,404.584 1496.5,403.5C 1492.52,388.902 1488.85,374.236 1485.5,359.5C 1488,347.843 1490.5,336.176 1493,324.5C 1513.47,312.351 1533.97,300.351 1554.5,288.5 Z"/></g>
<g><path style="opacity:1" fill="#7d96a9" d="M 1474.5,362.5 C 1387.44,385.019 1300.44,407.852 1213.5,431C 1210.43,431.578 1207.76,432.745 1205.5,434.5C 1204.5,419.676 1204.17,404.676 1204.5,389.5C 1297.52,364.995 1390.52,340.328 1483.5,315.5C 1483.83,316 1484.17,316.5 1484.5,317C 1480.45,332.029 1477.12,347.196 1474.5,362.5 Z"/></g>
<g><path style="opacity:0.98" fill="#7c95a7" d="M 1847.5,314.5 C 1857.9,323.016 1869.57,325.349 1882.5,321.5C 1880.54,328.013 1879.21,334.679 1878.5,341.5C 1877.18,345.042 1875.52,348.542 1873.5,352C 1862.56,357.673 1852.72,356.173 1844,347.5C 1842.23,342.916 1842.06,338.249 1843.5,333.5C 1844.58,327.107 1845.91,320.774 1847.5,314.5 Z"/></g>
<g><path style="opacity:1" fill="#12181b" d="M 2428.5,287.5 C 2430.83,288.833 2433.17,290.167 2435.5,291.5C 2508.41,312.181 2581.74,332.014 2655.5,351C 2657.91,351.057 2659.24,352.224 2659.5,354.5C 2654.57,367.037 2649.07,379.37 2643,391.5C 2632.05,396.982 2620.89,401.982 2609.5,406.5C 2566.45,394.988 2523.45,383.321 2480.5,371.5C 2478.28,375.273 2476.61,379.273 2475.5,383.5C 2464.78,381.039 2454.12,378.373 2443.5,375.5C 2429.31,371.199 2414.98,367.033 2400.5,363C 2392.81,358.125 2384.81,353.958 2376.5,350.5C 2367.39,344.774 2358.06,339.274 2348.5,334C 2349.58,332.67 2350.25,331.17 2350.5,329.5C 2359.39,333.613 2368.06,338.28 2376.5,343.5C 2386.46,338.903 2396.46,334.403 2406.5,330C 2413.45,316.348 2420.11,302.515 2426.5,288.5C 2426.96,287.702 2427.62,287.369 2428.5,287.5 Z"/></g>
<g><path style="opacity:0.971" fill="#38434b" d="M 1843.5,333.5 C 1842.06,338.249 1842.23,342.916 1844,347.5C 1852.72,356.173 1862.56,357.673 1873.5,352C 1875.52,348.542 1877.18,345.042 1878.5,341.5C 1887.29,351.676 1890.63,363.343 1888.5,376.5C 1886.46,375.969 1884.79,374.802 1883.5,373C 1875.21,371.561 1868.71,374.394 1864,381.5C 1858.25,388.435 1858.09,395.435 1863.5,402.5C 1841.13,406.57 1826.3,397.903 1819,376.5C 1815.84,355.474 1824,341.141 1843.5,333.5 Z"/></g>
<g><path style="opacity:0.974" fill="#37424a" d="M 2376.5,350.5 C 2384.81,353.958 2392.81,358.125 2400.5,363C 2414.98,367.033 2429.31,371.199 2443.5,375.5C 2440.19,382.139 2435.19,387.139 2428.5,390.5C 2416.76,396.098 2405.26,395.765 2394,389.5C 2393.6,389.728 2393.43,390.062 2393.5,390.5C 2379.27,380.815 2373.6,367.482 2376.5,350.5 Z"/></g>
<g><path style="opacity:1" fill="#38434b" d="M 1474.5,362.5 C 1478.1,376.141 1481.6,389.807 1485,403.5C 1485.73,406.187 1486.9,408.52 1488.5,410.5C 1415.59,431.181 1342.26,451.014 1268.5,470C 1266.09,470.057 1264.76,471.224 1264.5,473.5C 1263.78,473.082 1263.28,472.416 1263,471.5C 1254.06,474.956 1244.89,475.456 1235.5,473C 1229.64,465.643 1223.64,458.476 1217.5,451.5C 1213.47,445.815 1209.47,440.149 1205.5,434.5C 1207.76,432.745 1210.43,431.578 1213.5,431C 1300.44,407.852 1387.44,385.019 1474.5,362.5 Z"/></g>
<g><path style="opacity:0.968" fill="#7c95a8" d="M 1888.5,376.5 C 1911.14,396.805 1933.81,417.138 1956.5,437.5C 1938.67,438.497 1920.67,438.83 1902.5,438.5C 1890.11,425.811 1877.11,413.811 1863.5,402.5C 1858.09,395.435 1858.25,388.435 1864,381.5C 1868.71,374.394 1875.21,371.561 1883.5,373C 1884.79,374.802 1886.46,375.969 1888.5,376.5 Z"/></g>
<g><path style="opacity:0.99" fill="#7c94a7" d="M 2428.5,390.5 C 2428.5,396.833 2428.5,403.167 2428.5,409.5C 2429.64,422.36 2423.64,428.36 2410.5,427.5C 2398.67,427.787 2393.01,422.12 2393.5,410.5C 2393.5,403.833 2393.5,397.167 2393.5,390.5C 2393.43,390.062 2393.6,389.728 2394,389.5C 2405.26,395.765 2416.76,396.098 2428.5,390.5 Z"/></g>
<g><path style="opacity:0.971" fill="#38434b" d="M 2428.5,409.5 C 2447.7,423.05 2451.87,440.383 2441,461.5C 2428.36,476.988 2412.86,480.654 2394.5,472.5C 2398.84,470.018 2400.84,466.185 2400.5,461C 2399.41,451.587 2394.75,444.587 2386.5,440C 2382.82,438.973 2379.65,439.806 2377,442.5C 2376.62,441.944 2376.12,441.611 2375.5,441.5C 2376.1,427.97 2382.1,417.637 2393.5,410.5C 2393.01,422.12 2398.67,427.787 2410.5,427.5C 2423.64,428.36 2429.64,422.36 2428.5,409.5 Z"/></g>
<g><path style="opacity:1" fill="#a8c8e4" d="M 2036.5,437.5 C 2019.5,438.833 2002.5,438.833 1985.5,437.5C 1998.1,433.8 2010.6,429.8 2023,425.5C 2027.44,429.625 2031.94,433.625 2036.5,437.5 Z"/></g>
<g><path style="opacity:0.994" fill="#000000" d="M 1956.5,437.5 C 1966.17,437.5 1975.83,437.5 1985.5,437.5C 2002.5,438.833 2019.5,438.833 2036.5,437.5C 2073.17,437.333 2109.83,437.5 2146.5,438C 2205.09,439.064 2260.75,452.23 2313.5,477.5C 2313.41,478.496 2313.75,479.329 2314.5,480C 2325.49,485.493 2336.16,491.493 2346.5,498C 2347.79,498.49 2349.13,498.657 2350.5,498.5C 2422.85,547.45 2472.18,613.783 2498.5,697.5C 2497.64,696.537 2496.97,696.537 2496.5,697.5C 2500.64,711.07 2504.31,724.736 2507.5,738.5C 2508.25,746.884 2509.41,755.217 2511,763.5C 2511.28,762.584 2511.78,761.918 2512.5,761.5C 2513.52,770.81 2514.35,780.143 2515,789.5C 2515.17,843.503 2515.67,897.503 2516.5,951.5C 2565.72,977.214 2607.22,1012.21 2641,1056.5C 2653.17,1072.84 2664.34,1089.84 2674.5,1107.5C 2652.29,1102.98 2631.62,1106.65 2612.5,1118.5C 2605.92,1121.62 2600.26,1125.96 2595.5,1131.5C 2585.69,1140.46 2578.35,1151.13 2573.5,1163.5C 2560.3,1141.81 2545.14,1121.47 2528,1102.5C 2521.62,1095.62 2514.78,1089.28 2507.5,1083.5C 2468.78,1234.72 2373.62,1328.72 2222,1365.5C 2220.06,1370.38 2217.89,1375.04 2215.5,1379.5C 2213.19,1376.36 2210.36,1373.7 2207,1371.5C 2206.5,1369.53 2206.34,1367.53 2206.5,1365.5C 2204.26,1365.21 2202.26,1365.54 2200.5,1366.5C 2189.4,1367.38 2178.4,1368.71 2167.5,1370.5C 2072.83,1370.5 1978.17,1370.5 1883.5,1370.5C 1871.44,1369.07 1859.27,1367.41 1847,1365.5C 1846.24,1365.57 1845.74,1365.9 1845.5,1366.5C 1844.7,1367.95 1844.2,1369.62 1844,1371.5C 1840.6,1374.73 1837.43,1378.06 1834.5,1381.5C 1831.97,1375.61 1829.31,1369.78 1826.5,1364C 1705.39,1336.54 1618.56,1266.7 1566,1154.5C 1553.78,1126.49 1544.78,1097.49 1539,1067.5C 1503.21,1093.11 1474.71,1125.11 1453.5,1163.5C 1450.63,1157.43 1447.47,1151.43 1444,1145.5C 1440.52,1140.2 1436.35,1135.53 1431.5,1131.5C 1426.38,1125.72 1420.38,1121.05 1413.5,1117.5C 1383.05,1100.75 1353.05,1101.58 1323.5,1120C 1298.8,1135.03 1278.3,1154.53 1262,1178.5C 1237.24,1217.02 1218.74,1258.35 1206.5,1302.5C 1206.5,1198.17 1206.5,1093.83 1206.5,989.5C 1014.17,989.5 821.833,989.5 629.5,989.5C 629.5,1112.83 629.5,1236.17 629.5,1359.5C 574.167,1359.5 518.833,1359.5 463.5,1359.5C 463.5,1056.83 463.5,754.167 463.5,451.5C 518.833,451.5 574.167,451.5 629.5,451.5C 629.5,575.167 629.5,698.833 629.5,822.5C 811.5,822.5 993.5,822.5 1175.5,822.5C 1175.17,825.228 1175.84,827.562 1177.5,829.5C 1191.27,846.06 1205.27,862.393 1219.5,878.5C 1221.5,881.167 1223.5,883.833 1225.5,886.5C 1226.56,889.511 1227.73,892.511 1229,895.5C 1241.38,909.761 1253.88,923.927 1266.5,938C 1271.26,938.81 1275.92,938.476 1280.5,937C 1310.86,922.155 1341.19,907.322 1371.5,892.5C 1371.33,953.501 1371.5,1014.5 1372,1075.5C 1412.29,1014.54 1465.96,969.545 1533,940.5C 1533.5,929.505 1533.67,918.505 1533.5,907.5C 1533.5,899.833 1533.5,892.167 1533.5,884.5C 1533.5,870.833 1533.5,857.167 1533.5,843.5C 1533.5,832.833 1533.5,822.167 1533.5,811.5C 1533.73,796.317 1534.73,780.984 1536.5,765.5C 1539.38,749.56 1542.05,733.56 1544.5,717.5C 1553.25,684.239 1565.92,652.573 1582.5,622.5C 1589.02,612.646 1595.69,602.813 1602.5,593C 1601.94,592.617 1601.61,592.117 1601.5,591.5C 1666.35,505.376 1752.68,455.21 1860.5,441C 1874.44,439.171 1888.44,438.338 1902.5,438.5C 1920.67,438.83 1938.67,438.497 1956.5,437.5 Z M 1480.5,494.5 C 1483.81,501.139 1488.81,506.139 1495.5,509.5C 1495.5,515.833 1495.5,522.167 1495.5,528.5C 1476.3,542.05 1472.13,559.383 1483,580.5C 1495.64,595.988 1511.14,599.654 1529.5,591.5C 1547.37,601.596 1565.03,611.929 1582.5,622.5C 1565.92,652.573 1553.25,684.239 1544.5,717.5C 1544.17,717.5 1543.83,717.5 1543.5,717.5C 1530.55,701.374 1517.38,685.374 1504,669.5C 1503.18,668.177 1502.02,667.511 1500.5,667.5C 1495.82,667.334 1491.15,667.501 1486.5,668C 1448.14,687.18 1409.81,706.347 1371.5,725.5C 1371.5,653.833 1371.5,582.167 1371.5,510.5C 1395.39,503.858 1419.39,497.192 1443.5,490.5C 1445.72,494.273 1447.39,498.273 1448.5,502.5C 1459.22,500.039 1469.88,497.373 1480.5,494.5 Z M 1896.5,604.5 C 1982.5,604.333 2068.5,604.5 2154.5,605C 2211.64,608.162 2259.81,630.328 2299,671.5C 2327.4,706.01 2343.74,745.677 2348,790.5C 2349.12,828.65 2349.62,866.816 2349.5,905C 2349.62,943.184 2349.12,981.35 2348,1019.5C 2336.38,1114.96 2284.21,1175.13 2191.5,1200C 2180.93,1202.32 2170.27,1203.98 2159.5,1205C 2114.35,1206.12 2069.18,1206.62 2024,1206.5C 1978.82,1206.62 1933.65,1206.12 1888.5,1205C 1833.18,1200.25 1786.68,1177.75 1749,1137.5C 1718.1,1099.48 1701.76,1055.82 1700,1006.5C 1699.33,939.167 1699.33,871.833 1700,804.5C 1702.47,740.733 1727.97,688.566 1776.5,648C 1812.34,622.107 1852.34,607.607 1896.5,604.5 Z M 1533.5,811.5 C 1533.5,822.167 1533.5,832.833 1533.5,843.5C 1531.31,847.895 1529.65,852.562 1528.5,857.5C 1497.14,862.705 1465.81,868.038 1434.5,873.5C 1435.77,868.03 1437.43,862.696 1439.5,857.5C 1470.83,842.167 1502.17,826.833 1533.5,811.5 Z M 1383.5,885.5 C 1384.38,885.369 1385.04,885.702 1385.5,886.5C 1382.75,907.097 1391.75,918.764 1412.5,921.5C 1425.19,920.448 1433.86,914.115 1438.5,902.5C 1464.88,897.624 1491.21,892.624 1517.5,887.5C 1521.7,895.038 1527.03,901.704 1533.5,907.5C 1533.67,918.505 1533.5,929.505 1533,940.5C 1465.96,969.545 1412.29,1014.54 1372,1075.5C 1371.5,1014.5 1371.33,953.501 1371.5,892.5C 1375.5,890.167 1379.5,887.833 1383.5,885.5 Z"/></g>
<g><path style="opacity:0.97" fill="#7c95a8" d="M 2394.5,472.5 C 2379.8,481.181 2365.13,489.848 2350.5,498.5C 2349.13,498.657 2347.79,498.49 2346.5,498C 2336.16,491.493 2325.49,485.493 2314.5,480C 2313.75,479.329 2313.41,478.496 2313.5,477.5C 2334.5,466.002 2355.17,454.002 2375.5,441.5C 2376.12,441.611 2376.62,441.944 2377,442.5C 2379.65,439.806 2382.82,438.973 2386.5,440C 2394.75,444.587 2399.41,451.587 2400.5,461C 2400.84,466.185 2398.84,470.018 2394.5,472.5 Z"/></g>
<g><path style="opacity:1" fill="#11181a" d="M 1495.5,406.5 C 1496.38,406.369 1497.04,406.702 1497.5,407.5C 1504.03,421.092 1510.36,434.758 1516.5,448.5C 1526.83,453.167 1537.17,457.833 1547.5,462.5C 1555.94,457.28 1564.61,452.613 1573.5,448.5C 1573.75,450.17 1574.42,451.67 1575.5,453C 1565.94,458.274 1556.61,463.774 1547.5,469.5C 1539.19,472.958 1531.19,477.125 1523.5,482C 1508.83,485.414 1494.49,489.58 1480.5,494.5C 1469.88,497.373 1459.22,500.039 1448.5,502.5C 1447.39,498.273 1445.72,494.273 1443.5,490.5C 1419.39,497.192 1395.39,503.858 1371.5,510.5C 1351.89,515.82 1332.22,520.653 1312.5,525C 1301.68,520.09 1291.01,514.923 1280.5,509.5C 1274.61,497.714 1269.27,485.714 1264.5,473.5C 1264.76,471.224 1266.09,470.057 1268.5,470C 1342.26,451.014 1415.59,431.181 1488.5,410.5C 1490.83,409.167 1493.17,407.833 1495.5,406.5 Z"/></g>
<g><path style="opacity:0.998" fill="#000000" d="M 1217.5,451.5 C 1223.64,458.476 1229.64,465.643 1235.5,473C 1244.89,475.456 1254.06,474.956 1263,471.5C 1263.28,472.416 1263.78,473.082 1264.5,473.5C 1269.27,485.714 1274.61,497.714 1280.5,509.5C 1291.01,514.923 1301.68,520.09 1312.5,525C 1332.22,520.653 1351.89,515.82 1371.5,510.5C 1371.5,582.167 1371.5,653.833 1371.5,725.5C 1316.62,753.105 1261.62,780.438 1206.5,807.5C 1206.5,688.833 1206.5,570.167 1206.5,451.5C 1210.17,451.5 1213.83,451.5 1217.5,451.5 Z"/></g>
<g><path style="opacity:0.992" fill="#000000" d="M 2834.5,1360.5 C 2825.19,1316.27 2811.69,1273.27 2794,1231.5C 2778.97,1197.82 2758.47,1167.99 2732.5,1142C 2716.04,1127.7 2697.71,1116.53 2677.5,1108.5C 2677.5,1010.5 2677.5,912.5 2677.5,814.5C 2687.93,814.277 2698.27,813.444 2708.5,812C 2729.5,795.833 2750.5,779.667 2771.5,763.5C 2776.42,753.316 2781.09,742.983 2785.5,732.5C 2782.63,726.559 2779.97,720.559 2777.5,714.5C 2777.43,714.062 2777.6,713.728 2778,713.5C 2779.35,715.01 2781.02,716.01 2783,716.5C 2786.48,714.758 2789.82,712.758 2793,710.5C 2792.84,706.519 2792.34,702.519 2791.5,698.5C 2753.5,658.833 2715.5,619.167 2677.5,579.5C 2677.33,561.497 2677.5,543.497 2678,525.5C 2684.54,482.963 2709.04,458.463 2751.5,452C 2968.17,451.333 3184.83,451.333 3401.5,452C 3478.6,457.463 3533.77,494.963 3567,564.5C 3577.09,588.855 3583.09,614.188 3585,640.5C 3585.67,685.5 3585.67,730.5 3585,775.5C 3578.37,901.355 3517.54,989.188 3402.5,1039C 3364.26,1053.98 3324.59,1062.32 3283.5,1064C 3397.17,1162.33 3510.83,1260.67 3624.5,1359C 3539.17,1359.67 3453.83,1359.67 3368.5,1359C 3254.83,1260.67 3141.17,1162.33 3027.5,1064C 2987.5,1063.5 2947.5,1063.33 2907.5,1063.5C 2907.5,1008.17 2907.5,952.833 2907.5,897.5C 3033.83,897.667 3160.17,897.5 3286.5,897C 3326.77,893.277 3360.94,877.11 3389,848.5C 3406.7,827.087 3416.7,802.421 3419,774.5C 3419.67,730.167 3419.67,685.833 3419,641.5C 3417.19,628.666 3410.02,620.833 3397.5,618C 3212.83,617.5 3028.17,617.333 2843.5,617.5C 2843.5,865.167 2843.5,1112.83 2843.5,1360.5C 2840.5,1360.5 2837.5,1360.5 2834.5,1360.5 Z"/></g>
<g><path style="opacity:0.996" fill="#000000" d="M 3731.5,451.5 C 3786.5,451.5 3841.5,451.5 3896.5,451.5C 3896.33,607.834 3896.5,764.167 3897,920.5C 3897.23,985.566 3917.23,1043.57 3957,1094.5C 3988.14,1131.28 4026.64,1157.45 4072.5,1173C 4105.77,1185.23 4140.1,1192.23 4175.5,1194C 4275.17,1194.5 4374.83,1194.67 4474.5,1194.5C 4474.5,946.833 4474.5,699.167 4474.5,451.5C 4529.5,451.5 4584.5,451.5 4639.5,451.5C 4639.67,730.5 4639.5,1009.5 4639,1288.5C 4632.51,1325 4611.34,1348.16 4575.5,1358C 4504.36,1359.16 4433.2,1359.66 4362,1359.5C 4292.83,1359.33 4223.67,1359.17 4154.5,1359C 4043.32,1352.21 3946.32,1312.21 3863.5,1239C 3800.53,1178.25 3760.03,1104.75 3742,1018.5C 3736.7,992.081 3733.36,965.414 3732,938.5C 3731.5,776.167 3731.33,613.834 3731.5,451.5 Z"/></g>
<g><path style="opacity:0.993" fill="#000000" d="M 5045.5,451.5 C 5237.17,451.5 5428.83,451.5 5620.5,451.5C 5620.5,506.833 5620.5,562.167 5620.5,617.5C 5426.14,617.008 5231.81,617.508 5037.5,619C 5000.94,626.892 4977.11,648.725 4966,684.5C 4958.69,713.72 4960.35,742.387 4971,770.5C 4987.43,802.879 5013.93,820.046 5050.5,822C 5184.5,822.333 5318.5,822.667 5452.5,823C 5525.85,828.933 5588.02,858.099 5639,910.5C 5683.57,962.689 5705.07,1023.36 5703.5,1092.5C 5701.09,1226.7 5635.76,1312.87 5507.5,1351C 5492.04,1354.85 5476.37,1357.52 5460.5,1359C 5241.5,1359.5 5022.5,1359.67 4803.5,1359.5C 4803.5,1304.5 4803.5,1249.5 4803.5,1194.5C 5018.83,1194.67 5234.17,1194.5 5449.5,1194C 5497.55,1189.62 5526.38,1163.78 5536,1116.5C 5542.23,1082.63 5535.56,1051.63 5516,1023.5C 5499.28,1004.05 5478.11,992.887 5452.5,990C 5318.83,989.667 5185.17,989.333 5051.5,989C 4982.89,985.84 4923.22,961.506 4872.5,916C 4819.33,862.035 4793.66,796.869 4795.5,720.5C 4793.53,638.831 4822.53,570.665 4882.5,516C 4929.91,477.355 4984.25,455.855 5045.5,451.5 Z"/></g>
<g><path style="opacity:0.996" fill="#003cff" d="M 5742.5,451.5 C 5995.83,451.333 6249.17,451.5 6502.5,452C 6503.67,453.167 6504.83,454.333 6506,455.5C 6507.66,512.417 6507.99,569.417 6507,626.5C 6505.83,629 6504,630.833 6501.5,632C 6307.83,632.5 6114.17,632.667 5920.5,632.5C 5920.03,680.196 5920.53,727.863 5922,775.5C 5926.42,797.653 5939.92,810.153 5962.5,813C 6096.85,813.028 6231.18,813.694 6365.5,815C 6430.84,821.086 6485.34,848.252 6529,896.5C 6563.83,937.966 6581.5,985.966 6582,1040.5C 6582.67,1071.17 6582.67,1101.83 6582,1132.5C 6577.48,1209.71 6544.98,1271.88 6484.5,1319C 6450.38,1342.04 6412.72,1355.37 6371.5,1359C 6161.83,1359.67 5952.17,1359.67 5742.5,1359C 5741.07,1358.53 5739.9,1357.7 5739,1356.5C 5737.34,1298.92 5737.01,1241.25 5738,1183.5C 5739.17,1181.67 5740.67,1180.17 5742.5,1179C 5947.19,1178.99 6151.86,1178.32 6356.5,1177C 6374.15,1173.93 6386.32,1164.09 6393,1147.5C 6395.1,1141.67 6396.43,1135.67 6397,1129.5C 6397.67,1101.17 6397.67,1072.83 6397,1044.5C 6395.44,1017.94 6381.6,1002.44 6355.5,998C 6225.83,997.667 6096.17,997.333 5966.5,997C 5879.4,994.723 5813.56,956.557 5769,882.5C 5752.02,850.899 5741.68,817.233 5738,781.5C 5737.33,673.167 5737.33,564.833 5738,456.5C 5739.02,454.313 5740.52,452.646 5742.5,451.5 Z"/></g>
<g><path style="opacity:0.995" fill="#003cff" d="M 6707.5,451.5 C 6892.83,451.333 7078.17,451.5 7263.5,452C 7352.39,461.598 7415.55,506.765 7453,587.5C 7463.42,612.521 7470.09,638.521 7473,665.5C 7473.67,827.167 7473.67,988.833 7473,1150.5C 7465.09,1228.68 7427.59,1287.85 7360.5,1328C 7328.55,1344.98 7294.55,1355.32 7258.5,1359C 7074.83,1359.67 6891.17,1359.67 6707.5,1359C 6705.19,1357.36 6703.69,1355.2 6703,1352.5C 6702.33,1296.83 6702.33,1241.17 6703,1185.5C 6703.79,1183.41 6704.96,1181.58 6706.5,1180C 6884.42,1178.67 7062.42,1178 7240.5,1178C 7266.02,1178.12 7281.85,1165.95 7288,1141.5C 7289.47,1093.53 7289.97,1045.53 7289.5,997.5C 7096.83,997.667 6904.17,997.5 6711.5,997C 6707.08,996.242 6704.24,993.742 6703,989.5C 6702.33,933.5 6702.33,877.5 6703,821.5C 6704.24,817.258 6707.08,814.758 6711.5,814C 6904.17,813.5 7096.83,813.333 7289.5,813.5C 7289.97,765.8 7289.47,718.133 7288,670.5C 7284.97,653.139 7275.14,641.639 7258.5,636C 7252.61,634.355 7246.61,633.355 7240.5,633C 7062.42,632.997 6884.42,632.331 6706.5,631C 6704.96,629.421 6703.79,627.587 6703,625.5C 6702.33,569.833 6702.33,514.167 6703,458.5C 6703.9,455.767 6705.4,453.433 6707.5,451.5 Z"/></g>
<g><path style="opacity:0.998" fill="#b2d4f1" d="M 2523.5,460.5 C 2603.5,542.833 2683.5,625.167 2763.5,707.5C 2739.39,726.398 2715.05,745.064 2690.5,763.5C 2610.2,681.195 2529.53,599.195 2448.5,517.5C 2473.19,498.147 2498.19,479.147 2523.5,460.5 Z"/></g>
<g><path style="opacity:1" fill="#7d96a9" d="M 2677.5,579.5 C 2715.5,619.167 2753.5,658.833 2791.5,698.5C 2782.17,701.5 2772.83,704.5 2763.5,707.5C 2683.5,625.167 2603.5,542.833 2523.5,460.5C 2535.83,459.695 2548.16,459.528 2560.5,460C 2599,500.338 2638,540.171 2677.5,579.5 Z"/></g>
<g><path style="opacity:0.974" fill="#37424a" d="M 1547.5,469.5 C 1550.4,486.482 1544.73,499.815 1530.5,509.5C 1530.57,509.062 1530.4,508.728 1530,508.5C 1518.64,514.61 1507.14,514.943 1495.5,509.5C 1488.81,506.139 1483.81,501.139 1480.5,494.5C 1494.49,489.58 1508.83,485.414 1523.5,482C 1531.19,477.125 1539.19,472.958 1547.5,469.5 Z"/></g>
<g><path style="opacity:0.99" fill="#7c94a7" d="M 1530.5,509.5 C 1530.5,516.167 1530.5,522.833 1530.5,529.5C 1531.71,537.271 1528.71,542.438 1521.5,545C 1512.36,548.179 1504.19,546.679 1497,540.5C 1495.65,536.637 1495.15,532.637 1495.5,528.5C 1495.5,522.167 1495.5,515.833 1495.5,509.5C 1507.14,514.943 1518.64,514.61 1530,508.5C 1530.4,508.728 1530.57,509.062 1530.5,509.5 Z"/></g>
<g><path style="opacity:1" fill="#7c95a8" d="M 2448.5,517.5 C 2529.53,599.195 2610.2,681.195 2690.5,763.5C 2682.83,772.67 2675.33,782.003 2668,791.5C 2667.16,793.007 2666,793.507 2664.5,793C 2587.99,713.995 2510.99,635.495 2433.5,557.5C 2432.43,556.749 2432.26,555.749 2433,554.5C 2438.18,542.141 2443.35,529.808 2448.5,517.5 Z"/></g>
<g><path style="opacity:0.971" fill="#38434b" d="M 1495.5,528.5 C 1495.15,532.637 1495.65,536.637 1497,540.5C 1504.19,546.679 1512.36,548.179 1521.5,545C 1528.71,542.438 1531.71,537.271 1530.5,529.5C 1541.9,536.637 1547.9,546.97 1548.5,560.5C 1547.88,560.611 1547.38,560.944 1547,561.5C 1542.67,557.772 1538.17,557.605 1533.5,561C 1524.83,568.02 1521.99,576.854 1525,587.5C 1526.4,589.07 1527.9,590.404 1529.5,591.5C 1511.14,599.654 1495.64,595.988 1483,580.5C 1472.13,559.383 1476.3,542.05 1495.5,528.5 Z"/></g>
<g><path style="opacity:0.97" fill="#7c95a8" d="M 1548.5,560.5 C 1565.88,571.197 1583.55,581.53 1601.5,591.5C 1601.61,592.117 1601.94,592.617 1602.5,593C 1595.69,602.813 1589.02,612.646 1582.5,622.5C 1565.03,611.929 1547.37,601.596 1529.5,591.5C 1527.9,590.404 1526.4,589.07 1525,587.5C 1521.99,576.854 1524.83,568.02 1533.5,561C 1538.17,557.605 1542.67,557.772 1547,561.5C 1547.38,560.944 1547.88,560.611 1548.5,560.5 Z"/></g>
<g><path style="opacity:1" fill="#141b1d" d="M 2433.5,557.5 C 2510.99,635.495 2587.99,713.995 2664.5,793C 2666,793.507 2667.16,793.007 2668,791.5C 2675.33,782.003 2682.83,772.67 2690.5,763.5C 2715.05,745.064 2739.39,726.398 2763.5,707.5C 2772.83,704.5 2782.17,701.5 2791.5,698.5C 2792.34,702.519 2792.84,706.519 2793,710.5C 2789.82,712.758 2786.48,714.758 2783,716.5C 2781.02,716.01 2779.35,715.01 2778,713.5C 2777.6,713.728 2777.43,714.062 2777.5,714.5C 2776.65,712.5 2775.15,711.167 2773,710.5C 2769.68,710.756 2766.68,711.756 2764,713.5C 2766.86,729.737 2763.53,744.737 2754,758.5C 2742.34,775.841 2726.5,787.341 2706.5,793C 2695.73,795.312 2686.06,793.146 2677.5,786.5C 2675.95,787.212 2674.95,788.378 2674.5,790C 2675.54,793.121 2675.7,796.287 2675,799.5C 2673.01,800.328 2671.51,801.661 2670.5,803.5C 2668.79,805.195 2666.79,806.028 2664.5,806C 2654.3,795.965 2644.3,785.798 2634.5,775.5C 2628.89,768.222 2622.56,761.556 2615.5,755.5C 2609.5,750.167 2603.83,744.5 2598.5,738.5C 2587.5,726.833 2576.17,715.5 2564.5,704.5C 2562.5,703.167 2560.83,701.5 2559.5,699.5C 2553.56,691.889 2546.89,684.889 2539.5,678.5C 2522.17,661.833 2505.17,644.833 2488.5,627.5C 2481.22,618.554 2473.22,610.221 2464.5,602.5C 2459.87,598.37 2455.37,594.037 2451,589.5C 2444.89,578.939 2439.05,568.273 2433.5,557.5 Z"/></g>
<g><path style="opacity:0.008" fill="#4e5f6b" d="M 2464.5,602.5 C 2473.22,610.221 2481.22,618.554 2488.5,627.5C 2479.78,619.779 2471.78,611.446 2464.5,602.5 Z"/></g>
<g><path style="opacity:0.969" fill="#f8f9ff" d="M 2028.5,614.5 C 2028.5,623.833 2028.5,633.167 2028.5,642.5C 2022.14,642.407 2015.8,642.74 2009.5,643.5C 2009.66,633.959 2008.99,624.626 2007.5,615.5C 2011.57,614.046 2015.91,613.379 2020.5,613.5C 2023.36,613.503 2026.02,613.836 2028.5,614.5 Z"/></g>
<g><path style="opacity:0.976" fill="#fdfdff" d="M 2059.5,616.5 C 2057.79,625.299 2056.45,634.299 2055.5,643.5C 2052.5,643.5 2049.5,643.5 2046.5,643.5C 2044.05,642.527 2041.39,642.194 2038.5,642.5C 2038.5,636.5 2038.5,630.5 2038.5,624.5C 2038.5,621.167 2038.5,617.833 2038.5,614.5C 2039.1,613.861 2039.93,613.528 2041,613.5C 2046.48,614.213 2051.98,614.713 2057.5,615C 2058.42,615.278 2059.08,615.778 2059.5,616.5 Z"/></g>
<g><path style="opacity:0.986" fill="#0543ff" d="M 2028.5,614.5 C 2031.83,614.5 2035.17,614.5 2038.5,614.5C 2038.5,617.833 2038.5,621.167 2038.5,624.5C 2037.51,630.645 2037.18,636.978 2037.5,643.5C 2040.5,643.5 2043.5,643.5 2046.5,643.5C 2049.5,643.5 2052.5,643.5 2055.5,643.5C 2056.45,634.299 2057.79,625.299 2059.5,616.5C 2065.49,617.26 2071.49,617.927 2077.5,618.5C 2076.28,628.172 2074.94,637.838 2073.5,647.5C 2079.61,647.86 2085.61,648.86 2091.5,650.5C 2093.08,641.194 2095.41,632.194 2098.5,623.5C 2104.6,624.859 2110.6,626.526 2116.5,628.5C 2114.15,637.246 2111.48,645.913 2108.5,654.5C 2114.12,657.598 2120.12,659.932 2126.5,661.5C 2128.85,652.432 2132.19,643.766 2136.5,635.5C 2142.05,638.107 2147.71,640.44 2153.5,642.5C 2150.84,650.819 2147.34,658.819 2143,666.5C 2142.25,667.635 2142.42,668.635 2143.5,669.5C 2148.41,672.298 2153.41,674.465 2158.5,676C 2163.07,668.352 2167.73,660.852 2172.5,653.5C 2177.82,656.472 2183.15,659.472 2188.5,662.5C 2184.02,670.78 2179.02,678.78 2173.5,686.5C 2178.26,689.963 2183.1,693.296 2188,696.5C 2193.71,690.743 2198.71,684.41 2203,677.5C 2203.82,676.177 2204.98,675.511 2206.5,675.5C 2211.16,679.164 2215.82,682.831 2220.5,686.5C 2215.28,693.9 2209.44,700.9 2203,707.5C 2202.33,708.167 2202.33,708.833 2203,709.5C 2206.89,713.52 2211.05,717.186 2215.5,720.5C 2222.19,714.145 2228.85,707.812 2235.5,701.5C 2239.86,706.193 2244.19,710.859 2248.5,715.5C 2242.32,721.841 2235.66,727.674 2228.5,733C 2227.55,733.718 2227.38,734.551 2228,735.5C 2231.67,739.833 2235.33,744.167 2239,748.5C 2246.29,742.779 2253.79,737.446 2261.5,732.5C 2265.52,737.196 2269.19,742.196 2272.5,747.5C 2265.18,752.637 2257.68,757.637 2250,762.5C 2251.9,767.633 2254.4,772.633 2257.5,777.5C 2258.36,778.583 2259.36,778.749 2260.5,778C 2267.9,773.3 2275.57,769.134 2283.5,765.5C 2286.44,771.041 2289.1,776.708 2291.5,782.5C 2283.8,786.58 2275.96,790.58 2268,794.5C 2269.01,800.528 2271.17,806.195 2274.5,811.5C 2282.97,807.598 2291.63,804.265 2300.5,801.5C 2302.3,807.567 2304.3,813.567 2306.5,819.5C 2298.05,822.621 2289.38,825.455 2280.5,828C 2280.04,828.414 2279.71,828.914 2279.5,829.5C 2281.06,834.139 2282.56,838.805 2284,843.5C 2284.52,844.516 2285.35,845.182 2286.5,845.5C 2295.13,843.507 2303.8,841.84 2312.5,840.5C 2313.24,846.545 2314.24,852.545 2315.5,858.5C 2306.96,860.149 2298.29,861.816 2289.5,863.5C 2289.07,869.444 2289.07,875.444 2289.5,881.5C 2299.15,880.629 2308.82,879.963 2318.5,879.5C 2318.35,885.869 2318.68,892.203 2319.5,898.5C 2310.25,899.472 2300.92,899.805 2291.5,899.5C 2291.5,905.833 2291.5,912.167 2291.5,918.5C 2300.68,918.173 2309.68,918.507 2318.5,919.5C 2318.59,925.863 2318.26,932.196 2317.5,938.5C 2308.18,937.614 2298.85,936.948 2289.5,936.5C 2288.19,942.417 2287.52,948.417 2287.5,954.5C 2296.72,955.646 2305.72,957.312 2314.5,959.5C 2313.29,965.529 2311.96,971.529 2310.5,977.5C 2301.2,975.509 2291.86,973.509 2282.5,971.5C 2280.96,977.462 2279.62,983.462 2278.5,989.5C 2287.53,991.731 2296.2,994.731 2304.5,998.5C 2302.22,1004.06 2300.22,1009.72 2298.5,1015.5C 2289.51,1012.67 2280.68,1009.33 2272,1005.5C 2269.6,1010.88 2267.1,1016.21 2264.5,1021.5C 2273.06,1025.94 2281.39,1030.61 2289.5,1035.5C 2286.52,1040.8 2283.52,1046.13 2280.5,1051.5C 2272.53,1047.22 2264.53,1042.89 2256.5,1038.5C 2252.81,1042.86 2249.48,1047.53 2246.5,1052.5C 2253.86,1058.18 2261.2,1063.84 2268.5,1069.5C 2265.42,1074.64 2262.09,1079.64 2258.5,1084.5C 2250.89,1079.4 2243.39,1074.06 2236,1068.5C 2231.11,1072.37 2227.44,1077.04 2225,1082.5C 2232.08,1088.41 2238.58,1094.75 2244.5,1101.5C 2239.83,1105.5 2235.5,1109.83 2231.5,1114.5C 2225.04,1108.54 2218.7,1102.37 2212.5,1096C 2211.09,1095.68 2209.76,1096.02 2208.5,1097C 2204.98,1100.35 2201.65,1103.85 2198.5,1107.5C 2203.81,1113.98 2209.31,1120.31 2215,1126.5C 2215.48,1127.45 2215.65,1128.45 2215.5,1129.5C 2210.79,1133.18 2206.13,1136.84 2201.5,1140.5C 2195.81,1134.3 2190.65,1127.64 2186,1120.5C 2185.16,1118.99 2184,1118.49 2182.5,1119C 2177.82,1122.03 2173.49,1125.36 2169.5,1129C 2174.31,1136.79 2178.98,1144.62 2183.5,1152.5C 2178.17,1155.5 2172.83,1158.5 2167.5,1161.5C 2162.44,1153.73 2157.61,1145.73 2153,1137.5C 2147.55,1140.14 2142.39,1143.14 2137.5,1146.5C 2141.45,1154.74 2145.12,1163.07 2148.5,1171.5C 2142.75,1173.64 2137.08,1175.97 2131.5,1178.5C 2127.68,1171.25 2124.52,1163.58 2122,1155.5C 2121.63,1154.09 2120.8,1153.09 2119.5,1152.5C 2114.22,1154.7 2108.89,1156.7 2103.5,1158.5C 2106.62,1167.32 2108.96,1176.32 2110.5,1185.5C 2104.48,1187.17 2098.48,1188.84 2092.5,1190.5C 2090.35,1181.56 2088.35,1172.56 2086.5,1163.5C 2080.47,1163.95 2074.47,1164.62 2068.5,1165.5C 2069.51,1174.21 2070.84,1182.88 2072.5,1191.5C 2072.31,1192.58 2071.98,1193.58 2071.5,1194.5C 2065.44,1194.8 2059.44,1195.47 2053.5,1196.5C 2052.27,1187.33 2051.27,1178 2050.5,1168.5C 2044.51,1168.97 2038.51,1169.3 2032.5,1169.5C 2032.5,1178.83 2032.5,1188.17 2032.5,1197.5C 2026.12,1197.71 2019.79,1197.37 2013.5,1196.5C 2013.5,1190.83 2013.5,1185.17 2013.5,1179.5C 2014.48,1176.04 2014.81,1172.37 2014.5,1168.5C 2013.17,1168.5 2011.83,1168.5 2010.5,1168.5C 2005.49,1168.25 2000.49,1167.92 1995.5,1167.5C 1995.16,1176.91 1994.16,1186.24 1992.5,1195.5C 1986.25,1194.23 1979.91,1193.23 1973.5,1192.5C 1974.27,1183.33 1975.93,1174.33 1978.5,1165.5C 1972.81,1163.96 1967.14,1162.29 1961.5,1160.5C 1958.33,1169.55 1955.33,1178.55 1952.5,1187.5C 1946.6,1185.53 1940.6,1183.86 1934.5,1182.5C 1937.07,1173.53 1940.07,1164.69 1943.5,1156C 1937.69,1153.34 1931.69,1151.17 1925.5,1149.5C 1922.78,1158.35 1919.11,1166.68 1914.5,1174.5C 1908.71,1172.11 1903.05,1169.44 1897.5,1166.5C 1901.32,1158.86 1905.15,1151.19 1909,1143.5C 1909.75,1142.36 1909.58,1141.36 1908.5,1140.5C 1904.34,1138.59 1900.34,1136.42 1896.5,1134C 1895.5,1133.33 1894.5,1133.33 1893.5,1134C 1888.93,1141.65 1884.27,1149.15 1879.5,1156.5C 1873.9,1153.56 1868.57,1150.23 1863.5,1146.5C 1868.24,1138.69 1873.24,1131.02 1878.5,1123.5C 1874.24,1119.36 1869.57,1115.7 1864.5,1112.5C 1858.72,1119.76 1852.72,1126.76 1846.5,1133.5C 1841.83,1129.83 1837.17,1126.17 1832.5,1122.5C 1833.07,1120.74 1833.91,1119.08 1835,1117.5C 1841.29,1112.25 1846.29,1106.25 1850,1099.5C 1845.69,1096.02 1841.52,1092.35 1837.5,1088.5C 1832.68,1092.82 1828.01,1097.32 1823.5,1102C 1821.27,1103.75 1818.93,1105.25 1816.5,1106.5C 1812.47,1102.14 1808.47,1097.81 1804.5,1093.5C 1810.8,1087.04 1817.63,1081.04 1825,1075.5C 1824.96,1073.72 1824.29,1072.05 1823,1070.5C 1820.32,1066.99 1817.49,1063.66 1814.5,1060.5C 1806.82,1065.86 1799.15,1071.19 1791.5,1076.5C 1787.74,1071.42 1784.41,1066.08 1781.5,1060.5C 1788.99,1055.2 1796.66,1050.03 1804.5,1045C 1801.46,1039.75 1798.29,1034.58 1795,1029.5C 1787.04,1034.23 1778.88,1038.56 1770.5,1042.5C 1767.56,1036.96 1764.9,1031.29 1762.5,1025.5C 1770.25,1020.87 1778.42,1016.87 1787,1013.5C 1785.22,1007.91 1783.39,1002.24 1781.5,996.5C 1772.29,999.902 1762.96,1002.9 1753.5,1005.5C 1751.83,999.501 1750.17,993.501 1748.5,987.5C 1757.33,984.534 1766.33,981.701 1775.5,979C 1773.62,973.649 1772.29,968.149 1771.5,962.5C 1762.02,963.396 1752.69,965.063 1743.5,967.5C 1742.06,961.188 1740.73,954.855 1739.5,948.5C 1748.68,946.332 1758.01,944.999 1767.5,944.5C 1766.7,938.521 1766.04,932.521 1765.5,926.5C 1756.16,926.599 1746.82,926.932 1737.5,927.5C 1737.23,921.162 1736.9,914.829 1736.5,908.5C 1745.83,908.5 1755.17,908.5 1764.5,908.5C 1764.5,903.5 1764.5,898.5 1764.5,893.5C 1765.43,892.432 1765.77,891.099 1765.5,889.5C 1763.17,889.5 1760.83,889.5 1758.5,889.5C 1751.32,889.158 1744.32,888.491 1737.5,887.5C 1737.71,881.072 1738.38,874.739 1739.5,868.5C 1748.72,870.097 1758.06,871.097 1767.5,871.5C 1767.52,865.42 1768.18,859.42 1769.5,853.5C 1760.4,852.213 1751.4,850.546 1742.5,848.5C 1743.83,842.167 1745.17,835.833 1746.5,829.5C 1755.76,832.147 1765.09,834.481 1774.5,836.5C 1775.46,830.787 1777.13,825.287 1779.5,820C 1770.65,816.776 1761.98,813.276 1753.5,809.5C 1755.1,803.694 1757.1,798.027 1759.5,792.5C 1768.34,795.249 1777.01,798.582 1785.5,802.5C 1788.15,797.198 1790.82,791.864 1793.5,786.5C 1784.94,782.059 1776.61,777.392 1768.5,772.5C 1772,767.498 1775,762.165 1777.5,756.5C 1785.86,760.764 1794.02,765.43 1802,770.5C 1806.11,765.6 1809.11,760.266 1811,754.5C 1803.5,749.511 1796.33,744.178 1789.5,738.5C 1793.4,733.716 1797.07,728.716 1800.5,723.5C 1807.81,729.143 1815.15,734.809 1822.5,740.5C 1826.72,736.398 1830.72,732.065 1834.5,727.5C 1827.8,720.827 1821.13,714.16 1814.5,707.5C 1819.17,703.5 1823.5,699.167 1827.5,694.5C 1833.89,700.388 1840.22,706.554 1846.5,713C 1847.5,713.667 1848.5,713.667 1849.5,713C 1853.23,709.267 1856.9,705.6 1860.5,702C 1854.71,694.912 1849.04,687.745 1843.5,680.5C 1848.22,676.447 1853.22,672.78 1858.5,669.5C 1860.19,670.475 1861.69,671.808 1863,673.5C 1866.97,679.638 1871.14,685.638 1875.5,691.5C 1880.64,688.195 1885.64,684.695 1890.5,681C 1885.41,672.979 1880.74,664.813 1876.5,656.5C 1881.83,653.833 1887.17,651.167 1892.5,648.5C 1893.46,648.953 1894.29,649.619 1895,650.5C 1898.58,657.991 1902.41,665.324 1906.5,672.5C 1911.63,669.598 1916.96,667.265 1922.5,665.5C 1919.12,656.397 1915.45,647.397 1911.5,638.5C 1917.66,636.557 1923.66,634.224 1929.5,631.5C 1932.95,639.688 1936.12,648.021 1939,656.5C 1939.56,657.022 1940.23,657.355 1941,657.5C 1945.37,655.616 1949.87,654.116 1954.5,653C 1955.43,652.612 1956.09,651.945 1956.5,651C 1954.05,642.494 1951.72,633.994 1949.5,625.5C 1955.35,623.537 1961.35,622.204 1967.5,621.5C 1968.12,621.611 1968.62,621.944 1969,622.5C 1970.28,630.585 1971.95,638.585 1974,646.5C 1974.89,647.081 1975.89,647.415 1977,647.5C 1981.76,646.248 1986.59,645.581 1991.5,645.5C 1990.5,636.174 1989.5,626.84 1988.5,617.5C 1994.8,616.636 2001.14,615.969 2007.5,615.5C 2008.99,624.626 2009.66,633.959 2009.5,643.5C 2015.8,642.74 2022.14,642.407 2028.5,642.5C 2028.5,633.167 2028.5,623.833 2028.5,614.5 Z"/></g>
<g><path style="opacity:0.978" fill="#fbfbff" d="M 1988.5,617.5 C 1989.5,626.84 1990.5,636.174 1991.5,645.5C 1986.59,645.581 1981.76,646.248 1977,647.5C 1975.89,647.415 1974.89,647.081 1974,646.5C 1971.95,638.585 1970.28,630.585 1969,622.5C 1968.62,621.944 1968.12,621.611 1967.5,621.5C 1967.62,620.414 1968.29,619.747 1969.5,619.5C 1975.93,617.669 1982.26,617.002 1988.5,617.5 Z"/></g>
<g><path style="opacity:0.974" fill="#f9faff" d="M 2098.5,623.5 C 2095.41,632.194 2093.08,641.194 2091.5,650.5C 2085.61,648.86 2079.61,647.86 2073.5,647.5C 2074.94,637.838 2076.28,628.172 2077.5,618.5C 2077.56,617.957 2077.89,617.624 2078.5,617.5C 2084.31,618.895 2090.14,620.229 2096,621.5C 2097.38,621.684 2098.21,622.351 2098.5,623.5 Z"/></g>
<g><path style="opacity:0.973" fill="#fbfcff" d="M 1949.5,625.5 C 1951.72,633.994 1954.05,642.494 1956.5,651C 1956.09,651.945 1955.43,652.612 1954.5,653C 1949.87,654.116 1945.37,655.616 1941,657.5C 1940.23,657.355 1939.56,657.022 1939,656.5C 1936.12,648.021 1932.95,639.688 1929.5,631.5C 1932.4,629.352 1935.74,627.852 1939.5,627C 1942.39,626.369 1945.23,625.536 1948,624.5C 1948.76,624.57 1949.26,624.903 1949.5,625.5 Z"/></g>
<g><path style="opacity:0.974" fill="#f9faff" d="M 2136.5,635.5 C 2132.19,643.766 2128.85,652.432 2126.5,661.5C 2120.12,659.932 2114.12,657.598 2108.5,654.5C 2111.48,645.913 2114.15,637.246 2116.5,628.5C 2116.74,627.903 2117.24,627.57 2118,627.5C 2123.09,629.53 2128.26,631.364 2133.5,633C 2134.94,633.377 2135.94,634.21 2136.5,635.5 Z"/></g>
<g><path style="opacity:0.972" fill="#fafbff" d="M 1911.5,638.5 C 1915.45,647.397 1919.12,656.397 1922.5,665.5C 1916.96,667.265 1911.63,669.598 1906.5,672.5C 1902.41,665.324 1898.58,657.991 1895,650.5C 1894.29,649.619 1893.46,648.953 1892.5,648.5C 1892.41,647.504 1892.75,646.671 1893.5,646C 1899.6,642.718 1905.6,640.218 1911.5,638.5 Z"/></g>
<g><path style="opacity:1" fill="#9ab9ff" d="M 2038.5,624.5 C 2038.5,630.5 2038.5,636.5 2038.5,642.5C 2041.39,642.194 2044.05,642.527 2046.5,643.5C 2043.5,643.5 2040.5,643.5 2037.5,643.5C 2037.18,636.978 2037.51,630.645 2038.5,624.5 Z"/></g>
<g><path style="opacity:0.971" fill="#fafbff" d="M 2153.5,642.5 C 2159.86,644.513 2165.86,647.346 2171.5,651C 2172.25,651.671 2172.59,652.504 2172.5,653.5C 2167.73,660.852 2163.07,668.352 2158.5,676C 2153.41,674.465 2148.41,672.298 2143.5,669.5C 2142.42,668.635 2142.25,667.635 2143,666.5C 2147.34,658.819 2150.84,650.819 2153.5,642.5 Z"/></g>
<g><path style="opacity:1" fill="#0795ff" d="M 2012.5,651.5 C 2115.25,649.931 2193.75,692.265 2248,778.5C 2290.21,855.467 2293.54,934.134 2258,1014.5C 2221.63,1087.52 2163.8,1134.02 2084.5,1154C 1989.55,1172.46 1908.39,1147.29 1841,1078.5C 1781.38,1009.68 1761.71,930.679 1782,841.5C 1808.13,752.7 1864.97,693.2 1952.5,663C 1972.25,657.161 1992.25,653.327 2012.5,651.5 Z"/></g>
<g><path style="opacity:0.973" fill="#fafbff" d="M 1876.5,656.5 C 1880.74,664.813 1885.41,672.979 1890.5,681C 1885.64,684.695 1880.64,688.195 1875.5,691.5C 1871.14,685.638 1866.97,679.638 1863,673.5C 1861.69,671.808 1860.19,670.475 1858.5,669.5C 1858.51,667.983 1859.18,666.816 1860.5,666C 1865.72,662.559 1871.06,659.392 1876.5,656.5 Z"/></g>
<g><path style="opacity:0.971" fill="#fafcff" d="M 2188.5,662.5 C 2195.64,665.389 2201.64,669.722 2206.5,675.5C 2204.98,675.511 2203.82,676.177 2203,677.5C 2198.71,684.41 2193.71,690.743 2188,696.5C 2183.1,693.296 2178.26,689.963 2173.5,686.5C 2179.02,678.78 2184.02,670.78 2188.5,662.5 Z"/></g>
<g><path style="opacity:1" fill="#f9fdff" d="M 2004.5,663.5 C 2108.52,658.584 2187.36,700.251 2241,788.5C 2273.14,849.172 2279.47,912.505 2260,978.5C 2229.91,1065.26 2170.41,1120.09 2081.5,1143C 1989.03,1160.95 1910.53,1135.79 1846,1067.5C 1789.32,999.144 1772.32,921.811 1795,835.5C 1822.5,754.667 1876.67,700.5 1957.5,673C 1973.09,668.849 1988.76,665.682 2004.5,663.5 Z"/></g>
<g><path style="opacity:0.998" fill="#b2d4f1" d="M 1500.5,667.5 C 1502.02,667.511 1503.18,668.177 1504,669.5C 1517.38,685.374 1530.55,701.374 1543.5,717.5C 1435.69,771.737 1327.69,825.404 1219.5,878.5C 1205.27,862.393 1191.27,846.06 1177.5,829.5C 1285.33,775.752 1393,721.752 1500.5,667.5 Z"/></g>
<g><path style="opacity:1" fill="#7e97ab" d="M 1500.5,667.5 C 1393,721.752 1285.33,775.752 1177.5,829.5C 1175.84,827.562 1175.17,825.228 1175.5,822.5C 1185.96,817.77 1196.29,812.77 1206.5,807.5C 1261.62,780.438 1316.62,753.105 1371.5,725.5C 1409.81,706.347 1448.14,687.18 1486.5,668C 1491.15,667.501 1495.82,667.334 1500.5,667.5 Z"/></g>
<g><path style="opacity:1" fill="#0395ff" d="M 2007.5,672.5 C 2094.14,668.747 2163.97,700.747 2217,768.5C 2265.04,838.211 2274.38,912.878 2245,992.5C 2208.57,1075.58 2145.4,1124.08 2055.5,1138C 1968.04,1145.5 1896.88,1115.34 1842,1047.5C 1795.36,983 1783.03,912.334 1805,835.5C 1831.17,760 1882,709.167 1957.5,683C 1974,678.002 1990.66,674.502 2007.5,672.5 Z"/></g>
<g><path style="opacity:0.97" fill="#fafbff" d="M 1843.5,680.5 C 1849.04,687.745 1854.71,694.912 1860.5,702C 1856.9,705.6 1853.23,709.267 1849.5,713C 1848.5,713.667 1847.5,713.667 1846.5,713C 1840.22,706.554 1833.89,700.388 1827.5,694.5C 1828.54,691.944 1830.21,689.777 1832.5,688C 1836,685.167 1839.5,682.333 1843,679.5C 1843.4,679.728 1843.57,680.062 1843.5,680.5 Z"/></g>
<g><path style="opacity:0.008" fill="#4f606d" d="M 2539.5,678.5 C 2546.89,684.889 2553.56,691.889 2559.5,699.5C 2552.11,693.111 2545.44,686.111 2539.5,678.5 Z"/></g>
<g><path style="opacity:0.971" fill="#fbfcff" d="M 2220.5,686.5 C 2226.26,690.757 2231.59,695.59 2236.5,701C 2236.27,701.399 2235.94,701.565 2235.5,701.5C 2228.85,707.812 2222.19,714.145 2215.5,720.5C 2211.05,717.186 2206.89,713.52 2203,709.5C 2202.33,708.833 2202.33,708.167 2203,707.5C 2209.44,700.9 2215.28,693.9 2220.5,686.5 Z"/></g>
<g><path style="opacity:1" fill="#fdfdff" d="M 2220.5,847.5 C 2217.93,847.855 2215.43,848.521 2213,849.5C 2201.32,817.153 2183.15,788.986 2158.5,765C 2133.47,742.481 2104.47,727.314 2071.5,719.5C 2071.37,716.43 2071.7,713.43 2072.5,710.5C 2074.91,702.769 2076.58,694.769 2077.5,686.5C 2158.19,707.695 2213.03,757.362 2242,835.5C 2242.8,837.259 2242.63,838.926 2241.5,840.5C 2234.33,842.668 2227.33,845.002 2220.5,847.5 Z"/></g>
<g><path style="opacity:1" fill="#0142fe" d="M 2072.5,710.5 C 2071.7,713.43 2071.37,716.43 2071.5,719.5C 2104.47,727.314 2133.47,742.481 2158.5,765C 2183.15,788.986 2201.32,817.153 2213,849.5C 2215.43,848.521 2217.93,847.855 2220.5,847.5C 2239.13,915.629 2226.96,977.629 2184,1033.5C 2130.96,1093.58 2064.79,1116.75 1985.5,1103C 1903.57,1081.41 1852.07,1029.57 1831,947.5C 1817.85,872.954 1838.35,809.454 1892.5,757C 1944.79,711.428 2004.79,695.928 2072.5,710.5 Z"/></g>
<g><path style="opacity:0.971" fill="#7c95a8" d="M 2498.5,697.5 C 2500.05,700.94 2501.89,704.273 2504,707.5C 2524.27,706.699 2544.44,705.699 2564.5,704.5C 2576.17,715.5 2587.5,726.833 2598.5,738.5C 2573.49,738.393 2548.49,738.726 2523.5,739.5C 2518.26,738.551 2512.93,738.218 2507.5,738.5C 2504.31,724.736 2500.64,711.07 2496.5,697.5C 2496.97,696.537 2497.64,696.537 2498.5,697.5 Z"/></g>
<g><path style="opacity:0.972" fill="#fafbff" d="M 1814.5,707.5 C 1821.13,714.16 1827.8,720.827 1834.5,727.5C 1830.72,732.065 1826.72,736.398 1822.5,740.5C 1815.15,734.809 1807.81,729.143 1800.5,723.5C 1803.04,718.783 1806.2,714.449 1810,710.5C 1811.13,708.859 1812.63,707.859 1814.5,707.5 Z"/></g>
<g><path style="opacity:1" fill="#7b94a7" d="M 2777.5,714.5 C 2779.97,720.559 2782.63,726.559 2785.5,732.5C 2781.09,742.983 2776.42,753.316 2771.5,763.5C 2750.5,779.667 2729.5,795.833 2708.5,812C 2698.27,813.444 2687.93,814.277 2677.5,814.5C 2674.81,811.124 2672.47,807.457 2670.5,803.5C 2671.51,801.661 2673.01,800.328 2675,799.5C 2675.7,796.287 2675.54,793.121 2674.5,790C 2674.95,788.378 2675.95,787.212 2677.5,786.5C 2686.06,793.146 2695.73,795.312 2706.5,793C 2726.5,787.341 2742.34,775.841 2754,758.5C 2763.53,744.737 2766.86,729.737 2764,713.5C 2766.68,711.756 2769.68,710.756 2773,710.5C 2775.15,711.167 2776.65,712.5 2777.5,714.5 Z"/></g>
<g><path style="opacity:0.974" fill="#fafbff" d="M 2248.5,715.5 C 2250.02,715.511 2251.18,716.177 2252,717.5C 2255.14,722.271 2258.64,726.771 2262.5,731C 2261.94,731.383 2261.61,731.883 2261.5,732.5C 2253.79,737.446 2246.29,742.779 2239,748.5C 2235.33,744.167 2231.67,739.833 2228,735.5C 2227.38,734.551 2227.55,733.718 2228.5,733C 2235.66,727.674 2242.32,721.841 2248.5,715.5 Z"/></g>
<g><path style="opacity:1" fill="#7c95a8" d="M 1543.5,717.5 C 1543.83,717.5 1544.17,717.5 1544.5,717.5C 1542.05,733.56 1539.38,749.56 1536.5,765.5C 1440.55,813.473 1344.55,861.473 1248.5,909.5C 1241.54,902.922 1235.04,895.922 1229,888.5C 1228.18,887.177 1227.02,886.511 1225.5,886.5C 1223.5,883.833 1221.5,881.167 1219.5,878.5C 1327.69,825.404 1435.69,771.737 1543.5,717.5 Z"/></g>
<g><path style="opacity:1" fill="#020303" d="M 2747.5,725.5 C 2749.98,731.59 2749.82,737.923 2747,744.5C 2735.04,767.39 2716.21,778.89 2690.5,779C 2688.38,778.74 2686.72,777.74 2685.5,776C 2688.17,772.667 2690.83,769.333 2693.5,766C 2711.75,752.723 2729.75,739.223 2747.5,725.5 Z"/></g>
<g><path style="opacity:1" fill="#07dcff" d="M 2035.5,728.5 C 2048.34,728.867 2061,730.534 2073.5,733.5C 2072.43,737.629 2071.43,741.796 2070.5,746C 2070.65,747.256 2070.98,748.423 2071.5,749.5C 2069.25,749.064 2067.09,748.397 2065,747.5C 2063.43,752.593 2061.93,757.593 2060.5,762.5C 2059.35,760.175 2057.35,759.008 2054.5,759C 2045.88,757.616 2037.21,756.783 2028.5,756.5C 2028.5,747.167 2028.5,737.833 2028.5,728.5C 2030.83,728.5 2033.17,728.5 2035.5,728.5 Z"/></g>
<g><path style="opacity:1" fill="#02dcff" d="M 1977.5,734.5 C 1979.17,734.5 1980.83,734.5 1982.5,734.5C 1984.82,743.437 1986.65,752.437 1988,761.5C 1949.19,773.664 1919.19,796.998 1898,831.5C 1889.92,826.541 1881.75,821.707 1873.5,817C 1898.18,776.838 1932.84,749.338 1977.5,734.5 Z"/></g>
<g><path style="opacity:0.974" fill="#fafbff" d="M 1789.5,738.5 C 1796.33,744.178 1803.5,749.511 1811,754.5C 1809.11,760.266 1806.11,765.6 1802,770.5C 1794.02,765.43 1785.86,760.764 1777.5,756.5C 1780.39,749.637 1784.39,743.637 1789.5,738.5 Z"/></g>
<g><path style="opacity:1" fill="#aacae6" d="M 2507.5,738.5 C 2512.93,738.218 2518.26,738.551 2523.5,739.5C 2520.36,747.117 2516.69,754.45 2512.5,761.5C 2511.78,761.918 2511.28,762.584 2511,763.5C 2509.41,755.217 2508.25,746.884 2507.5,738.5 Z"/></g>
<g><path style="opacity:1" fill="#05a6ff" d="M 2035.5,728.5 C 2033.17,728.5 2030.83,728.5 2028.5,728.5C 2028.5,737.833 2028.5,747.167 2028.5,756.5C 2027.51,747.014 2027.17,737.348 2027.5,727.5C 2030.39,727.194 2033.05,727.527 2035.5,728.5 Z"/></g>
<g><path style="opacity:0.973" fill="#fafbff" d="M 2272.5,747.5 C 2274.07,747.937 2275.24,748.937 2276,750.5C 2278.71,755.416 2281.54,760.249 2284.5,765C 2284.27,765.399 2283.94,765.565 2283.5,765.5C 2275.57,769.134 2267.9,773.3 2260.5,778C 2259.36,778.749 2258.36,778.583 2257.5,777.5C 2254.4,772.633 2251.9,767.633 2250,762.5C 2257.68,757.637 2265.18,752.637 2272.5,747.5 Z"/></g>
<g><path style="opacity:1" fill="#fdfefe" d="M 2071.5,749.5 C 2084.55,752.738 2096.88,757.738 2108.5,764.5C 2144.86,786.207 2169.86,817.207 2183.5,857.5C 2179.44,859.181 2175.44,860.847 2171.5,862.5C 2165.41,863.855 2159.41,865.522 2153.5,867.5C 2111.83,880.332 2070.16,892.999 2028.5,905.5C 2037.58,863.115 2046.91,820.782 2056.5,778.5C 2058.12,773.349 2059.45,768.016 2060.5,762.5C 2061.93,757.593 2063.43,752.593 2065,747.5C 2067.09,748.397 2069.25,749.064 2071.5,749.5 Z"/></g>
<g><path style="opacity:1" fill="#0adcff" d="M 2171.5,862.5 C 2175.44,860.847 2179.44,859.181 2183.5,857.5C 2169.86,817.207 2144.86,786.207 2108.5,764.5C 2111.31,760.232 2114.14,755.898 2117,751.5C 2157.77,776.444 2185.27,811.777 2199.5,857.5C 2199.18,858.647 2198.52,859.481 2197.5,860C 2189.66,862.085 2181.83,864.252 2174,866.5C 2171.98,865.968 2171.15,864.635 2171.5,862.5 Z"/></g>
<g><path style="opacity:0.008" fill="#4f606d" d="M 2615.5,755.5 C 2622.56,761.556 2628.89,768.222 2634.5,775.5C 2627.44,769.444 2621.11,762.778 2615.5,755.5 Z"/></g>
<g><path style="opacity:1" fill="#11181a" d="M 1536.5,765.5 C 1534.73,780.984 1533.73,796.317 1533.5,811.5C 1502.17,826.833 1470.83,842.167 1439.5,857.5C 1428.37,862.563 1417.37,867.897 1406.5,873.5C 1398.64,877.261 1390.97,881.261 1383.5,885.5C 1379.5,887.833 1375.5,890.167 1371.5,892.5C 1341.19,907.322 1310.86,922.155 1280.5,937C 1275.92,938.476 1271.26,938.81 1266.5,938C 1253.88,923.927 1241.38,909.761 1229,895.5C 1227.73,892.511 1226.56,889.511 1225.5,886.5C 1227.02,886.511 1228.18,887.177 1229,888.5C 1235.04,895.922 1241.54,902.922 1248.5,909.5C 1344.55,861.473 1440.55,813.473 1536.5,765.5 Z"/></g>
<g><path style="opacity:0.974" fill="#fafbff" d="M 1768.5,772.5 C 1776.61,777.392 1784.94,782.059 1793.5,786.5C 1790.82,791.864 1788.15,797.198 1785.5,802.5C 1777.01,798.582 1768.34,795.249 1759.5,792.5C 1760.41,788.002 1761.91,783.668 1764,779.5C 1765.03,776.761 1766.53,774.428 1768.5,772.5 Z"/></g>
<g><path style="opacity:1" fill="#1a1a1a" d="M 2056.5,778.5 C 2046.91,820.782 2037.58,863.115 2028.5,905.5C 2070.16,892.999 2111.83,880.332 2153.5,867.5C 2166.9,920.436 2154.23,965.936 2115.5,1004C 2080.06,1033.27 2039.73,1042.94 1994.5,1033C 1944.17,1017.67 1912.67,984.505 1900,933.5C 1889.95,868.444 1913.45,819.944 1970.5,788C 1998.07,775.072 2026.73,771.905 2056.5,778.5 Z"/></g>
<g><path style="opacity:0.977" fill="#fbfcff" d="M 2291.5,782.5 C 2296.19,787.857 2299.19,794.19 2300.5,801.5C 2291.63,804.265 2282.97,807.598 2274.5,811.5C 2271.17,806.195 2269.01,800.528 2268,794.5C 2275.96,790.58 2283.8,786.58 2291.5,782.5 Z"/></g>
<g><path style="opacity:0.974" fill="#fafbff" d="M 1753.5,809.5 C 1761.98,813.276 1770.65,816.776 1779.5,820C 1777.13,825.287 1775.46,830.787 1774.5,836.5C 1765.09,834.481 1755.76,832.147 1746.5,829.5C 1747.29,823.685 1748.79,817.685 1751,811.5C 1751.42,810.244 1752.25,809.577 1753.5,809.5 Z"/></g>
<g><path style="opacity:0.975" fill="#f9faff" d="M 2306.5,819.5 C 2309.68,826.058 2311.68,833.058 2312.5,840.5C 2303.8,841.84 2295.13,843.507 2286.5,845.5C 2285.35,845.182 2284.52,844.516 2284,843.5C 2282.56,838.805 2281.06,834.139 2279.5,829.5C 2279.71,828.914 2280.04,828.414 2280.5,828C 2289.38,825.455 2298.05,822.621 2306.5,819.5 Z"/></g>
<g><path style="opacity:0.979" fill="#f9fbff" d="M 1742.5,848.5 C 1751.4,850.546 1760.4,852.213 1769.5,853.5C 1768.18,859.42 1767.52,865.42 1767.5,871.5C 1758.06,871.097 1748.72,870.097 1739.5,868.5C 1738.76,868.631 1738.09,868.464 1737.5,868C 1738.85,861.909 1740.01,855.743 1741,849.5C 1741.38,848.944 1741.88,848.611 1742.5,848.5 Z"/></g>
<g><path style="opacity:0.966" fill="#7d96a9" d="M 1533.5,843.5 C 1533.5,857.167 1533.5,870.833 1533.5,884.5C 1527.99,884.735 1522.66,885.735 1517.5,887.5C 1491.21,892.624 1464.88,897.624 1438.5,902.5C 1441.03,893.118 1439.36,884.618 1433.5,877C 1426.69,883.468 1419.02,884.134 1410.5,879C 1408.54,877.549 1407.2,875.716 1406.5,873.5C 1417.37,867.897 1428.37,862.563 1439.5,857.5C 1437.43,862.696 1435.77,868.03 1434.5,873.5C 1465.81,868.038 1497.14,862.705 1528.5,857.5C 1529.65,852.562 1531.31,847.895 1533.5,843.5 Z"/></g>
<g><path style="opacity:0.975" fill="#f9faff" d="M 2315.5,858.5 C 2316.22,858.918 2316.72,859.584 2317,860.5C 2317.76,866.353 2318.59,872.186 2319.5,878C 2319.43,878.765 2319.1,879.265 2318.5,879.5C 2308.82,879.963 2299.15,880.629 2289.5,881.5C 2289.07,875.444 2289.07,869.444 2289.5,863.5C 2298.29,861.816 2306.96,860.149 2315.5,858.5 Z"/></g>
<g><path style="opacity:1" fill="#01dcff" d="M 1855.5,860.5 C 1865.06,862.554 1874.39,865.221 1883.5,868.5C 1880.04,880.911 1878.37,893.578 1878.5,906.5C 1869.17,906.5 1859.83,906.5 1850.5,906.5C 1850.33,898.826 1850.5,891.159 1851,883.5C 1852.09,875.731 1853.59,868.064 1855.5,860.5 Z"/></g>
<g><path style="opacity:0.972" fill="#38434b" d="M 1406.5,873.5 C 1407.2,875.716 1408.54,877.549 1410.5,879C 1419.02,884.134 1426.69,883.468 1433.5,877C 1439.36,884.618 1441.03,893.118 1438.5,902.5C 1433.86,914.115 1425.19,920.448 1412.5,921.5C 1391.75,918.764 1382.75,907.097 1385.5,886.5C 1385.04,885.702 1384.38,885.369 1383.5,885.5C 1390.97,881.261 1398.64,877.261 1406.5,873.5 Z"/></g>
<g><path style="opacity:1" fill="#afd1ed" d="M 1533.5,884.5 C 1533.5,892.167 1533.5,899.833 1533.5,907.5C 1527.03,901.704 1521.7,895.038 1517.5,887.5C 1522.66,885.735 1527.99,884.735 1533.5,884.5 Z"/></g>
<g><path style="opacity:0.966" fill="#f9fbff" d="M 1737.5,887.5 C 1744.32,888.491 1751.32,889.158 1758.5,889.5C 1760.26,890.461 1762.26,890.795 1764.5,890.5C 1764.5,891.5 1764.5,892.5 1764.5,893.5C 1764.5,898.5 1764.5,903.5 1764.5,908.5C 1755.17,908.5 1745.83,908.5 1736.5,908.5C 1735.84,905.686 1735.5,902.686 1735.5,899.5C 1735.28,895.203 1735.94,891.203 1737.5,887.5 Z"/></g>
<g><path style="opacity:1" fill="#9bbbff" d="M 1758.5,889.5 C 1760.83,889.5 1763.17,889.5 1765.5,889.5C 1765.77,891.099 1765.43,892.432 1764.5,893.5C 1764.5,892.5 1764.5,891.5 1764.5,890.5C 1762.26,890.795 1760.26,890.461 1758.5,889.5 Z"/></g>
<g><path style="opacity:0.963" fill="#fcfdff" d="M 2319.5,898.5 C 2320.17,901.817 2320.5,905.317 2320.5,909C 2320.49,912.902 2319.82,916.402 2318.5,919.5C 2309.68,918.507 2300.68,918.173 2291.5,918.5C 2291.5,912.167 2291.5,905.833 2291.5,899.5C 2300.92,899.805 2310.25,899.472 2319.5,898.5 Z"/></g>
<g><path style="opacity:1" fill="#04dbff" d="M 2177.5,905.5 C 2186.83,905.5 2196.17,905.5 2205.5,905.5C 2205.73,921.061 2204.07,936.394 2200.5,951.5C 2190.66,949.879 2181.32,947.046 2172.5,943C 2175.61,930.695 2177.28,918.195 2177.5,905.5 Z"/></g>
<g><path style="opacity:0.98" fill="#fafbff" d="M 1739.5,948.5 C 1737.96,942.899 1736.96,937.065 1736.5,931C 1736.51,929.615 1736.85,928.449 1737.5,927.5C 1746.82,926.932 1756.16,926.599 1765.5,926.5C 1766.04,932.521 1766.7,938.521 1767.5,944.5C 1758.01,944.999 1748.68,946.332 1739.5,948.5 Z"/></g>
<g><path style="opacity:0.976" fill="#f9fbff" d="M 2317.5,938.5 C 2318.14,939.097 2318.47,939.93 2318.5,941C 2317.71,946.505 2316.87,952.005 2316,957.5C 2315.72,958.416 2315.22,959.082 2314.5,959.5C 2305.72,957.312 2296.72,955.646 2287.5,954.5C 2287.52,948.417 2288.19,942.417 2289.5,936.5C 2298.85,936.948 2308.18,937.614 2317.5,938.5 Z"/></g>
<g><path style="opacity:1" fill="#02dcff" d="M 1878.5,945.5 C 1880.5,945.5 1882.5,945.5 1884.5,945.5C 1895.48,984.801 1918.48,1014.8 1953.5,1035.5C 1948.67,1043.83 1943.83,1052.17 1939,1060.5C 1896.91,1035.24 1869.41,998.909 1856.5,951.5C 1864.1,950.072 1871.43,948.072 1878.5,945.5 Z"/></g>
<g><path style="opacity:0.977" fill="#fafbff" d="M 1748.5,987.5 C 1746.6,985.731 1745.44,983.398 1745,980.5C 1744.1,976.848 1743.27,973.181 1742.5,969.5C 1742.54,968.584 1742.88,967.917 1743.5,967.5C 1752.69,965.063 1762.02,963.396 1771.5,962.5C 1772.29,968.149 1773.62,973.649 1775.5,979C 1766.33,981.701 1757.33,984.534 1748.5,987.5 Z"/></g>
<g><path style="opacity:0.975" fill="#f8faff" d="M 2310.5,977.5 C 2311.1,977.735 2311.43,978.235 2311.5,979C 2309.82,985.898 2307.48,992.398 2304.5,998.5C 2296.2,994.731 2287.53,991.731 2278.5,989.5C 2279.62,983.462 2280.96,977.462 2282.5,971.5C 2291.86,973.509 2301.2,975.509 2310.5,977.5 Z"/></g>
<g><path style="opacity:1" fill="#01dcff" d="M 2157.5,980.5 C 2166.11,984.805 2174.44,989.638 2182.5,995C 2157.33,1036.66 2121.33,1064.16 2074.5,1077.5C 2072.17,1068.18 2069.84,1058.85 2067.5,1049.5C 2106.81,1038.51 2136.81,1015.51 2157.5,980.5 Z"/></g>
<g><path style="opacity:0.973" fill="#f9faff" d="M 1762.5,1025.5 C 1757.99,1019.71 1754.99,1013.04 1753.5,1005.5C 1762.96,1002.9 1772.29,999.902 1781.5,996.5C 1783.39,1002.24 1785.22,1007.91 1787,1013.5C 1778.42,1016.87 1770.25,1020.87 1762.5,1025.5 Z"/></g>
<g><path style="opacity:0.973" fill="#fbfcff" d="M 2298.5,1015.5 C 2296.55,1022.73 2293.55,1029.4 2289.5,1035.5C 2281.39,1030.61 2273.06,1025.94 2264.5,1021.5C 2267.1,1016.21 2269.6,1010.88 2272,1005.5C 2280.68,1009.33 2289.51,1012.67 2298.5,1015.5 Z"/></g>
<g><path style="opacity:0.976" fill="#fafbff" d="M 1781.5,1060.5 C 1779.38,1059.97 1777.88,1058.64 1777,1056.5C 1774.37,1052.08 1771.87,1047.58 1769.5,1043C 1769.73,1042.6 1770.06,1042.43 1770.5,1042.5C 1778.88,1038.56 1787.04,1034.23 1795,1029.5C 1798.29,1034.58 1801.46,1039.75 1804.5,1045C 1796.66,1050.03 1788.99,1055.2 1781.5,1060.5 Z"/></g>
<g><path style="opacity:0.974" fill="#fafbff" d="M 2280.5,1051.5 C 2280.94,1051.43 2281.27,1051.6 2281.5,1052C 2278.87,1056.08 2276.37,1060.25 2274,1064.5C 2272.92,1067.08 2271.09,1068.75 2268.5,1069.5C 2261.2,1063.84 2253.86,1058.18 2246.5,1052.5C 2249.48,1047.53 2252.81,1042.86 2256.5,1038.5C 2264.53,1042.89 2272.53,1047.22 2280.5,1051.5 Z"/></g>
<g><path style="opacity:1" fill="#03dbff" d="M 1988.5,1050.5 C 2001.59,1054.04 2014.92,1055.7 2028.5,1055.5C 2028.5,1064.83 2028.5,1074.17 2028.5,1083.5C 2012.86,1084.45 1997.52,1082.79 1982.5,1078.5C 1984.29,1069.12 1986.29,1059.79 1988.5,1050.5 Z"/></g>
<g><path style="opacity:0.976" fill="#fafbff" d="M 1804.5,1093.5 C 1799.02,1088.69 1794.69,1083.03 1791.5,1076.5C 1799.15,1071.19 1806.82,1065.86 1814.5,1060.5C 1817.49,1063.66 1820.32,1066.99 1823,1070.5C 1824.29,1072.05 1824.96,1073.72 1825,1075.5C 1817.63,1081.04 1810.8,1087.04 1804.5,1093.5 Z"/></g>
<g><path style="opacity:0.973" fill="#fafcff" d="M 2258.5,1084.5 C 2255.01,1091.17 2250.34,1096.83 2244.5,1101.5C 2238.58,1094.75 2232.08,1088.41 2225,1082.5C 2227.44,1077.04 2231.11,1072.37 2236,1068.5C 2243.39,1074.06 2250.89,1079.4 2258.5,1084.5 Z"/></g>
<g><path style="opacity:0.971" fill="#fbfcff" d="M 1832.5,1122.5 C 1826.17,1118.17 1820.83,1112.83 1816.5,1106.5C 1818.93,1105.25 1821.27,1103.75 1823.5,1102C 1828.01,1097.32 1832.68,1092.82 1837.5,1088.5C 1841.52,1092.35 1845.69,1096.02 1850,1099.5C 1846.29,1106.25 1841.29,1112.25 1835,1117.5C 1833.91,1119.08 1833.07,1120.74 1832.5,1122.5 Z"/></g>
<g><path style="opacity:0.971" fill="#fbfcff" d="M 2231.5,1114.5 C 2227.45,1120.88 2222.12,1125.88 2215.5,1129.5C 2215.65,1128.45 2215.48,1127.45 2215,1126.5C 2209.31,1120.31 2203.81,1113.98 2198.5,1107.5C 2201.65,1103.85 2204.98,1100.35 2208.5,1097C 2209.76,1096.02 2211.09,1095.68 2212.5,1096C 2218.7,1102.37 2225.04,1108.54 2231.5,1114.5 Z"/></g>
<g><path style="opacity:0.998" fill="#9ea6b1" d="M 1413.5,1117.5 C 1421.64,1138.41 1424.47,1160.07 1422,1182.5C 1420.44,1194.18 1418.78,1205.85 1417,1217.5C 1400.86,1285.38 1382.86,1352.72 1363,1419.5C 1340.92,1433.79 1318.75,1447.96 1296.5,1462C 1272.59,1475.53 1247.26,1485.53 1220.5,1492C 1207.08,1493.84 1193.74,1495.01 1180.5,1495.5C 1178.12,1487.81 1177.12,1479.81 1177.5,1471.5C 1181.23,1414.13 1190.89,1357.8 1206.5,1302.5C 1218.74,1258.35 1237.24,1217.02 1262,1178.5C 1278.3,1154.53 1298.8,1135.03 1323.5,1120C 1353.05,1101.58 1383.05,1100.75 1413.5,1117.5 Z"/></g>
<g><path style="opacity:0.999" fill="#9ea6b1" d="M 2674.5,1107.5 C 2675.39,1108.11 2676.39,1108.44 2677.5,1108.5C 2697.71,1116.53 2716.04,1127.7 2732.5,1142C 2758.47,1167.99 2778.97,1197.82 2794,1231.5C 2811.69,1273.27 2825.19,1316.27 2834.5,1360.5C 2841.51,1397.39 2846.51,1434.55 2849.5,1472C 2849.15,1480.8 2847.82,1489.3 2845.5,1497.5C 2803.43,1495.21 2764.1,1483.04 2727.5,1461C 2705.92,1447.29 2684.42,1433.46 2663,1419.5C 2644.9,1356.78 2627.9,1293.78 2612,1230.5C 2609.56,1216.85 2607.23,1203.18 2605,1189.5C 2604.33,1175.5 2604.33,1161.5 2605,1147.5C 2606.33,1137.51 2608.83,1127.84 2612.5,1118.5C 2631.62,1106.65 2652.29,1102.98 2674.5,1107.5 Z"/></g>
<g><path style="opacity:0.973" fill="#fafbff" d="M 1863.5,1146.5 C 1863.57,1146.94 1863.4,1147.27 1863,1147.5C 1858.5,1144.33 1854,1141.17 1849.5,1138C 1847.86,1136.87 1846.86,1135.37 1846.5,1133.5C 1852.72,1126.76 1858.72,1119.76 1864.5,1112.5C 1869.57,1115.7 1874.24,1119.36 1878.5,1123.5C 1873.24,1131.02 1868.24,1138.69 1863.5,1146.5 Z"/></g>
<g><path style="opacity:1" fill="#5f656c" d="M 1413.5,1117.5 C 1420.38,1121.05 1426.38,1125.72 1431.5,1131.5C 1436.03,1163.01 1434.87,1194.34 1428,1225.5C 1413.16,1286.35 1397,1346.85 1379.5,1407C 1379.67,1407.5 1379.83,1408 1380,1408.5C 1403.19,1394.14 1423.03,1376.14 1439.5,1354.5C 1437.82,1363.28 1436.15,1371.95 1434.5,1380.5C 1419.29,1395.1 1402.96,1408.26 1385.5,1420C 1356.1,1439.06 1326.43,1457.73 1296.5,1476C 1269.21,1490.98 1240.21,1500.98 1209.5,1506C 1201.2,1507.12 1192.87,1507.62 1184.5,1507.5C 1182.57,1503.71 1181.24,1499.71 1180.5,1495.5C 1193.74,1495.01 1207.08,1493.84 1220.5,1492C 1247.26,1485.53 1272.59,1475.53 1296.5,1462C 1318.75,1447.96 1340.92,1433.79 1363,1419.5C 1382.86,1352.72 1400.86,1285.38 1417,1217.5C 1418.78,1205.85 1420.44,1194.18 1422,1182.5C 1424.47,1160.07 1421.64,1138.41 1413.5,1117.5 Z"/></g>
<g><path style="opacity:0.975" fill="#fafbff" d="M 2201.5,1140.5 C 2196.29,1145.71 2190.29,1149.71 2183.5,1152.5C 2178.98,1144.62 2174.31,1136.79 2169.5,1129C 2173.49,1125.36 2177.82,1122.03 2182.5,1119C 2184,1118.49 2185.16,1118.99 2186,1120.5C 2190.65,1127.64 2195.81,1134.3 2201.5,1140.5 Z"/></g>
<g><path style="opacity:1" fill="#5f656c" d="M 2612.5,1118.5 C 2608.83,1127.84 2606.33,1137.51 2605,1147.5C 2604.33,1161.5 2604.33,1175.5 2605,1189.5C 2607.23,1203.18 2609.56,1216.85 2612,1230.5C 2627.9,1293.78 2644.9,1356.78 2663,1419.5C 2684.42,1433.46 2705.92,1447.29 2727.5,1461C 2764.1,1483.04 2803.43,1495.21 2845.5,1497.5C 2845.1,1500.71 2844.1,1503.71 2842.5,1506.5C 2826.99,1508.44 2811.65,1507.27 2796.5,1503C 2767.03,1495.1 2739.36,1483.1 2713.5,1467C 2687.17,1450 2660.83,1433 2634.5,1416C 2619.42,1405.09 2605.09,1393.25 2591.5,1380.5C 2590.06,1372.19 2588.73,1363.85 2587.5,1355.5C 2603.69,1376.85 2623.19,1394.52 2646,1408.5C 2646.17,1407.83 2646.33,1407.17 2646.5,1406.5C 2628.92,1345.86 2612.76,1284.86 2598,1223.5C 2594.19,1203.68 2592.02,1183.68 2591.5,1163.5C 2591.62,1152.67 2592.95,1142 2595.5,1131.5C 2600.26,1125.96 2605.92,1121.62 2612.5,1118.5 Z"/></g>
<g><path style="opacity:0.989" fill="#9ea6b1" d="M 1431.5,1131.5 C 1436.35,1135.53 1440.52,1140.2 1444,1145.5C 1447.47,1151.43 1450.63,1157.43 1453.5,1163.5C 1458.26,1187.25 1459.76,1211.25 1458,1235.5C 1453.56,1275.44 1447.4,1315.11 1439.5,1354.5C 1423.03,1376.14 1403.19,1394.14 1380,1408.5C 1379.83,1408 1379.67,1407.5 1379.5,1407C 1397,1346.85 1413.16,1286.35 1428,1225.5C 1434.87,1194.34 1436.03,1163.01 1431.5,1131.5 Z"/></g>
<g><path style="opacity:0.974" fill="#fbfcff" d="M 1897.5,1166.5 C 1897.44,1167.04 1897.11,1167.38 1896.5,1167.5C 1891.99,1164.75 1887.33,1162.25 1882.5,1160C 1880.94,1159.24 1879.94,1158.07 1879.5,1156.5C 1884.27,1149.15 1888.93,1141.65 1893.5,1134C 1894.5,1133.33 1895.5,1133.33 1896.5,1134C 1900.34,1136.42 1904.34,1138.59 1908.5,1140.5C 1909.58,1141.36 1909.75,1142.36 1909,1143.5C 1905.15,1151.19 1901.32,1158.86 1897.5,1166.5 Z"/></g>
<g><path style="opacity:0.987" fill="#9ea6b1" d="M 2595.5,1131.5 C 2592.95,1142 2591.62,1152.67 2591.5,1163.5C 2592.02,1183.68 2594.19,1203.68 2598,1223.5C 2612.76,1284.86 2628.92,1345.86 2646.5,1406.5C 2646.33,1407.17 2646.17,1407.83 2646,1408.5C 2623.19,1394.52 2603.69,1376.85 2587.5,1355.5C 2579.61,1318.16 2573.44,1280.49 2569,1242.5C 2565.87,1215.85 2567.37,1189.52 2573.5,1163.5C 2578.35,1151.13 2585.69,1140.46 2595.5,1131.5 Z"/></g>
<g><path style="opacity:0.973" fill="#fafbff" d="M 2167.5,1161.5 C 2167.06,1163.07 2166.06,1164.24 2164.5,1165C 2159.16,1168.2 2153.83,1170.37 2148.5,1171.5C 2145.12,1163.07 2141.45,1154.74 2137.5,1146.5C 2142.39,1143.14 2147.55,1140.14 2153,1137.5C 2157.61,1145.73 2162.44,1153.73 2167.5,1161.5 Z"/></g>
<g><path style="opacity:0.976" fill="#fbfcff" d="M 1934.5,1182.5 C 1927.19,1181.18 1920.53,1178.51 1914.5,1174.5C 1919.11,1166.68 1922.78,1158.35 1925.5,1149.5C 1931.69,1151.17 1937.69,1153.34 1943.5,1156C 1940.07,1164.69 1937.07,1173.53 1934.5,1182.5 Z"/></g>
<g><path style="opacity:0.974" fill="#fafbff" d="M 2131.5,1178.5 C 2128.43,1180.78 2124.93,1182.45 2121,1183.5C 2117.44,1185.11 2113.94,1185.78 2110.5,1185.5C 2108.96,1176.32 2106.62,1167.32 2103.5,1158.5C 2108.89,1156.7 2114.22,1154.7 2119.5,1152.5C 2120.8,1153.09 2121.63,1154.09 2122,1155.5C 2124.52,1163.58 2127.68,1171.25 2131.5,1178.5 Z"/></g>
<g><path style="opacity:0.974" fill="#fafbff" d="M 1973.5,1192.5 C 1966.96,1192.23 1960.29,1191.07 1953.5,1189C 1952.94,1188.62 1952.61,1188.12 1952.5,1187.5C 1955.33,1178.55 1958.33,1169.55 1961.5,1160.5C 1967.14,1162.29 1972.81,1163.96 1978.5,1165.5C 1975.93,1174.33 1974.27,1183.33 1973.5,1192.5 Z"/></g>
<g><path style="opacity:0.978" fill="#fafbff" d="M 2092.5,1190.5 C 2086.2,1192.6 2079.7,1194.26 2073,1195.5C 2072.62,1194.94 2072.12,1194.61 2071.5,1194.5C 2071.98,1193.58 2072.31,1192.58 2072.5,1191.5C 2070.84,1182.88 2069.51,1174.21 2068.5,1165.5C 2074.47,1164.62 2080.47,1163.95 2086.5,1163.5C 2088.35,1172.56 2090.35,1181.56 2092.5,1190.5 Z"/></g>
<g><path style="opacity:1" fill="#60666d" d="M 1397.5,1164.5 C 1408.1,1165.57 1411.26,1170.91 1407,1180.5C 1399.99,1185.45 1394.66,1184.11 1391,1176.5C 1390.34,1170.99 1392.51,1166.99 1397.5,1164.5 Z"/></g>
<g><path style="opacity:1" fill="#5f656c" d="M 2622.5,1165.5 C 2631.88,1164.38 2636.04,1168.38 2635,1177.5C 2632.41,1182.71 2628.24,1184.54 2622.5,1183C 2615.87,1177.17 2615.87,1171.33 2622.5,1165.5 Z"/></g>
<g><path style="opacity:0.979" fill="#f9faff" d="M 2010.5,1168.5 C 2011.21,1169.4 2012.21,1169.74 2013.5,1169.5C 2013.5,1172.83 2013.5,1176.17 2013.5,1179.5C 2013.5,1185.17 2013.5,1190.83 2013.5,1196.5C 2013.63,1197.38 2013.3,1198.04 2012.5,1198.5C 2005.65,1197.9 1998.99,1196.9 1992.5,1195.5C 1994.16,1186.24 1995.16,1176.91 1995.5,1167.5C 2000.49,1167.92 2005.49,1168.25 2010.5,1168.5 Z"/></g>
<g><path style="opacity:0.973" fill="#fbfcff" d="M 2053.5,1196.5 C 2046.54,1198.33 2039.54,1198.66 2032.5,1197.5C 2032.5,1188.17 2032.5,1178.83 2032.5,1169.5C 2038.51,1169.3 2044.51,1168.97 2050.5,1168.5C 2051.27,1178 2052.27,1187.33 2053.5,1196.5 Z"/></g>
<g><path style="opacity:1" fill="#5489ff" d="M 2010.5,1168.5 C 2011.83,1168.5 2013.17,1168.5 2014.5,1168.5C 2014.81,1172.37 2014.48,1176.04 2013.5,1179.5C 2013.5,1176.17 2013.5,1172.83 2013.5,1169.5C 2012.21,1169.74 2011.21,1169.4 2010.5,1168.5 Z"/></g>
<g><path style="opacity:1" fill="#5f656c" d="M 1379.5,1220.5 C 1386.93,1219.04 1391.59,1221.87 1393.5,1229C 1392.43,1236.69 1388.1,1239.69 1380.5,1238C 1372.99,1232.62 1372.66,1226.79 1379.5,1220.5 Z"/></g>
<g><path style="opacity:1" fill="#5f656c" d="M 2639.5,1220.5 C 2648.48,1220.31 2652.31,1224.64 2651,1233.5C 2648.1,1238.15 2643.94,1239.65 2638.5,1238C 2633.85,1235.1 2632.35,1230.94 2634,1225.5C 2635.73,1223.6 2637.56,1221.93 2639.5,1220.5 Z"/></g>
<g><path style="opacity:1" fill="#60666d" d="M 1364.5,1275.5 C 1373.51,1274.68 1377.68,1278.68 1377,1287.5C 1374.08,1293.02 1369.58,1294.86 1363.5,1293C 1356.64,1286.68 1356.98,1280.84 1364.5,1275.5 Z"/></g>
<g><path style="opacity:1" fill="#5f656c" d="M 2655.5,1275.5 C 2664.53,1275.36 2668.36,1279.69 2667,1288.5C 2664.65,1293.43 2660.81,1295.26 2655.5,1294C 2650.27,1291.37 2648.44,1287.2 2650,1281.5C 2651.36,1278.98 2653.19,1276.98 2655.5,1275.5 Z"/></g>
<g><path style="opacity:1" fill="#60666d" d="M 1349.5,1330.5 C 1359.1,1330.73 1362.6,1335.39 1360,1344.5C 1353.5,1351.54 1347.83,1350.87 1343,1342.5C 1342.31,1336.87 1344.48,1332.87 1349.5,1330.5 Z"/></g>
<g><path style="opacity:1" fill="#5f656c" d="M 2670.5,1331.5 C 2679.83,1330.33 2683.99,1334.33 2683,1343.5C 2677.75,1351.01 2672.09,1351.34 2666,1344.5C 2664.38,1338.92 2665.88,1334.59 2670.5,1331.5 Z"/></g>
<g><path style="opacity:1" fill="#9ea6b0" d="M 1883.5,1370.5 C 1888.52,1431.34 1909.85,1485.01 1947.5,1531.5C 1888.04,1500.84 1854.21,1452.17 1846,1385.5C 1845.5,1379.18 1845.33,1372.84 1845.5,1366.5C 1845.74,1365.9 1846.24,1365.57 1847,1365.5C 1859.27,1367.41 1871.44,1369.07 1883.5,1370.5 Z"/></g>
<g><path style="opacity:0.999" fill="#9ea6b1" d="M 2075.5,1542.5 C 2042.17,1550.48 2008.84,1550.48 1975.5,1542.5C 1940.28,1510.45 1916.45,1471.12 1904,1424.5C 1899.39,1407.08 1896.23,1389.41 1894.5,1371.5C 1981.83,1371.5 2069.17,1371.5 2156.5,1371.5C 2151.78,1427.2 2132.28,1476.86 2098,1520.5C 2090.6,1528.06 2083.1,1535.4 2075.5,1542.5 Z"/></g>
<g><path style="opacity:0.997" fill="#5e646b" d="M 2200.5,1366.5 C 2202.26,1365.54 2204.26,1365.21 2206.5,1365.5C 2206.34,1367.53 2206.5,1369.53 2207,1371.5C 2210.36,1373.7 2213.19,1376.36 2215.5,1379.5C 2223.27,1392.06 2227.94,1405.72 2229.5,1420.5C 2231.95,1451.08 2223.45,1478.08 2204,1501.5C 2192.43,1513.08 2180.26,1523.91 2167.5,1534C 2144.43,1546.48 2121.27,1546.65 2098,1534.5C 2096.54,1534.81 2095.37,1535.47 2094.5,1536.5C 2088.17,1538.5 2081.83,1540.5 2075.5,1542.5C 2083.1,1535.4 2090.6,1528.06 2098,1520.5C 2132.28,1476.86 2151.78,1427.2 2156.5,1371.5C 2069.17,1371.5 1981.83,1371.5 1894.5,1371.5C 1896.23,1389.41 1899.39,1407.08 1904,1424.5C 1916.45,1471.12 1940.28,1510.45 1975.5,1542.5C 1969.16,1540.5 1962.82,1538.5 1956.5,1536.5C 1955.63,1535.47 1954.46,1534.81 1953,1534.5C 1926.3,1548.08 1900.8,1546.24 1876.5,1529C 1861.6,1516.1 1848.1,1501.93 1836,1486.5C 1824.87,1466.6 1820.03,1445.27 1821.5,1422.5C 1822.9,1407.87 1827.24,1394.21 1834.5,1381.5C 1837.43,1378.06 1840.6,1374.73 1844,1371.5C 1844.2,1369.62 1844.7,1367.95 1845.5,1366.5C 1845.33,1372.84 1845.5,1379.18 1846,1385.5C 1854.21,1452.17 1888.04,1500.84 1947.5,1531.5C 1909.85,1485.01 1888.52,1431.34 1883.5,1370.5C 1978.17,1370.5 2072.83,1370.5 2167.5,1370.5C 2162.61,1430.58 2141.95,1483.92 2105.5,1530.5C 2162.48,1500.92 2195.64,1454.26 2205,1390.5C 2205.5,1382.51 2205.67,1374.51 2205.5,1366.5C 2203.83,1366.5 2202.17,1366.5 2200.5,1366.5 Z"/></g>
<g><path style="opacity:1" fill="#9ea6b1" d="M 2200.5,1366.5 C 2202.17,1366.5 2203.83,1366.5 2205.5,1366.5C 2205.67,1374.51 2205.5,1382.51 2205,1390.5C 2195.64,1454.26 2162.48,1500.92 2105.5,1530.5C 2141.95,1483.92 2162.61,1430.58 2167.5,1370.5C 2178.4,1368.71 2189.4,1367.38 2200.5,1366.5 Z"/></g>
<g><path style="opacity:0.99" fill="#9ea6b1" d="M 1434.5,1380.5 C 1434.05,1391.74 1432.22,1402.74 1429,1413.5C 1425.07,1420.36 1420.91,1427.03 1416.5,1433.5C 1402.77,1447.57 1388.44,1460.9 1373.5,1473.5C 1359.48,1483.84 1344.82,1493.18 1329.5,1501.5C 1310.27,1511.91 1290.27,1520.58 1269.5,1527.5C 1267.5,1528.17 1265.5,1528.83 1263.5,1529.5C 1253.41,1531.23 1243.24,1532.23 1233,1532.5C 1223.05,1533.21 1213.55,1531.54 1204.5,1527.5C 1195.5,1523.17 1188.83,1516.5 1184.5,1507.5C 1192.87,1507.62 1201.2,1507.12 1209.5,1506C 1240.21,1500.98 1269.21,1490.98 1296.5,1476C 1326.43,1457.73 1356.1,1439.06 1385.5,1420C 1402.96,1408.26 1419.29,1395.1 1434.5,1380.5 Z"/></g>
<g><path style="opacity:0.99" fill="#9ea6b1" d="M 2591.5,1380.5 C 2605.09,1393.25 2619.42,1405.09 2634.5,1416C 2660.83,1433 2687.17,1450 2713.5,1467C 2739.36,1483.1 2767.03,1495.1 2796.5,1503C 2811.65,1507.27 2826.99,1508.44 2842.5,1506.5C 2838.25,1516.42 2831.25,1523.75 2821.5,1528.5C 2821.57,1528.06 2821.4,1527.73 2821,1527.5C 2811.85,1531.77 2802.18,1533.77 2792,1533.5C 2782.36,1533.05 2772.86,1531.72 2763.5,1529.5C 2761.19,1529.01 2758.86,1528.67 2756.5,1528.5C 2736.32,1521.25 2716.66,1512.58 2697.5,1502.5C 2681.77,1494.31 2667.1,1484.64 2653.5,1473.5C 2638.14,1461.98 2624.14,1448.81 2611.5,1434C 2610.91,1433.54 2610.24,1433.37 2609.5,1433.5C 2604.79,1426.93 2600.62,1419.93 2597,1412.5C 2594.19,1402.01 2592.36,1391.34 2591.5,1380.5 Z"/></g>
<g><path style="opacity:1" fill="#60666d" d="M 1331.5,1386.5 C 1339.12,1384.64 1343.79,1387.47 1345.5,1395C 1344.9,1401.1 1341.57,1404.26 1335.5,1404.5C 1329.98,1403.81 1326.98,1400.64 1326.5,1395C 1327.14,1391.54 1328.8,1388.7 1331.5,1386.5 Z"/></g>
<g><path style="opacity:1" fill="#5f656c" d="M 2686.5,1386.5 C 2698.87,1386.69 2702.21,1392.19 2696.5,1403C 2685.43,1406.89 2680.6,1403.06 2682,1391.5C 2683.71,1389.96 2685.21,1388.3 2686.5,1386.5 Z"/></g>
<g><path style="opacity:0.988" fill="#030205" d="M 1821.5,1422.5 C 1820.03,1445.27 1824.87,1466.6 1836,1486.5C 1848.1,1501.93 1861.6,1516.1 1876.5,1529C 1900.8,1546.24 1926.3,1548.08 1953,1534.5C 1954.46,1534.81 1955.63,1535.47 1956.5,1536.5C 1952.02,1543.22 1945.69,1546.56 1937.5,1546.5C 1942.03,1560.69 1938.37,1572.19 1926.5,1581C 1924.04,1582.56 1921.38,1583.56 1918.5,1584C 1916.05,1594.29 1910.05,1601.79 1900.5,1606.5C 1908.64,1617.57 1909.14,1628.91 1902,1640.5C 1899.08,1644.09 1895.58,1646.92 1891.5,1649C 1892,1659.18 1888,1667.35 1879.5,1673.5C 1887.72,1685.87 1887.06,1697.7 1877.5,1709C 1882.6,1721.11 1880.6,1731.94 1871.5,1741.5C 1883.47,1755.33 1883.47,1769.16 1871.5,1783C 1867.12,1786.03 1862.46,1788.19 1857.5,1789.5C 1856.5,1789.5 1855.5,1789.5 1854.5,1789.5C 1853.26,1766.57 1852.09,1743.57 1851,1720.5C 1844.9,1690.16 1827.4,1669.33 1798.5,1658C 1778.99,1651.53 1760.66,1653.86 1743.5,1665C 1737,1670.67 1730.66,1676.5 1724.5,1682.5C 1718.68,1668.45 1721.68,1656.45 1733.5,1646.5C 1726.46,1634.5 1726.96,1622.83 1735,1611.5C 1737.89,1608.94 1741.06,1606.78 1744.5,1605C 1745.87,1603.56 1746.87,1601.89 1747.5,1600C 1739.25,1592.23 1736.41,1582.73 1739,1571.5C 1743.18,1561.16 1750.68,1554.49 1761.5,1551.5C 1754.76,1530.64 1761.93,1517.31 1783,1511.5C 1783.97,1509.73 1784.8,1507.89 1785.5,1506C 1778.77,1484.63 1786.1,1470.8 1807.5,1464.5C 1803.25,1450.07 1807.42,1438.73 1820,1430.5C 1820.18,1427.64 1820.68,1424.97 1821.5,1422.5 Z"/></g>
<g><path style="opacity:0.988" fill="#030205" d="M 2229.5,1420.5 C 2230.32,1423.64 2230.82,1426.97 2231,1430.5C 2244.03,1438.74 2248.2,1450.24 2243.5,1465C 2265.67,1470.85 2273.01,1484.68 2265.5,1506.5C 2266.25,1508.75 2267.59,1510.59 2269.5,1512C 2284.4,1514.89 2292.06,1523.89 2292.5,1539C 2292.73,1543.64 2291.73,1547.97 2289.5,1552C 2308.32,1557.13 2315.82,1569.3 2312,1588.5C 2309.88,1592.94 2307.38,1597.11 2304.5,1601C 2305.86,1604.7 2308.52,1607.03 2312.5,1608C 2324.57,1619.69 2326.24,1632.69 2317.5,1647C 2329.55,1656.23 2332.88,1668.06 2327.5,1682.5C 2326.76,1682.63 2326.09,1682.46 2325.5,1682C 2301.69,1653.07 2273.02,1647.07 2239.5,1664C 2216.09,1678.32 2202.92,1699.15 2200,1726.5C 2198.83,1747.49 2198,1768.49 2197.5,1789.5C 2196.17,1789.5 2194.83,1789.5 2193.5,1789.5C 2176.15,1784.14 2168.98,1772.47 2172,1754.5C 2173.48,1749.54 2175.98,1745.21 2179.5,1741.5C 2171.02,1731.97 2169.02,1721.31 2173.5,1709.5C 2165.02,1697.98 2164.36,1685.98 2171.5,1673.5C 2163.32,1667.28 2158.99,1658.95 2158.5,1648.5C 2143.73,1638.06 2140.56,1624.73 2149,1608.5C 2149.83,1607.67 2150.67,1606.83 2151.5,1606C 2141.43,1602.26 2135.26,1595.09 2133,1584.5C 2115.02,1577.91 2108.85,1565.41 2114.5,1547C 2106.23,1546.37 2099.57,1542.87 2094.5,1536.5C 2095.37,1535.47 2096.54,1534.81 2098,1534.5C 2121.27,1546.65 2144.43,1546.48 2167.5,1534C 2180.26,1523.91 2192.43,1513.08 2204,1501.5C 2223.45,1478.08 2231.95,1451.08 2229.5,1420.5 Z"/></g>
<g><path style="opacity:0.976" fill="#030205" d="M 1416.5,1433.5 C 1449.41,1462.73 1461.24,1499.06 1452,1542.5C 1443.49,1558.23 1430.66,1563.39 1413.5,1558C 1403.42,1553.35 1397.59,1545.52 1396,1534.5C 1401.43,1509.11 1393.93,1488.78 1373.5,1473.5C 1388.44,1460.9 1402.77,1447.57 1416.5,1433.5 Z"/></g>
<g><path style="opacity:0.976" fill="#030205" d="M 2609.5,1433.5 C 2610.24,1433.37 2610.91,1433.54 2611.5,1434C 2624.14,1448.81 2638.14,1461.98 2653.5,1473.5C 2637.83,1483.66 2629.83,1498.16 2629.5,1517C 2632.27,1529.03 2630.44,1540.19 2624,1550.5C 2611.1,1562.39 2597.27,1563.56 2582.5,1554C 2577.66,1549.49 2574.49,1543.99 2573,1537.5C 2566.32,1495.93 2578.49,1461.26 2609.5,1433.5 Z"/></g>
<g><path style="opacity:0.976" fill="#030205" d="M 1329.5,1501.5 C 1328.39,1515.13 1328.22,1528.8 1329,1542.5C 1330.49,1562.67 1337.99,1580.17 1351.5,1595C 1357.29,1599.12 1362.79,1603.62 1368,1608.5C 1374.94,1619.93 1375.28,1631.6 1369,1643.5C 1357.49,1656.47 1343.99,1658.97 1328.5,1651C 1293.48,1626.49 1274.31,1592.66 1271,1549.5C 1270.45,1542.16 1269.95,1534.83 1269.5,1527.5C 1290.27,1520.58 1310.27,1511.91 1329.5,1501.5 Z"/></g>
<g><path style="opacity:0.977" fill="#030205" d="M 2697.5,1502.5 C 2716.66,1512.58 2736.32,1521.25 2756.5,1528.5C 2757.05,1560.96 2748.89,1590.96 2732,1618.5C 2722.46,1631.04 2711.29,1641.87 2698.5,1651C 2681.61,1659.88 2667.45,1656.71 2656,1641.5C 2650.92,1630.45 2651.59,1619.79 2658,1609.5C 2666.27,1603.24 2673.93,1596.24 2681,1588.5C 2691.65,1572.89 2697.32,1555.55 2698,1536.5C 2698.56,1525.16 2698.39,1513.82 2697.5,1502.5 Z"/></g>
<g><path style="opacity:0.978" fill="#030205" d="M 1204.5,1527.5 C 1213.55,1531.54 1223.05,1533.21 1233,1532.5C 1243.24,1532.23 1253.41,1531.23 1263.5,1529.5C 1260.02,1565.28 1266.86,1598.94 1284,1630.5C 1288.18,1636.86 1292.85,1642.86 1298,1648.5C 1304.94,1659.93 1305.28,1671.6 1299,1683.5C 1290.01,1694.83 1278.51,1698.33 1264.5,1694C 1259.79,1691.95 1255.62,1689.12 1252,1685.5C 1222.98,1649.8 1207.31,1608.8 1205,1562.5C 1204.5,1550.84 1204.33,1539.17 1204.5,1527.5 Z"/></g>
<g><path style="opacity:0.977" fill="#030205" d="M 2821.5,1528.5 C 2824.96,1575.35 2815.46,1619.35 2793,1660.5C 2787.16,1669.52 2780.82,1678.19 2774,1686.5C 2760.32,1698.9 2746.16,1699.57 2731.5,1688.5C 2722.22,1678.6 2720.06,1667.27 2725,1654.5C 2732.16,1645.52 2738.82,1636.19 2745,1626.5C 2759.95,1595.9 2766.12,1563.56 2763.5,1529.5C 2772.86,1531.72 2782.36,1533.05 2792,1533.5C 2802.18,1533.77 2811.85,1531.77 2821,1527.5C 2821.4,1527.73 2821.57,1528.06 2821.5,1528.5 Z"/></g>
<g><path style="opacity:0.994" fill="#5e646b" d="M 1854.5,1789.5 C 1856.74,1861.89 1860.07,1934.22 1864.5,2006.5C 1871.28,2003.35 1877.95,2000.02 1884.5,1996.5C 1884.5,1998.83 1884.5,2001.17 1884.5,2003.5C 1878.08,2005.87 1871.75,2008.54 1865.5,2011.5C 1864.67,2015.8 1864.17,2020.13 1864,2024.5C 1842.19,2005.33 1817.69,1990.33 1790.5,1979.5C 1790.17,1978.17 1789.83,1976.83 1789.5,1975.5C 1796.52,1914.71 1804.35,1854.05 1813,1793.5C 1834.89,1770.13 1840.89,1743.13 1831,1712.5C 1817.65,1681.08 1794.48,1669.24 1761.5,1677C 1733.12,1692.25 1720.29,1716.08 1723,1748.5C 1723.95,1757.38 1725.78,1766.05 1728.5,1774.5C 1720.01,1838.4 1712.18,1902.4 1705,1966.5C 1665.13,1971.94 1630.79,1988.6 1602,2016.5C 1604.15,2005.83 1606.65,1995.16 1609.5,1984.5C 1636.83,1890.34 1670,1798.34 1709,1708.5C 1713.42,1699.31 1718.59,1690.64 1724.5,1682.5C 1730.66,1676.5 1737,1670.67 1743.5,1665C 1760.66,1653.86 1778.99,1651.53 1798.5,1658C 1827.4,1669.33 1844.9,1690.16 1851,1720.5C 1852.09,1743.57 1853.26,1766.57 1854.5,1789.5 Z"/></g>
<g><path style="opacity:0.994" fill="#5e646b" d="M 2327.5,1682.5 C 2334.09,1692.66 2339.92,1703.33 2345,1714.5C 2382.61,1802.16 2414.78,1891.83 2441.5,1983.5C 2444.3,1993.39 2446.8,2003.39 2449,2013.5C 2450.34,2016.67 2452.51,2017.34 2455.5,2015.5C 2455.5,2016.83 2455.5,2018.17 2455.5,2019.5C 2455.48,2021.03 2454.82,2021.53 2453.5,2021C 2424.32,1990.41 2388.65,1972.58 2346.5,1967.5C 2339.28,1902.56 2331.28,1837.73 2322.5,1773C 2335.69,1739.26 2329.35,1709.92 2303.5,1685C 2277.62,1667.67 2253.78,1670.17 2232,1692.5C 2210.35,1723.19 2210.02,1754.19 2231,1785.5C 2233.67,1788.17 2236.33,1790.83 2239,1793.5C 2247.81,1855.35 2255.31,1917.35 2261.5,1979.5C 2233.89,1990.05 2209.06,2005.05 2187,2024.5C 2186.83,2020.13 2186.33,2015.8 2185.5,2011.5C 2179.25,2008.54 2172.92,2005.87 2166.5,2003.5C 2166.5,2001.17 2166.5,1998.83 2166.5,1996.5C 2173.23,1999.95 2180.07,2003.28 2187,2006.5C 2190.71,1934.18 2194.21,1861.84 2197.5,1789.5C 2198,1768.49 2198.83,1747.49 2200,1726.5C 2202.92,1699.15 2216.09,1678.32 2239.5,1664C 2273.02,1647.07 2301.69,1653.07 2325.5,1682C 2326.09,1682.46 2326.76,1682.63 2327.5,1682.5 Z"/></g>
<g><path style="opacity:0.998" fill="#9ea6b1" d="M 1884.5,2003.5 C 1884.52,2011.85 1884.19,2020.18 1883.5,2028.5C 1879.21,2028.03 1875.21,2028.87 1871.5,2031C 1877.7,2037.37 1884.04,2043.54 1890.5,2049.5C 1904.01,2065.18 1915.01,2082.51 1923.5,2101.5C 1911.63,2105.57 1905.96,2113.9 1906.5,2126.5C 1888.88,2130.09 1871.22,2133.59 1853.5,2137C 1816.22,2142.65 1778.72,2145.15 1741,2144.5C 1699.31,2145.06 1657.81,2142.56 1616.5,2137C 1602.83,2135.6 1589.83,2131.94 1577.5,2126C 1576.33,2124.83 1575.17,2123.67 1574,2122.5C 1572.01,2110.01 1564.84,2102.67 1552.5,2100.5C 1559.62,2070.58 1573.79,2044.58 1595,2022.5C 1594.07,2007.44 1598.9,1994.77 1609.5,1984.5C 1606.65,1995.16 1604.15,2005.83 1602,2016.5C 1630.79,1988.6 1665.13,1971.94 1705,1966.5C 1712.18,1902.4 1720.01,1838.4 1728.5,1774.5C 1725.78,1766.05 1723.95,1757.38 1723,1748.5C 1720.29,1716.08 1733.12,1692.25 1761.5,1677C 1794.48,1669.24 1817.65,1681.08 1831,1712.5C 1840.89,1743.13 1834.89,1770.13 1813,1793.5C 1804.35,1854.05 1796.52,1914.71 1789.5,1975.5C 1789.83,1976.83 1790.17,1978.17 1790.5,1979.5C 1817.69,1990.33 1842.19,2005.33 1864,2024.5C 1864.17,2020.13 1864.67,2015.8 1865.5,2011.5C 1871.75,2008.54 1878.08,2005.87 1884.5,2003.5 Z"/></g>
<g><path style="opacity:0.998" fill="#9ea6b1" d="M 2455.5,2019.5 C 2460.64,2027.5 2466.47,2035.17 2473,2042.5C 2485.58,2060 2494.08,2079.33 2498.5,2100.5C 2485.83,2102.84 2478.5,2110.5 2476.5,2123.5C 2475.02,2124.48 2473.69,2125.65 2472.5,2127C 2465.36,2129.93 2458.03,2132.27 2450.5,2134C 2401.64,2141.57 2352.48,2145.07 2303,2144.5C 2249.35,2145.84 2196.69,2139.5 2145,2125.5C 2145.14,2113.5 2139.64,2105.5 2128.5,2101.5C 2136.32,2082.04 2147.32,2064.71 2161.5,2049.5C 2167.27,2043.23 2173.27,2037.06 2179.5,2031C 2176.17,2028.92 2172.5,2028.09 2168.5,2028.5C 2167.33,2020.26 2166.66,2011.92 2166.5,2003.5C 2172.92,2005.87 2179.25,2008.54 2185.5,2011.5C 2186.33,2015.8 2186.83,2020.13 2187,2024.5C 2209.06,2005.05 2233.89,1990.05 2261.5,1979.5C 2255.31,1917.35 2247.81,1855.35 2239,1793.5C 2236.33,1790.83 2233.67,1788.17 2231,1785.5C 2210.02,1754.19 2210.35,1723.19 2232,1692.5C 2253.78,1670.17 2277.62,1667.67 2303.5,1685C 2329.35,1709.92 2335.69,1739.26 2322.5,1773C 2331.28,1837.73 2339.28,1902.56 2346.5,1967.5C 2388.65,1972.58 2424.32,1990.41 2453.5,2021C 2454.82,2021.53 2455.48,2021.03 2455.5,2019.5 Z"/></g>
<g><path style="opacity:1" fill="#5e646b" d="M 1773.5,1684.5 C 1798.25,1684.73 1814.42,1696.73 1822,1720.5C 1829.25,1748.03 1822.08,1770.86 1800.5,1789C 1773.17,1801.59 1752.67,1794.42 1739,1767.5C 1730.09,1744.57 1732.42,1722.9 1746,1702.5C 1753.25,1693.39 1762.42,1687.39 1773.5,1684.5 Z"/></g>
<g><path style="opacity:1" fill="#5e646b" d="M 2265.5,1684.5 C 2285.3,1684.15 2300.13,1692.48 2310,1709.5C 2319.65,1729.63 2319.98,1749.96 2311,1770.5C 2297.19,1794.22 2277.69,1800.72 2252.5,1790C 2237.49,1779.5 2228.99,1765 2227,1746.5C 2224.96,1725.76 2231.46,1708.26 2246.5,1694C 2252.38,1689.73 2258.71,1686.56 2265.5,1684.5 Z"/></g>
<g><path style="opacity:1" fill="#5e646b" d="M 1737.5,1787.5 C 1745.08,1795.3 1754.08,1801.14 1764.5,1805C 1776.1,1807.57 1787.44,1806.74 1798.5,1802.5C 1798.83,1803.5 1799.17,1804.5 1799.5,1805.5C 1792.25,1861.79 1785.25,1918.13 1778.5,1974.5C 1758.2,1969.05 1737.54,1966.05 1716.5,1965.5C 1722.68,1906.06 1729.68,1846.73 1737.5,1787.5 Z"/></g>
<g><path style="opacity:1" fill="#5e646b" d="M 2312.5,1787.5 C 2321.54,1846.84 2329.21,1906.51 2335.5,1966.5C 2314,1965.45 2293,1968.12 2272.5,1974.5C 2265.65,1917.07 2258.99,1859.74 2252.5,1802.5C 2275.97,1811 2295.97,1806 2312.5,1787.5 Z"/></g>
<g><path style="opacity:0.968" fill="#9ea6b1" d="M 1854.5,1789.5 C 1855.5,1789.5 1856.5,1789.5 1857.5,1789.5C 1867.71,1791.21 1873.88,1797.21 1876,1807.5C 1877.24,1855.69 1876.41,1903.86 1873.5,1952C 1875.56,1957.62 1878.06,1963.12 1881,1968.5C 1883.11,1977.71 1884.27,1987.04 1884.5,1996.5C 1877.95,2000.02 1871.28,2003.35 1864.5,2006.5C 1860.07,1934.22 1856.74,1861.89 1854.5,1789.5 Z"/></g>
<g><path style="opacity:0.971" fill="#9ea6b1" d="M 2193.5,1789.5 C 2194.83,1789.5 2196.17,1789.5 2197.5,1789.5C 2194.21,1861.84 2190.71,1934.18 2187,2006.5C 2180.07,2003.28 2173.23,1999.95 2166.5,1996.5C 2167.09,1985.64 2168.92,1974.97 2172,1964.5C 2173.67,1961.83 2175.33,1959.17 2177,1956.5C 2176.62,1930.84 2175.95,1905.17 2175,1879.5C 2174.07,1854.47 2174.4,1829.47 2176,1804.5C 2179.28,1796.38 2185.12,1791.38 2193.5,1789.5 Z"/></g>
<g><path style="opacity:1" fill="#9ca4af" d="M 1762.5,1822.5 C 1771.85,1822.68 1776.02,1827.35 1775,1836.5C 1771.58,1843.3 1766.41,1845.13 1759.5,1842C 1752.3,1834.2 1753.3,1827.7 1762.5,1822.5 Z"/></g>
<g><path style="opacity:1" fill="#9da5af" d="M 2283.5,1822.5 C 2292.85,1822.68 2297.02,1827.35 2296,1836.5C 2293.24,1842.3 2288.74,1844.46 2282.5,1843C 2276.89,1839.72 2275.06,1834.89 2277,1828.5C 2278.91,1826.14 2281.08,1824.14 2283.5,1822.5 Z"/></g>
<g><path style="opacity:1" fill="#9da5b0" d="M 1754.5,1871.5 C 1765.04,1870.54 1769.54,1875.21 1768,1885.5C 1763.39,1892.2 1757.72,1893.2 1751,1888.5C 1746.86,1881.6 1748.03,1875.93 1754.5,1871.5 Z"/></g>
<g><path style="opacity:1" fill="#9da5b0" d="M 2288.5,1871.5 C 2298.99,1870.49 2303.49,1875.15 2302,1885.5C 2299.08,1891.02 2294.58,1892.86 2288.5,1891C 2283.37,1887.94 2281.53,1883.44 2283,1877.5C 2284.36,1874.98 2286.19,1872.98 2288.5,1871.5 Z"/></g>
<g><path style="opacity:1" fill="#9da5b0" d="M 1746.5,1922.5 C 1760.31,1921.8 1764.31,1927.63 1758.5,1940C 1751.32,1944.28 1745.82,1942.78 1742,1935.5C 1740.68,1930.16 1742.18,1925.82 1746.5,1922.5 Z"/></g>
<g><path style="opacity:1" fill="#9ca4af" d="M 2297.5,1921.5 C 2308.69,1922.55 2312.19,1928.22 2308,1938.5C 2300.89,1944.48 2294.89,1943.48 2290,1935.5C 2288.58,1928.68 2291.08,1924.01 2297.5,1921.5 Z"/></g>
<g><path style="opacity:0.871" fill="#9ca4af" d="M 2441.5,1983.5 C 2450.5,1992.18 2455.17,2002.84 2455.5,2015.5C 2452.51,2017.34 2450.34,2016.67 2449,2013.5C 2446.8,2003.39 2444.3,1993.39 2441.5,1983.5 Z"/></g>
<g><path style="opacity:1" fill="#fefefe" d="M 1714.5,1990.5 C 1751.09,1987.03 1785.76,1993.53 1818.5,2010C 1827.36,2015.16 1834.52,2021.99 1840,2030.5C 1840.29,2038.9 1836.12,2043.73 1827.5,2045C 1817.22,2046.58 1806.89,2047.58 1796.5,2048C 1747.83,2048.67 1699.17,2048.67 1650.5,2048C 1616.26,2044.14 1613.59,2032.8 1642.5,2014C 1665.21,2001.82 1689.21,1993.99 1714.5,1990.5 Z"/></g>
<g><path style="opacity:1" fill="#fefefe" d="M 2296.5,1990.5 C 2333.98,1988.08 2369.65,1994.91 2403.5,2011C 2413.84,2015.68 2422.01,2022.84 2428,2032.5C 2428.86,2038.34 2426.36,2042.17 2420.5,2044C 2412.72,2046.62 2404.72,2047.96 2396.5,2048C 2346.5,2048.67 2296.5,2048.67 2246.5,2048C 2236.58,2047.72 2226.91,2046.05 2217.5,2043C 2209.68,2038.57 2208.51,2032.73 2214,2025.5C 2227.8,2011.51 2244.3,2002.01 2263.5,1997C 2274.48,1993.97 2285.48,1991.8 2296.5,1990.5 Z"/></g>
<g><path style="opacity:0.931" fill="#0a090d" d="M 1883.5,2028.5 C 1892.41,2033.24 1894.75,2040.24 1890.5,2049.5C 1884.04,2043.54 1877.7,2037.37 1871.5,2031C 1875.21,2028.87 1879.21,2028.03 1883.5,2028.5 Z"/></g>
<g><path style="opacity:0.929" fill="#060609" d="M 2168.5,2028.5 C 2172.5,2028.09 2176.17,2028.92 2179.5,2031C 2173.27,2037.06 2167.27,2043.23 2161.5,2049.5C 2157.25,2040.24 2159.59,2033.24 2168.5,2028.5 Z"/></g>
<g><path style="opacity:0.983" fill="#030205" d="M 1552.5,2100.5 C 1564.84,2102.67 1572.01,2110.01 1574,2122.5C 1575.17,2123.67 1576.33,2124.83 1577.5,2126C 1589.83,2131.94 1602.83,2135.6 1616.5,2137C 1657.81,2142.56 1699.31,2145.06 1741,2144.5C 1778.72,2145.15 1816.22,2142.65 1853.5,2137C 1871.22,2133.59 1888.88,2130.09 1906.5,2126.5C 1905.96,2113.9 1911.63,2105.57 1923.5,2101.5C 1940.81,2099.67 1950.14,2107.5 1951.5,2125C 1950.55,2137.91 1944.88,2148.24 1934.5,2156C 1920.14,2165.57 1904.47,2172.24 1887.5,2176C 1840.65,2185.41 1793.32,2189.91 1745.5,2189.5C 1695.14,2190.03 1645.48,2184.53 1596.5,2173C 1577.64,2168.57 1560.31,2160.9 1544.5,2150C 1533.5,2141.84 1528.67,2131 1530,2117.5C 1533.63,2106.7 1541.13,2101.03 1552.5,2100.5 Z"/></g>
<g><path style="opacity:0.983" fill="#030205" d="M 2128.5,2101.5 C 2139.64,2105.5 2145.14,2113.5 2145,2125.5C 2196.69,2139.5 2249.35,2145.84 2303,2144.5C 2352.48,2145.07 2401.64,2141.57 2450.5,2134C 2458.03,2132.27 2465.36,2129.93 2472.5,2127C 2473.69,2125.65 2475.02,2124.48 2476.5,2123.5C 2478.5,2110.5 2485.83,2102.84 2498.5,2100.5C 2516.39,2102.59 2523.89,2112.59 2521,2130.5C 2518.77,2137.4 2514.94,2143.23 2509.5,2148C 2494.13,2159.25 2477.13,2167.25 2458.5,2172C 2408.43,2184.26 2357.59,2190.09 2306,2189.5C 2259.74,2189.83 2213.91,2185.66 2168.5,2177C 2149.24,2173.36 2131.57,2166.03 2115.5,2155C 2100.77,2142.9 2096.93,2128.07 2104,2110.5C 2110.34,2102.44 2118.5,2099.44 2128.5,2101.5 Z"/></g>
</svg>
