<svg xmlns="http://www.w3.org/2000/svg" version="1.1" xmlns:xlink="http://www.w3.org/1999/xlink" xmlns:svgjs="http://svgjs.dev/svgjs" width="1920" height="1080" preserveAspectRatio="none" viewBox="0 0 1920 1080"><g mask="url(&quot;#SvgjsMask2434&quot;)" fill="none"><rect width="1920" height="1080" x="0" y="0" fill="url(&quot;#SvgjsLinearGradient2435&quot;)"></rect><path d="M53.96 167.53L109.39 199.53L109.39 263.53L53.96 295.53L-1.47 263.53L-1.47 199.53zM109.39 455.53L164.81 487.53L164.81 551.53L109.39 583.53L53.96 551.53L53.96 487.53zM53.96 551.53L109.39 583.53L109.39 647.53L53.96 679.53L-1.47 647.53L-1.47 583.53zM53.96 743.53L109.39 775.53L109.39 839.53L53.96 871.53L-1.47 839.53L-1.47 775.53zM109.39 1031.53L164.81 1063.53L164.81 1127.53L109.39 1159.53L53.96 1127.53L53.96 1063.53zM164.81 359.53L220.24 391.53L220.24 455.53L164.81 487.53L109.39 455.53L109.39 391.53zM220.24 455.53L275.67 487.53L275.67 551.53L220.24 583.53L164.81 551.53L164.81 487.53zM164.81 935.53L220.24 967.53L220.24 1031.53L164.81 1063.53L109.39 1031.53L109.39 967.53zM331.1 71.53L386.52 103.53L386.52 167.53L331.1 199.53L275.67 167.53L275.67 103.53zM275.67 551.53L331.1 583.53L331.1 647.53L275.67 679.53L220.24 647.53L220.24 583.53zM275.67 743.53L331.1 775.53L331.1 839.53L275.67 871.53L220.24 839.53L220.24 775.53zM331.1 839.53L386.52 871.53L386.52 935.53L331.1 967.53L275.67 935.53L275.67 871.53zM275.67 935.53L331.1 967.53L331.1 1031.53L275.67 1063.53L220.24 1031.53L220.24 967.53zM386.52 -24.47L441.95 7.53L441.95 71.53L386.52 103.53L331.1 71.53L331.1 7.53zM441.95 455.53L497.38 487.53L497.38 551.53L441.95 583.53L386.52 551.53L386.52 487.53zM441.95 839.53L497.38 871.53L497.38 935.53L441.95 967.53L386.52 935.53L386.52 871.53zM552.8 71.53L608.23 103.53L608.23 167.53L552.8 199.53L497.38 167.53L497.38 103.53zM497.38 167.53L552.8 199.53L552.8 263.53L497.38 295.53L441.95 263.53L441.95 199.53zM552.8 263.53L608.23 295.53L608.23 359.53L552.8 391.53L497.38 359.53L497.38 295.53zM497.38 359.53L552.8 391.53L552.8 455.53L497.38 487.53L441.95 455.53L441.95 391.53zM552.8 647.53L608.23 679.53L608.23 743.53L552.8 775.53L497.38 743.53L497.38 679.53zM552.8 1031.53L608.23 1063.53L608.23 1127.53L552.8 1159.53L497.38 1127.53L497.38 1063.53zM608.23 -24.47L663.66 7.53L663.66 71.53L608.23 103.53L552.8 71.53L552.8 7.53zM663.66 71.53L719.09 103.53L719.09 167.53L663.66 199.53L608.23 167.53L608.23 103.53zM608.23 167.53L663.66 199.53L663.66 263.53L608.23 295.53L552.8 263.53L552.8 199.53zM663.66 263.53L719.09 295.53L719.09 359.53L663.66 391.53L608.23 359.53L608.23 295.53zM608.23 359.53L663.66 391.53L663.66 455.53L608.23 487.53L552.8 455.53L552.8 391.53zM663.66 455.53L719.09 487.53L719.09 551.53L663.66 583.53L608.23 551.53L608.23 487.53zM663.66 647.53L719.09 679.53L719.09 743.53L663.66 775.53L608.23 743.53L608.23 679.53zM663.66 1031.53L719.09 1063.53L719.09 1127.53L663.66 1159.53L608.23 1127.53L608.23 1063.53zM719.09 743.53L774.51 775.53L774.51 839.53L719.09 871.53L663.66 839.53L663.66 775.53zM829.94 167.53L885.37 199.53L885.37 263.53L829.94 295.53L774.51 263.53L774.51 199.53zM885.37 263.53L940.8 295.53L940.8 359.53L885.37 391.53L829.94 359.53L829.94 295.53zM829.94 551.53L885.37 583.53L885.37 647.53L829.94 679.53L774.51 647.53L774.51 583.53zM829.94 935.53L885.37 967.53L885.37 1031.53L829.94 1063.53L774.51 1031.53L774.51 967.53zM996.22 455.53L1051.65 487.53L1051.65 551.53L996.22 583.53L940.8 551.53L940.8 487.53zM940.8 935.53L996.22 967.53L996.22 1031.53L940.8 1063.53L885.37 1031.53L885.37 967.53zM1051.65 -24.47L1107.08 7.53L1107.08 71.53L1051.65 103.53L996.22 71.53L996.22 7.53zM1107.08 263.53L1162.5 295.53L1162.5 359.53L1107.08 391.53L1051.65 359.53L1051.65 295.53zM1051.65 359.53L1107.08 391.53L1107.08 455.53L1051.65 487.53L996.22 455.53L996.22 391.53zM1051.65 551.53L1107.08 583.53L1107.08 647.53L1051.65 679.53L996.22 647.53L996.22 583.53zM1107.08 647.53L1162.5 679.53L1162.5 743.53L1107.08 775.53L1051.65 743.53L1051.65 679.53zM1107.08 839.53L1162.5 871.53L1162.5 935.53L1107.08 967.53L1051.65 935.53L1051.65 871.53zM1107.08 1031.53L1162.5 1063.53L1162.5 1127.53L1107.08 1159.53L1051.65 1127.53L1051.65 1063.53zM1162.5 -24.47L1217.93 7.53L1217.93 71.53L1162.5 103.53L1107.08 71.53L1107.08 7.53zM1162.5 167.53L1217.93 199.53L1217.93 263.53L1162.5 295.53L1107.08 263.53L1107.08 199.53zM1217.93 455.53L1273.36 487.53L1273.36 551.53L1217.93 583.53L1162.5 551.53L1162.5 487.53zM1162.5 551.53L1217.93 583.53L1217.93 647.53L1162.5 679.53L1107.08 647.53L1107.08 583.53zM1273.36 -24.47L1328.79 7.53L1328.79 71.53L1273.36 103.53L1217.93 71.53L1217.93 7.53zM1328.79 71.53L1384.21 103.53L1384.21 167.53L1328.79 199.53L1273.36 167.53L1273.36 103.53zM1273.36 167.53L1328.79 199.53L1328.79 263.53L1273.36 295.53L1217.93 263.53L1217.93 199.53zM1328.79 263.53L1384.21 295.53L1384.21 359.53L1328.79 391.53L1273.36 359.53L1273.36 295.53zM1273.36 359.53L1328.79 391.53L1328.79 455.53L1273.36 487.53L1217.93 455.53L1217.93 391.53zM1273.36 935.53L1328.79 967.53L1328.79 1031.53L1273.36 1063.53L1217.93 1031.53L1217.93 967.53zM1384.21 167.53L1439.64 199.53L1439.64 263.53L1384.21 295.53L1328.79 263.53L1328.79 199.53zM1439.64 263.53L1495.07 295.53L1495.07 359.53L1439.64 391.53L1384.21 359.53L1384.21 295.53zM1384.21 359.53L1439.64 391.53L1439.64 455.53L1384.21 487.53L1328.79 455.53L1328.79 391.53zM1439.64 647.53L1495.07 679.53L1495.07 743.53L1439.64 775.53L1384.21 743.53L1384.21 679.53zM1384.21 743.53L1439.64 775.53L1439.64 839.53L1384.21 871.53L1328.79 839.53L1328.79 775.53zM1495.07 -24.47L1550.49 7.53L1550.49 71.53L1495.07 103.53L1439.64 71.53L1439.64 7.53zM1550.49 263.53L1605.92 295.53L1605.92 359.53L1550.49 391.53L1495.07 359.53L1495.07 295.53zM1495.07 359.53L1550.49 391.53L1550.49 455.53L1495.07 487.53L1439.64 455.53L1439.64 391.53zM1550.49 455.53L1605.92 487.53L1605.92 551.53L1550.49 583.53L1495.07 551.53L1495.07 487.53zM1495.07 551.53L1550.49 583.53L1550.49 647.53L1495.07 679.53L1439.64 647.53L1439.64 583.53zM1661.35 71.53L1716.78 103.53L1716.78 167.53L1661.35 199.53L1605.92 167.53L1605.92 103.53zM1605.92 167.53L1661.35 199.53L1661.35 263.53L1605.92 295.53L1550.49 263.53L1550.49 199.53zM1661.35 263.53L1716.78 295.53L1716.78 359.53L1661.35 391.53L1605.92 359.53L1605.92 295.53zM1605.92 551.53L1661.35 583.53L1661.35 647.53L1605.92 679.53L1550.49 647.53L1550.49 583.53zM1605.92 743.53L1661.35 775.53L1661.35 839.53L1605.92 871.53L1550.49 839.53L1550.49 775.53zM1605.92 935.53L1661.35 967.53L1661.35 1031.53L1605.92 1063.53L1550.49 1031.53L1550.49 967.53zM1772.2 839.53L1827.63 871.53L1827.63 935.53L1772.2 967.53L1716.78 935.53L1716.78 871.53zM1716.78 935.53L1772.2 967.53L1772.2 1031.53L1716.78 1063.53L1661.35 1031.53L1661.35 967.53zM1827.63 167.53L1883.06 199.53L1883.06 263.53L1827.63 295.53L1772.2 263.53L1772.2 199.53zM1827.63 359.53L1883.06 391.53L1883.06 455.53L1827.63 487.53L1772.2 455.53L1772.2 391.53zM1827.63 743.53L1883.06 775.53L1883.06 839.53L1827.63 871.53L1772.2 839.53L1772.2 775.53zM1938.48 -24.47L1993.91 7.53L1993.91 71.53L1938.48 103.53L1883.06 71.53L1883.06 7.53zM1993.91 71.53L2049.34 103.53L2049.34 167.53L1993.91 199.53L1938.48 167.53L1938.48 103.53zM1938.48 359.53L1993.91 391.53L1993.91 455.53L1938.48 487.53L1883.06 455.53L1883.06 391.53zM1938.48 551.53L1993.91 583.53L1993.91 647.53L1938.48 679.53L1883.06 647.53L1883.06 583.53zM1993.91 647.53L2049.34 679.53L2049.34 743.53L1993.91 775.53L1938.48 743.53L1938.48 679.53z" stroke="#03305d" stroke-width="2"></path><path d="M3.99 -14.76L30.84 0.74L30.84 31.74L3.99 47.24L-22.86 31.74L-22.86 0.74zM30.84 31.74L57.69 47.24L57.69 78.24L30.84 93.74L3.99 78.24L3.99 47.24zM3.99 78.24L30.84 93.74L30.84 124.74L3.99 140.24L-22.86 124.74L-22.86 93.74zM3.99 264.24L30.84 279.74L30.84 310.74L3.99 326.24L-22.86 310.74L-22.86 279.74zM30.84 310.74L57.69 326.24L57.69 357.24L30.84 372.74L3.99 357.24L3.99 326.24zM3.99 357.24L30.84 372.74L30.84 403.74L3.99 419.24L-22.86 403.74L-22.86 372.74zM30.84 682.74L57.69 698.24L57.69 729.24L30.84 744.74L3.99 729.24L3.99 698.24zM3.99 729.24L30.84 744.74L30.84 775.74L3.99 791.24L-22.86 775.74L-22.86 744.74zM30.84 868.74L57.69 884.24L57.69 915.24L30.84 930.74L3.99 915.24L3.99 884.24zM30.84 961.74L57.69 977.24L57.69 1008.24L30.84 1023.74L3.99 1008.24L3.99 977.24zM57.69 -14.76L84.53 0.74L84.53 31.74L57.69 47.24L30.84 31.74L30.84 0.74zM84.53 31.74L111.38 47.24L111.38 78.24L84.53 93.74L57.69 78.24L57.69 47.24zM57.69 78.24L84.53 93.74L84.53 124.74L57.69 140.24L30.84 124.74L30.84 93.74zM57.69 171.24L84.53 186.74L84.53 217.74L57.69 233.24L30.84 217.74L30.84 186.74zM84.53 217.74L111.38 233.24L111.38 264.24L84.53 279.74L57.69 264.24L57.69 233.24zM57.69 264.24L84.53 279.74L84.53 310.74L57.69 326.24L30.84 310.74L30.84 279.74zM84.53 310.74L111.38 326.24L111.38 357.24L84.53 372.74L57.69 357.24L57.69 326.24zM84.53 403.74L111.38 419.24L111.38 450.24L84.53 465.74L57.69 450.24L57.69 419.24zM84.53 496.74L111.38 512.24L111.38 543.24L84.53 558.74L57.69 543.24L57.69 512.24zM84.53 589.74L111.38 605.24L111.38 636.24L84.53 651.74L57.69 636.24L57.69 605.24zM57.69 636.24L84.53 651.74L84.53 682.74L57.69 698.24L30.84 682.74L30.84 651.74zM57.69 729.24L84.53 744.74L84.53 775.74L57.69 791.24L30.84 775.74L30.84 744.74zM57.69 915.24L84.53 930.74L84.53 961.74L57.69 977.24L30.84 961.74L30.84 930.74zM84.53 961.74L111.38 977.24L111.38 1008.24L84.53 1023.74L57.69 1008.24L57.69 977.24zM57.69 1008.24L84.53 1023.74L84.53 1054.74L57.69 1070.24L30.84 1054.74L30.84 1023.74zM138.23 217.74L165.08 233.24L165.08 264.24L138.23 279.74L111.38 264.24L111.38 233.24zM111.38 264.24L138.23 279.74L138.23 310.74L111.38 326.24L84.53 310.74L84.53 279.74zM138.23 310.74L165.08 326.24L165.08 357.24L138.23 372.74L111.38 357.24L111.38 326.24zM138.23 403.74L165.08 419.24L165.08 450.24L138.23 465.74L111.38 450.24L111.38 419.24zM111.38 636.24L138.23 651.74L138.23 682.74L111.38 698.24L84.53 682.74L84.53 651.74zM138.23 682.74L165.08 698.24L165.08 729.24L138.23 744.74L111.38 729.24L111.38 698.24zM111.38 729.24L138.23 744.74L138.23 775.74L111.38 791.24L84.53 775.74L84.53 744.74zM138.23 868.74L165.08 884.24L165.08 915.24L138.23 930.74L111.38 915.24L111.38 884.24zM191.92 31.74L218.77 47.24L218.77 78.24L191.92 93.74L165.08 78.24L165.08 47.24zM191.92 217.74L218.77 233.24L218.77 264.24L191.92 279.74L165.08 264.24L165.08 233.24zM165.08 264.24L191.92 279.74L191.92 310.74L165.08 326.24L138.23 310.74L138.23 279.74zM191.92 403.74L218.77 419.24L218.77 450.24L191.92 465.74L165.08 450.24L165.08 419.24zM165.08 450.24L191.92 465.74L191.92 496.74L165.08 512.24L138.23 496.74L138.23 465.74zM191.92 496.74L218.77 512.24L218.77 543.24L191.92 558.74L165.08 543.24L165.08 512.24zM165.08 543.24L191.92 558.74L191.92 589.74L165.08 605.24L138.23 589.74L138.23 558.74zM165.08 729.24L191.92 744.74L191.92 775.74L165.08 791.24L138.23 775.74L138.23 744.74zM191.92 868.74L218.77 884.24L218.77 915.24L191.92 930.74L165.08 915.24L165.08 884.24zM165.08 915.24L191.92 930.74L191.92 961.74L165.08 977.24L138.23 961.74L138.23 930.74zM165.08 1008.24L191.92 1023.74L191.92 1054.74L165.08 1070.24L138.23 1054.74L138.23 1023.74zM191.92 1054.74L218.77 1070.24L218.77 1101.24L191.92 1116.74L165.08 1101.24L165.08 1070.24zM218.77 -14.76L245.62 0.74L245.62 31.74L218.77 47.24L191.92 31.74L191.92 0.74zM218.77 78.24L245.62 93.74L245.62 124.74L218.77 140.24L191.92 124.74L191.92 93.74zM245.62 124.74L272.47 140.24L272.47 171.24L245.62 186.74L218.77 171.24L218.77 140.24zM245.62 217.74L272.47 233.24L272.47 264.24L245.62 279.74L218.77 264.24L218.77 233.24zM245.62 310.74L272.47 326.24L272.47 357.24L245.62 372.74L218.77 357.24L218.77 326.24zM218.77 357.24L245.62 372.74L245.62 403.74L218.77 419.24L191.92 403.74L191.92 372.74zM218.77 543.24L245.62 558.74L245.62 589.74L218.77 605.24L191.92 589.74L191.92 558.74zM245.62 589.74L272.47 605.24L272.47 636.24L245.62 651.74L218.77 636.24L218.77 605.24zM218.77 636.24L245.62 651.74L245.62 682.74L218.77 698.24L191.92 682.74L191.92 651.74zM245.62 682.74L272.47 698.24L272.47 729.24L245.62 744.74L218.77 729.24L218.77 698.24zM218.77 1008.24L245.62 1023.74L245.62 1054.74L218.77 1070.24L191.92 1054.74L191.92 1023.74zM245.62 1054.74L272.47 1070.24L272.47 1101.24L245.62 1116.74L218.77 1101.24L218.77 1070.24zM299.31 31.74L326.16 47.24L326.16 78.24L299.31 93.74L272.47 78.24L272.47 47.24zM299.31 124.74L326.16 140.24L326.16 171.24L299.31 186.74L272.47 171.24L272.47 140.24zM272.47 171.24L299.31 186.74L299.31 217.74L272.47 233.24L245.62 217.74L245.62 186.74zM299.31 217.74L326.16 233.24L326.16 264.24L299.31 279.74L272.47 264.24L272.47 233.24zM272.47 357.24L299.31 372.74L299.31 403.74L272.47 419.24L245.62 403.74L245.62 372.74zM272.47 729.24L299.31 744.74L299.31 775.74L272.47 791.24L245.62 775.74L245.62 744.74zM272.47 822.24L299.31 837.74L299.31 868.74L272.47 884.24L245.62 868.74L245.62 837.74zM272.47 915.24L299.31 930.74L299.31 961.74L272.47 977.24L245.62 961.74L245.62 930.74zM272.47 1008.24L299.31 1023.74L299.31 1054.74L272.47 1070.24L245.62 1054.74L245.62 1023.74zM353.01 31.74L379.86 47.24L379.86 78.24L353.01 93.74L326.16 78.24L326.16 47.24zM326.16 264.24L353.01 279.74L353.01 310.74L326.16 326.24L299.31 310.74L299.31 279.74zM353.01 310.74L379.86 326.24L379.86 357.24L353.01 372.74L326.16 357.24L326.16 326.24zM326.16 357.24L353.01 372.74L353.01 403.74L326.16 419.24L299.31 403.74L299.31 372.74zM353.01 403.74L379.86 419.24L379.86 450.24L353.01 465.74L326.16 450.24L326.16 419.24zM353.01 496.74L379.86 512.24L379.86 543.24L353.01 558.74L326.16 543.24L326.16 512.24zM353.01 589.74L379.86 605.24L379.86 636.24L353.01 651.74L326.16 636.24L326.16 605.24zM326.16 822.24L353.01 837.74L353.01 868.74L326.16 884.24L299.31 868.74L299.31 837.74zM353.01 1054.74L379.86 1070.24L379.86 1101.24L353.01 1116.74L326.16 1101.24L326.16 1070.24zM406.7 31.74L433.55 47.24L433.55 78.24L406.7 93.74L379.86 78.24L379.86 47.24zM406.7 310.74L433.55 326.24L433.55 357.24L406.7 372.74L379.86 357.24L379.86 326.24zM379.86 543.24L406.7 558.74L406.7 589.74L379.86 605.24L353.01 589.74L353.01 558.74zM406.7 589.74L433.55 605.24L433.55 636.24L406.7 651.74L379.86 636.24L379.86 605.24zM379.86 636.24L406.7 651.74L406.7 682.74L379.86 698.24L353.01 682.74L353.01 651.74zM379.86 822.24L406.7 837.74L406.7 868.74L379.86 884.24L353.01 868.74L353.01 837.74zM379.86 915.24L406.7 930.74L406.7 961.74L379.86 977.24L353.01 961.74L353.01 930.74zM379.86 1008.24L406.7 1023.74L406.7 1054.74L379.86 1070.24L353.01 1054.74L353.01 1023.74zM406.7 1054.74L433.55 1070.24L433.55 1101.24L406.7 1116.74L379.86 1101.24L379.86 1070.24zM460.4 31.74L487.25 47.24L487.25 78.24L460.4 93.74L433.55 78.24L433.55 47.24zM433.55 78.24L460.4 93.74L460.4 124.74L433.55 140.24L406.7 124.74L406.7 93.74zM433.55 171.24L460.4 186.74L460.4 217.74L433.55 233.24L406.7 217.74L406.7 186.74zM433.55 357.24L460.4 372.74L460.4 403.74L433.55 419.24L406.7 403.74L406.7 372.74zM433.55 450.24L460.4 465.74L460.4 496.74L433.55 512.24L406.7 496.74L406.7 465.74zM460.4 589.74L487.25 605.24L487.25 636.24L460.4 651.74L433.55 636.24L433.55 605.24zM433.55 636.24L460.4 651.74L460.4 682.74L433.55 698.24L406.7 682.74L406.7 651.74zM460.4 682.74L487.25 698.24L487.25 729.24L460.4 744.74L433.55 729.24L433.55 698.24zM433.55 729.24L460.4 744.74L460.4 775.74L433.55 791.24L406.7 775.74L406.7 744.74zM460.4 775.74L487.25 791.24L487.25 822.24L460.4 837.74L433.55 822.24L433.55 791.24zM433.55 1008.24L460.4 1023.74L460.4 1054.74L433.55 1070.24L406.7 1054.74L406.7 1023.74zM487.25 -14.76L514.09 0.74L514.09 31.74L487.25 47.24L460.4 31.74L460.4 0.74zM487.25 78.24L514.09 93.74L514.09 124.74L487.25 140.24L460.4 124.74L460.4 93.74zM487.25 171.24L514.09 186.74L514.09 217.74L487.25 233.24L460.4 217.74L460.4 186.74zM487.25 264.24L514.09 279.74L514.09 310.74L487.25 326.24L460.4 310.74L460.4 279.74zM487.25 357.24L514.09 372.74L514.09 403.74L487.25 419.24L460.4 403.74L460.4 372.74zM514.09 403.74L540.94 419.24L540.94 450.24L514.09 465.74L487.25 450.24L487.25 419.24zM487.25 450.24L514.09 465.74L514.09 496.74L487.25 512.24L460.4 496.74L460.4 465.74zM514.09 589.74L540.94 605.24L540.94 636.24L514.09 651.74L487.25 636.24L487.25 605.24zM514.09 775.74L540.94 791.24L540.94 822.24L514.09 837.74L487.25 822.24L487.25 791.24zM514.09 868.74L540.94 884.24L540.94 915.24L514.09 930.74L487.25 915.24L487.25 884.24zM540.94 -14.76L567.79 0.74L567.79 31.74L540.94 47.24L514.09 31.74L514.09 0.74zM567.79 124.74L594.64 140.24L594.64 171.24L567.79 186.74L540.94 171.24L540.94 140.24zM540.94 264.24L567.79 279.74L567.79 310.74L540.94 326.24L514.09 310.74L514.09 279.74zM567.79 403.74L594.64 419.24L594.64 450.24L567.79 465.74L540.94 450.24L540.94 419.24zM540.94 450.24L567.79 465.74L567.79 496.74L540.94 512.24L514.09 496.74L514.09 465.74zM540.94 543.24L567.79 558.74L567.79 589.74L540.94 605.24L514.09 589.74L514.09 558.74zM567.79 589.74L594.64 605.24L594.64 636.24L567.79 651.74L540.94 636.24L540.94 605.24zM567.79 682.74L594.64 698.24L594.64 729.24L567.79 744.74L540.94 729.24L540.94 698.24zM567.79 868.74L594.64 884.24L594.64 915.24L567.79 930.74L540.94 915.24L540.94 884.24zM567.79 961.74L594.64 977.24L594.64 1008.24L567.79 1023.74L540.94 1008.24L540.94 977.24zM540.94 1008.24L567.79 1023.74L567.79 1054.74L540.94 1070.24L514.09 1054.74L514.09 1023.74zM594.64 -14.76L621.48 0.74L621.48 31.74L594.64 47.24L567.79 31.74L567.79 0.74zM621.48 31.74L648.33 47.24L648.33 78.24L621.48 93.74L594.64 78.24L594.64 47.24zM594.64 78.24L621.48 93.74L621.48 124.74L594.64 140.24L567.79 124.74L567.79 93.74zM621.48 124.74L648.33 140.24L648.33 171.24L621.48 186.74L594.64 171.24L594.64 140.24zM621.48 217.74L648.33 233.24L648.33 264.24L621.48 279.74L594.64 264.24L594.64 233.24zM594.64 264.24L621.48 279.74L621.48 310.74L594.64 326.24L567.79 310.74L567.79 279.74zM621.48 310.74L648.33 326.24L648.33 357.24L621.48 372.74L594.64 357.24L594.64 326.24zM594.64 543.24L621.48 558.74L621.48 589.74L594.64 605.24L567.79 589.74L567.79 558.74zM594.64 636.24L621.48 651.74L621.48 682.74L594.64 698.24L567.79 682.74L567.79 651.74zM621.48 682.74L648.33 698.24L648.33 729.24L621.48 744.74L594.64 729.24L594.64 698.24zM621.48 775.74L648.33 791.24L648.33 822.24L621.48 837.74L594.64 822.24L594.64 791.24zM594.64 822.24L621.48 837.74L621.48 868.74L594.64 884.24L567.79 868.74L567.79 837.74zM594.64 1008.24L621.48 1023.74L621.48 1054.74L594.64 1070.24L567.79 1054.74L567.79 1023.74zM621.48 1054.74L648.33 1070.24L648.33 1101.24L621.48 1116.74L594.64 1101.24L594.64 1070.24zM648.33 -14.76L675.18 0.74L675.18 31.74L648.33 47.24L621.48 31.74L621.48 0.74zM675.18 31.74L702.03 47.24L702.03 78.24L675.18 93.74L648.33 78.24L648.33 47.24zM648.33 78.24L675.18 93.74L675.18 124.74L648.33 140.24L621.48 124.74L621.48 93.74zM675.18 124.74L702.03 140.24L702.03 171.24L675.18 186.74L648.33 171.24L648.33 140.24zM648.33 171.24L675.18 186.74L675.18 217.74L648.33 233.24L621.48 217.74L621.48 186.74zM648.33 357.24L675.18 372.74L675.18 403.74L648.33 419.24L621.48 403.74L621.48 372.74zM675.18 496.74L702.03 512.24L702.03 543.24L675.18 558.74L648.33 543.24L648.33 512.24zM675.18 589.74L702.03 605.24L702.03 636.24L675.18 651.74L648.33 636.24L648.33 605.24zM675.18 775.74L702.03 791.24L702.03 822.24L675.18 837.74L648.33 822.24L648.33 791.24zM648.33 822.24L675.18 837.74L675.18 868.74L648.33 884.24L621.48 868.74L621.48 837.74zM648.33 915.24L675.18 930.74L675.18 961.74L648.33 977.24L621.48 961.74L621.48 930.74zM675.18 961.74L702.03 977.24L702.03 1008.24L675.18 1023.74L648.33 1008.24L648.33 977.24zM728.87 124.74L755.72 140.24L755.72 171.24L728.87 186.74L702.03 171.24L702.03 140.24zM702.03 171.24L728.87 186.74L728.87 217.74L702.03 233.24L675.18 217.74L675.18 186.74zM728.87 217.74L755.72 233.24L755.72 264.24L728.87 279.74L702.03 264.24L702.03 233.24zM728.87 310.74L755.72 326.24L755.72 357.24L728.87 372.74L702.03 357.24L702.03 326.24zM702.03 357.24L728.87 372.74L728.87 403.74L702.03 419.24L675.18 403.74L675.18 372.74zM728.87 403.74L755.72 419.24L755.72 450.24L728.87 465.74L702.03 450.24L702.03 419.24zM702.03 543.24L728.87 558.74L728.87 589.74L702.03 605.24L675.18 589.74L675.18 558.74zM702.03 822.24L728.87 837.74L728.87 868.74L702.03 884.24L675.18 868.74L675.18 837.74zM728.87 1054.74L755.72 1070.24L755.72 1101.24L728.87 1116.74L702.03 1101.24L702.03 1070.24zM755.72 -14.76L782.57 0.74L782.57 31.74L755.72 47.24L728.87 31.74L728.87 0.74zM782.57 124.74L809.42 140.24L809.42 171.24L782.57 186.74L755.72 171.24L755.72 140.24zM755.72 264.24L782.57 279.74L782.57 310.74L755.72 326.24L728.87 310.74L728.87 279.74zM782.57 496.74L809.42 512.24L809.42 543.24L782.57 558.74L755.72 543.24L755.72 512.24zM782.57 589.74L809.42 605.24L809.42 636.24L782.57 651.74L755.72 636.24L755.72 605.24zM782.57 682.74L809.42 698.24L809.42 729.24L782.57 744.74L755.72 729.24L755.72 698.24zM782.57 775.74L809.42 791.24L809.42 822.24L782.57 837.74L755.72 822.24L755.72 791.24zM755.72 822.24L782.57 837.74L782.57 868.74L755.72 884.24L728.87 868.74L728.87 837.74zM782.57 868.74L809.42 884.24L809.42 915.24L782.57 930.74L755.72 915.24L755.72 884.24zM782.57 961.74L809.42 977.24L809.42 1008.24L782.57 1023.74L755.72 1008.24L755.72 977.24zM809.42 -14.76L836.26 0.74L836.26 31.74L809.42 47.24L782.57 31.74L782.57 0.74zM836.26 124.74L863.11 140.24L863.11 171.24L836.26 186.74L809.42 171.24L809.42 140.24zM809.42 171.24L836.26 186.74L836.26 217.74L809.42 233.24L782.57 217.74L782.57 186.74zM836.26 217.74L863.11 233.24L863.11 264.24L836.26 279.74L809.42 264.24L809.42 233.24zM836.26 496.74L863.11 512.24L863.11 543.24L836.26 558.74L809.42 543.24L809.42 512.24zM836.26 589.74L863.11 605.24L863.11 636.24L836.26 651.74L809.42 636.24L809.42 605.24zM836.26 775.74L863.11 791.24L863.11 822.24L836.26 837.74L809.42 822.24L809.42 791.24zM836.26 868.74L863.11 884.24L863.11 915.24L836.26 930.74L809.42 915.24L809.42 884.24zM836.26 961.74L863.11 977.24L863.11 1008.24L836.26 1023.74L809.42 1008.24L809.42 977.24zM809.42 1008.24L836.26 1023.74L836.26 1054.74L809.42 1070.24L782.57 1054.74L782.57 1023.74zM836.26 1054.74L863.11 1070.24L863.11 1101.24L836.26 1116.74L809.42 1101.24L809.42 1070.24zM889.96 124.74L916.81 140.24L916.81 171.24L889.96 186.74L863.11 171.24L863.11 140.24zM863.11 264.24L889.96 279.74L889.96 310.74L863.11 326.24L836.26 310.74L836.26 279.74zM863.11 357.24L889.96 372.74L889.96 403.74L863.11 419.24L836.26 403.74L836.26 372.74zM863.11 543.24L889.96 558.74L889.96 589.74L863.11 605.24L836.26 589.74L836.26 558.74zM889.96 682.74L916.81 698.24L916.81 729.24L889.96 744.74L863.11 729.24L863.11 698.24zM889.96 775.74L916.81 791.24L916.81 822.24L889.96 837.74L863.11 822.24L863.11 791.24zM889.96 868.74L916.81 884.24L916.81 915.24L889.96 930.74L863.11 915.24L863.11 884.24zM863.11 1008.24L889.96 1023.74L889.96 1054.74L863.11 1070.24L836.26 1054.74L836.26 1023.74zM889.96 1054.74L916.81 1070.24L916.81 1101.24L889.96 1116.74L863.11 1101.24L863.11 1070.24zM916.81 -14.76L943.65 0.74L943.65 31.74L916.81 47.24L889.96 31.74L889.96 0.74zM916.81 264.24L943.65 279.74L943.65 310.74L916.81 326.24L889.96 310.74L889.96 279.74zM943.65 496.74L970.5 512.24L970.5 543.24L943.65 558.74L916.81 543.24L916.81 512.24zM943.65 589.74L970.5 605.24L970.5 636.24L943.65 651.74L916.81 636.24L916.81 605.24zM916.81 636.24L943.65 651.74L943.65 682.74L916.81 698.24L889.96 682.74L889.96 651.74zM943.65 775.74L970.5 791.24L970.5 822.24L943.65 837.74L916.81 822.24L916.81 791.24zM916.81 822.24L943.65 837.74L943.65 868.74L916.81 884.24L889.96 868.74L889.96 837.74zM916.81 915.24L943.65 930.74L943.65 961.74L916.81 977.24L889.96 961.74L889.96 930.74zM916.81 1008.24L943.65 1023.74L943.65 1054.74L916.81 1070.24L889.96 1054.74L889.96 1023.74zM997.35 124.74L1024.2 140.24L1024.2 171.24L997.35 186.74L970.5 171.24L970.5 140.24zM970.5 264.24L997.35 279.74L997.35 310.74L970.5 326.24L943.65 310.74L943.65 279.74zM997.35 310.74L1024.2 326.24L1024.2 357.24L997.35 372.74L970.5 357.24L970.5 326.24zM997.35 403.74L1024.2 419.24L1024.2 450.24L997.35 465.74L970.5 450.24L970.5 419.24zM970.5 450.24L997.35 465.74L997.35 496.74L970.5 512.24L943.65 496.74L943.65 465.74zM970.5 543.24L997.35 558.74L997.35 589.74L970.5 605.24L943.65 589.74L943.65 558.74zM997.35 589.74L1024.2 605.24L1024.2 636.24L997.35 651.74L970.5 636.24L970.5 605.24zM970.5 729.24L997.35 744.74L997.35 775.74L970.5 791.24L943.65 775.74L943.65 744.74zM997.35 775.74L1024.2 791.24L1024.2 822.24L997.35 837.74L970.5 822.24L970.5 791.24zM970.5 822.24L997.35 837.74L997.35 868.74L970.5 884.24L943.65 868.74L943.65 837.74zM1051.04 124.74L1077.89 140.24L1077.89 171.24L1051.04 186.74L1024.2 171.24L1024.2 140.24zM1024.2 171.24L1051.04 186.74L1051.04 217.74L1024.2 233.24L997.35 217.74L997.35 186.74zM1051.04 217.74L1077.89 233.24L1077.89 264.24L1051.04 279.74L1024.2 264.24L1024.2 233.24zM1024.2 264.24L1051.04 279.74L1051.04 310.74L1024.2 326.24L997.35 310.74L997.35 279.74zM1051.04 403.74L1077.89 419.24L1077.89 450.24L1051.04 465.74L1024.2 450.24L1024.2 419.24zM1051.04 496.74L1077.89 512.24L1077.89 543.24L1051.04 558.74L1024.2 543.24L1024.2 512.24zM1024.2 636.24L1051.04 651.74L1051.04 682.74L1024.2 698.24L997.35 682.74L997.35 651.74zM1024.2 822.24L1051.04 837.74L1051.04 868.74L1024.2 884.24L997.35 868.74L997.35 837.74zM1024.2 915.24L1051.04 930.74L1051.04 961.74L1024.2 977.24L997.35 961.74L997.35 930.74zM1024.2 1008.24L1051.04 1023.74L1051.04 1054.74L1024.2 1070.24L997.35 1054.74L997.35 1023.74zM1104.74 124.74L1131.59 140.24L1131.59 171.24L1104.74 186.74L1077.89 171.24L1077.89 140.24zM1077.89 171.24L1104.74 186.74L1104.74 217.74L1077.89 233.24L1051.04 217.74L1051.04 186.74zM1104.74 217.74L1131.59 233.24L1131.59 264.24L1104.74 279.74L1077.89 264.24L1077.89 233.24zM1077.89 264.24L1104.74 279.74L1104.74 310.74L1077.89 326.24L1051.04 310.74L1051.04 279.74zM1104.74 496.74L1131.59 512.24L1131.59 543.24L1104.74 558.74L1077.89 543.24L1077.89 512.24zM1104.74 682.74L1131.59 698.24L1131.59 729.24L1104.74 744.74L1077.89 729.24L1077.89 698.24zM1077.89 729.24L1104.74 744.74L1104.74 775.74L1077.89 791.24L1051.04 775.74L1051.04 744.74zM1077.89 822.24L1104.74 837.74L1104.74 868.74L1077.89 884.24L1051.04 868.74L1051.04 837.74zM1158.43 31.74L1185.28 47.24L1185.28 78.24L1158.43 93.74L1131.59 78.24L1131.59 47.24zM1131.59 78.24L1158.43 93.74L1158.43 124.74L1131.59 140.24L1104.74 124.74L1104.74 93.74zM1158.43 124.74L1185.28 140.24L1185.28 171.24L1158.43 186.74L1131.59 171.24L1131.59 140.24zM1131.59 264.24L1158.43 279.74L1158.43 310.74L1131.59 326.24L1104.74 310.74L1104.74 279.74zM1131.59 357.24L1158.43 372.74L1158.43 403.74L1131.59 419.24L1104.74 403.74L1104.74 372.74zM1158.43 496.74L1185.28 512.24L1185.28 543.24L1158.43 558.74L1131.59 543.24L1131.59 512.24zM1131.59 543.24L1158.43 558.74L1158.43 589.74L1131.59 605.24L1104.74 589.74L1104.74 558.74zM1131.59 1008.24L1158.43 1023.74L1158.43 1054.74L1131.59 1070.24L1104.74 1054.74L1104.74 1023.74zM1185.28 -14.76L1212.13 0.74L1212.13 31.74L1185.28 47.24L1158.43 31.74L1158.43 0.74zM1212.13 31.74L1238.98 47.24L1238.98 78.24L1212.13 93.74L1185.28 78.24L1185.28 47.24zM1185.28 264.24L1212.13 279.74L1212.13 310.74L1185.28 326.24L1158.43 310.74L1158.43 279.74zM1212.13 310.74L1238.98 326.24L1238.98 357.24L1212.13 372.74L1185.28 357.24L1185.28 326.24zM1185.28 450.24L1212.13 465.74L1212.13 496.74L1185.28 512.24L1158.43 496.74L1158.43 465.74zM1212.13 496.74L1238.98 512.24L1238.98 543.24L1212.13 558.74L1185.28 543.24L1185.28 512.24zM1185.28 543.24L1212.13 558.74L1212.13 589.74L1185.28 605.24L1158.43 589.74L1158.43 558.74zM1185.28 636.24L1212.13 651.74L1212.13 682.74L1185.28 698.24L1158.43 682.74L1158.43 651.74zM1185.28 729.24L1212.13 744.74L1212.13 775.74L1185.28 791.24L1158.43 775.74L1158.43 744.74zM1185.28 822.24L1212.13 837.74L1212.13 868.74L1185.28 884.24L1158.43 868.74L1158.43 837.74zM1185.28 915.24L1212.13 930.74L1212.13 961.74L1185.28 977.24L1158.43 961.74L1158.43 930.74zM1212.13 961.74L1238.98 977.24L1238.98 1008.24L1212.13 1023.74L1185.28 1008.24L1185.28 977.24zM1185.28 1008.24L1212.13 1023.74L1212.13 1054.74L1185.28 1070.24L1158.43 1054.74L1158.43 1023.74zM1212.13 1054.74L1238.98 1070.24L1238.98 1101.24L1212.13 1116.74L1185.28 1101.24L1185.28 1070.24zM1238.98 -14.76L1265.82 0.74L1265.82 31.74L1238.98 47.24L1212.13 31.74L1212.13 0.74zM1265.82 124.74L1292.67 140.24L1292.67 171.24L1265.82 186.74L1238.98 171.24L1238.98 140.24zM1238.98 171.24L1265.82 186.74L1265.82 217.74L1238.98 233.24L1212.13 217.74L1212.13 186.74zM1238.98 264.24L1265.82 279.74L1265.82 310.74L1238.98 326.24L1212.13 310.74L1212.13 279.74zM1238.98 357.24L1265.82 372.74L1265.82 403.74L1238.98 419.24L1212.13 403.74L1212.13 372.74zM1238.98 450.24L1265.82 465.74L1265.82 496.74L1238.98 512.24L1212.13 496.74L1212.13 465.74zM1265.82 589.74L1292.67 605.24L1292.67 636.24L1265.82 651.74L1238.98 636.24L1238.98 605.24zM1238.98 729.24L1265.82 744.74L1265.82 775.74L1238.98 791.24L1212.13 775.74L1212.13 744.74zM1265.82 868.74L1292.67 884.24L1292.67 915.24L1265.82 930.74L1238.98 915.24L1238.98 884.24zM1238.98 915.24L1265.82 930.74L1265.82 961.74L1238.98 977.24L1212.13 961.74L1212.13 930.74zM1292.67 -14.76L1319.52 0.74L1319.52 31.74L1292.67 47.24L1265.82 31.74L1265.82 0.74zM1292.67 78.24L1319.52 93.74L1319.52 124.74L1292.67 140.24L1265.82 124.74L1265.82 93.74zM1319.52 310.74L1346.37 326.24L1346.37 357.24L1319.52 372.74L1292.67 357.24L1292.67 326.24zM1292.67 357.24L1319.52 372.74L1319.52 403.74L1292.67 419.24L1265.82 403.74L1265.82 372.74zM1319.52 403.74L1346.37 419.24L1346.37 450.24L1319.52 465.74L1292.67 450.24L1292.67 419.24zM1319.52 682.74L1346.37 698.24L1346.37 729.24L1319.52 744.74L1292.67 729.24L1292.67 698.24zM1319.52 775.74L1346.37 791.24L1346.37 822.24L1319.52 837.74L1292.67 822.24L1292.67 791.24zM1292.67 822.24L1319.52 837.74L1319.52 868.74L1292.67 884.24L1265.82 868.74L1265.82 837.74zM1319.52 961.74L1346.37 977.24L1346.37 1008.24L1319.52 1023.74L1292.67 1008.24L1292.67 977.24zM1292.67 1008.24L1319.52 1023.74L1319.52 1054.74L1292.67 1070.24L1265.82 1054.74L1265.82 1023.74zM1346.37 -14.76L1373.22 0.74L1373.22 31.74L1346.37 47.24L1319.52 31.74L1319.52 0.74zM1373.22 31.74L1400.06 47.24L1400.06 78.24L1373.22 93.74L1346.37 78.24L1346.37 47.24zM1346.37 171.24L1373.22 186.74L1373.22 217.74L1346.37 233.24L1319.52 217.74L1319.52 186.74zM1373.22 217.74L1400.06 233.24L1400.06 264.24L1373.22 279.74L1346.37 264.24L1346.37 233.24zM1346.37 264.24L1373.22 279.74L1373.22 310.74L1346.37 326.24L1319.52 310.74L1319.52 279.74zM1373.22 310.74L1400.06 326.24L1400.06 357.24L1373.22 372.74L1346.37 357.24L1346.37 326.24zM1346.37 450.24L1373.22 465.74L1373.22 496.74L1346.37 512.24L1319.52 496.74L1319.52 465.74zM1373.22 682.74L1400.06 698.24L1400.06 729.24L1373.22 744.74L1346.37 729.24L1346.37 698.24zM1346.37 729.24L1373.22 744.74L1373.22 775.74L1346.37 791.24L1319.52 775.74L1319.52 744.74zM1373.22 775.74L1400.06 791.24L1400.06 822.24L1373.22 837.74L1346.37 822.24L1346.37 791.24zM1373.22 868.74L1400.06 884.24L1400.06 915.24L1373.22 930.74L1346.37 915.24L1346.37 884.24zM1426.91 124.74L1453.76 140.24L1453.76 171.24L1426.91 186.74L1400.06 171.24L1400.06 140.24zM1426.91 217.74L1453.76 233.24L1453.76 264.24L1426.91 279.74L1400.06 264.24L1400.06 233.24zM1400.06 264.24L1426.91 279.74L1426.91 310.74L1400.06 326.24L1373.22 310.74L1373.22 279.74zM1400.06 357.24L1426.91 372.74L1426.91 403.74L1400.06 419.24L1373.22 403.74L1373.22 372.74zM1400.06 450.24L1426.91 465.74L1426.91 496.74L1400.06 512.24L1373.22 496.74L1373.22 465.74zM1426.91 496.74L1453.76 512.24L1453.76 543.24L1426.91 558.74L1400.06 543.24L1400.06 512.24zM1400.06 636.24L1426.91 651.74L1426.91 682.74L1400.06 698.24L1373.22 682.74L1373.22 651.74zM1400.06 822.24L1426.91 837.74L1426.91 868.74L1400.06 884.24L1373.22 868.74L1373.22 837.74zM1426.91 868.74L1453.76 884.24L1453.76 915.24L1426.91 930.74L1400.06 915.24L1400.06 884.24zM1426.91 1054.74L1453.76 1070.24L1453.76 1101.24L1426.91 1116.74L1400.06 1101.24L1400.06 1070.24zM1480.61 31.74L1507.45 47.24L1507.45 78.24L1480.61 93.74L1453.76 78.24L1453.76 47.24zM1453.76 78.24L1480.61 93.74L1480.61 124.74L1453.76 140.24L1426.91 124.74L1426.91 93.74zM1480.61 124.74L1507.45 140.24L1507.45 171.24L1480.61 186.74L1453.76 171.24L1453.76 140.24zM1453.76 171.24L1480.61 186.74L1480.61 217.74L1453.76 233.24L1426.91 217.74L1426.91 186.74zM1480.61 310.74L1507.45 326.24L1507.45 357.24L1480.61 372.74L1453.76 357.24L1453.76 326.24zM1453.76 357.24L1480.61 372.74L1480.61 403.74L1453.76 419.24L1426.91 403.74L1426.91 372.74zM1453.76 450.24L1480.61 465.74L1480.61 496.74L1453.76 512.24L1426.91 496.74L1426.91 465.74zM1453.76 729.24L1480.61 744.74L1480.61 775.74L1453.76 791.24L1426.91 775.74L1426.91 744.74zM1453.76 822.24L1480.61 837.74L1480.61 868.74L1453.76 884.24L1426.91 868.74L1426.91 837.74zM1480.61 868.74L1507.45 884.24L1507.45 915.24L1480.61 930.74L1453.76 915.24L1453.76 884.24zM1507.45 171.24L1534.3 186.74L1534.3 217.74L1507.45 233.24L1480.61 217.74L1480.61 186.74zM1507.45 357.24L1534.3 372.74L1534.3 403.74L1507.45 419.24L1480.61 403.74L1480.61 372.74zM1507.45 543.24L1534.3 558.74L1534.3 589.74L1507.45 605.24L1480.61 589.74L1480.61 558.74zM1534.3 589.74L1561.15 605.24L1561.15 636.24L1534.3 651.74L1507.45 636.24L1507.45 605.24zM1534.3 775.74L1561.15 791.24L1561.15 822.24L1534.3 837.74L1507.45 822.24L1507.45 791.24zM1534.3 961.74L1561.15 977.24L1561.15 1008.24L1534.3 1023.74L1507.45 1008.24L1507.45 977.24zM1561.15 -14.76L1588 0.74L1588 31.74L1561.15 47.24L1534.3 31.74L1534.3 0.74zM1588 217.74L1614.84 233.24L1614.84 264.24L1588 279.74L1561.15 264.24L1561.15 233.24zM1561.15 264.24L1588 279.74L1588 310.74L1561.15 326.24L1534.3 310.74L1534.3 279.74zM1588 310.74L1614.84 326.24L1614.84 357.24L1588 372.74L1561.15 357.24L1561.15 326.24zM1561.15 450.24L1588 465.74L1588 496.74L1561.15 512.24L1534.3 496.74L1534.3 465.74zM1561.15 543.24L1588 558.74L1588 589.74L1561.15 605.24L1534.3 589.74L1534.3 558.74zM1588 589.74L1614.84 605.24L1614.84 636.24L1588 651.74L1561.15 636.24L1561.15 605.24zM1561.15 729.24L1588 744.74L1588 775.74L1561.15 791.24L1534.3 775.74L1534.3 744.74zM1561.15 822.24L1588 837.74L1588 868.74L1561.15 884.24L1534.3 868.74L1534.3 837.74zM1588 868.74L1614.84 884.24L1614.84 915.24L1588 930.74L1561.15 915.24L1561.15 884.24zM1588 1054.74L1614.84 1070.24L1614.84 1101.24L1588 1116.74L1561.15 1101.24L1561.15 1070.24zM1614.84 -14.76L1641.69 0.74L1641.69 31.74L1614.84 47.24L1588 31.74L1588 0.74zM1641.69 31.74L1668.54 47.24L1668.54 78.24L1641.69 93.74L1614.84 78.24L1614.84 47.24zM1614.84 78.24L1641.69 93.74L1641.69 124.74L1614.84 140.24L1588 124.74L1588 93.74zM1641.69 124.74L1668.54 140.24L1668.54 171.24L1641.69 186.74L1614.84 171.24L1614.84 140.24zM1641.69 217.74L1668.54 233.24L1668.54 264.24L1641.69 279.74L1614.84 264.24L1614.84 233.24zM1614.84 357.24L1641.69 372.74L1641.69 403.74L1614.84 419.24L1588 403.74L1588 372.74zM1641.69 403.74L1668.54 419.24L1668.54 450.24L1641.69 465.74L1614.84 450.24L1614.84 419.24zM1641.69 496.74L1668.54 512.24L1668.54 543.24L1641.69 558.74L1614.84 543.24L1614.84 512.24zM1641.69 589.74L1668.54 605.24L1668.54 636.24L1641.69 651.74L1614.84 636.24L1614.84 605.24zM1614.84 636.24L1641.69 651.74L1641.69 682.74L1614.84 698.24L1588 682.74L1588 651.74zM1641.69 682.74L1668.54 698.24L1668.54 729.24L1641.69 744.74L1614.84 729.24L1614.84 698.24zM1641.69 775.74L1668.54 791.24L1668.54 822.24L1641.69 837.74L1614.84 822.24L1614.84 791.24zM1614.84 822.24L1641.69 837.74L1641.69 868.74L1614.84 884.24L1588 868.74L1588 837.74zM1614.84 915.24L1641.69 930.74L1641.69 961.74L1614.84 977.24L1588 961.74L1588 930.74zM1641.69 961.74L1668.54 977.24L1668.54 1008.24L1641.69 1023.74L1614.84 1008.24L1614.84 977.24zM1614.84 1008.24L1641.69 1023.74L1641.69 1054.74L1614.84 1070.24L1588 1054.74L1588 1023.74zM1695.39 31.74L1722.23 47.24L1722.23 78.24L1695.39 93.74L1668.54 78.24L1668.54 47.24zM1668.54 78.24L1695.39 93.74L1695.39 124.74L1668.54 140.24L1641.69 124.74L1641.69 93.74zM1668.54 171.24L1695.39 186.74L1695.39 217.74L1668.54 233.24L1641.69 217.74L1641.69 186.74zM1668.54 264.24L1695.39 279.74L1695.39 310.74L1668.54 326.24L1641.69 310.74L1641.69 279.74zM1668.54 357.24L1695.39 372.74L1695.39 403.74L1668.54 419.24L1641.69 403.74L1641.69 372.74zM1695.39 403.74L1722.23 419.24L1722.23 450.24L1695.39 465.74L1668.54 450.24L1668.54 419.24zM1695.39 589.74L1722.23 605.24L1722.23 636.24L1695.39 651.74L1668.54 636.24L1668.54 605.24zM1668.54 729.24L1695.39 744.74L1695.39 775.74L1668.54 791.24L1641.69 775.74L1641.69 744.74zM1695.39 775.74L1722.23 791.24L1722.23 822.24L1695.39 837.74L1668.54 822.24L1668.54 791.24zM1668.54 822.24L1695.39 837.74L1695.39 868.74L1668.54 884.24L1641.69 868.74L1641.69 837.74zM1695.39 868.74L1722.23 884.24L1722.23 915.24L1695.39 930.74L1668.54 915.24L1668.54 884.24zM1722.23 -14.76L1749.08 0.74L1749.08 31.74L1722.23 47.24L1695.39 31.74L1695.39 0.74zM1749.08 31.74L1775.93 47.24L1775.93 78.24L1749.08 93.74L1722.23 78.24L1722.23 47.24zM1722.23 171.24L1749.08 186.74L1749.08 217.74L1722.23 233.24L1695.39 217.74L1695.39 186.74zM1749.08 217.74L1775.93 233.24L1775.93 264.24L1749.08 279.74L1722.23 264.24L1722.23 233.24zM1722.23 357.24L1749.08 372.74L1749.08 403.74L1722.23 419.24L1695.39 403.74L1695.39 372.74zM1749.08 403.74L1775.93 419.24L1775.93 450.24L1749.08 465.74L1722.23 450.24L1722.23 419.24zM1749.08 496.74L1775.93 512.24L1775.93 543.24L1749.08 558.74L1722.23 543.24L1722.23 512.24zM1722.23 543.24L1749.08 558.74L1749.08 589.74L1722.23 605.24L1695.39 589.74L1695.39 558.74zM1722.23 729.24L1749.08 744.74L1749.08 775.74L1722.23 791.24L1695.39 775.74L1695.39 744.74zM1722.23 822.24L1749.08 837.74L1749.08 868.74L1722.23 884.24L1695.39 868.74L1695.39 837.74zM1749.08 868.74L1775.93 884.24L1775.93 915.24L1749.08 930.74L1722.23 915.24L1722.23 884.24zM1749.08 961.74L1775.93 977.24L1775.93 1008.24L1749.08 1023.74L1722.23 1008.24L1722.23 977.24zM1802.78 124.74L1829.62 140.24L1829.62 171.24L1802.78 186.74L1775.93 171.24L1775.93 140.24zM1775.93 171.24L1802.78 186.74L1802.78 217.74L1775.93 233.24L1749.08 217.74L1749.08 186.74zM1802.78 217.74L1829.62 233.24L1829.62 264.24L1802.78 279.74L1775.93 264.24L1775.93 233.24zM1775.93 264.24L1802.78 279.74L1802.78 310.74L1775.93 326.24L1749.08 310.74L1749.08 279.74zM1802.78 403.74L1829.62 419.24L1829.62 450.24L1802.78 465.74L1775.93 450.24L1775.93 419.24zM1775.93 450.24L1802.78 465.74L1802.78 496.74L1775.93 512.24L1749.08 496.74L1749.08 465.74zM1802.78 496.74L1829.62 512.24L1829.62 543.24L1802.78 558.74L1775.93 543.24L1775.93 512.24zM1802.78 682.74L1829.62 698.24L1829.62 729.24L1802.78 744.74L1775.93 729.24L1775.93 698.24zM1775.93 729.24L1802.78 744.74L1802.78 775.74L1775.93 791.24L1749.08 775.74L1749.08 744.74zM1802.78 775.74L1829.62 791.24L1829.62 822.24L1802.78 837.74L1775.93 822.24L1775.93 791.24zM1856.47 31.74L1883.32 47.24L1883.32 78.24L1856.47 93.74L1829.62 78.24L1829.62 47.24zM1856.47 124.74L1883.32 140.24L1883.32 171.24L1856.47 186.74L1829.62 171.24L1829.62 140.24zM1829.62 264.24L1856.47 279.74L1856.47 310.74L1829.62 326.24L1802.78 310.74L1802.78 279.74zM1829.62 357.24L1856.47 372.74L1856.47 403.74L1829.62 419.24L1802.78 403.74L1802.78 372.74zM1856.47 775.74L1883.32 791.24L1883.32 822.24L1856.47 837.74L1829.62 822.24L1829.62 791.24zM1829.62 1008.24L1856.47 1023.74L1856.47 1054.74L1829.62 1070.24L1802.78 1054.74L1802.78 1023.74zM1910.17 31.74L1937.01 47.24L1937.01 78.24L1910.17 93.74L1883.32 78.24L1883.32 47.24zM1883.32 78.24L1910.17 93.74L1910.17 124.74L1883.32 140.24L1856.47 124.74L1856.47 93.74zM1910.17 124.74L1937.01 140.24L1937.01 171.24L1910.17 186.74L1883.32 171.24L1883.32 140.24zM1910.17 310.74L1937.01 326.24L1937.01 357.24L1910.17 372.74L1883.32 357.24L1883.32 326.24zM1883.32 357.24L1910.17 372.74L1910.17 403.74L1883.32 419.24L1856.47 403.74L1856.47 372.74zM1910.17 682.74L1937.01 698.24L1937.01 729.24L1910.17 744.74L1883.32 729.24L1883.32 698.24zM1883.32 729.24L1910.17 744.74L1910.17 775.74L1883.32 791.24L1856.47 775.74L1856.47 744.74zM1910.17 775.74L1937.01 791.24L1937.01 822.24L1910.17 837.74L1883.32 822.24L1883.32 791.24zM1883.32 915.24L1910.17 930.74L1910.17 961.74L1883.32 977.24L1856.47 961.74L1856.47 930.74z" stroke="url(&quot;#SvgjsLinearGradient2436&quot;)" stroke-width="2"></path></g><defs><mask id="SvgjsMask2434"><rect width="1920" height="1080" fill="#ffffff"></rect></mask><linearGradient x1="10.94%" y1="-19.44%" x2="89.06%" y2="119.44%" gradientUnits="userSpaceOnUse" id="SvgjsLinearGradient2435"><stop stop-color="rgba(14, 42, 71, 1)" offset="0.44"></stop><stop stop-color="rgba(0, 69, 158, 1)" offset="1"></stop></linearGradient><linearGradient x1="210.048" y1="-209.95200000000003" x2="1709.9520000000002" y2="1289.952" gradientUnits="userSpaceOnUse" id="SvgjsLinearGradient2436"><stop stop-color="#0e2a47" offset="0"></stop><stop stop-color="#00459e" offset="1"></stop></linearGradient></defs></svg>